{
copyright = "Copyright (c) 2014 by Steven Ng with Reserved Font Name \"Aitu\". Licensed under the SIL Open Font License, Version 1.1. ";
customParameters = (
{
name = vendorID;
value = tyPL;
}
);
date = "2014-08-18 18:16:14 +0000";
designer = "Steven Ng";
designerURL = "http://www.assignittous.com";
familyName = "Aitu";
featurePrefixes = (
{
automatic = 1;
code = "languagesystem DFLT dflt;\012languagesystem latn dflt;\012languagesystem math dflt;\012";
name = Languagesystems;
}
);
features = (
{
automatic = 1;
code = "feature frac;\012";
name = aalt;
},
{
automatic = 1;
code = "sub one slash four by onequarter;\012sub one slash two by onehalf;\012sub three slash four by threequarters;\012";
name = frac;
},
{
automatic = 1;
code = "sub f f i by f_f_i;\012sub f f l by f_f_l;\012sub f i by fi;\012sub f l by fl;\012";
name = liga;
}
);
fontMaster = (
{
alignmentZones = (
"{1415, 19}",
"{995, 16}",
"{0, -15}",
"{-352, -3}"
);
ascender = 1610;
capHeight = 1415;
customParameters = (
{
name = typoAscender;
value = 1610;
},
{
name = typoDescender;
value = "-390";
},
{
name = typoLineGap;
value = 400;
},
{
name = underlinePosition;
value = "-6";
}
);
descender = "-390";
id = "6B32BEBF-3546-47C2-BC97-37B70AAB72D2";
userData = {
GSCornerRadius = 15;
};
weight = Light;
weightValue = 300;
widthValue = 5;
xHeight = 995;
}
);
glyphs = (
{
glyphname = A;
layers = (
{
layerId = "6B32BEBF-3546-47C2-BC97-37B70AAB72D2";
name = Light;
paths = (
{
closed = 1;
nodes = (
"1285 0 LINE",
"706 1415 LINE",
"605 1415 LINE",
"26 0 LINE",
"104 0 LINE SMOOTH",
"113.333 0 OFFCURVE",
"121.333 2.66667 OFFCURVE",
"128 8 CURVE SMOOTH",
"134.667 13.3333 OFFCURVE",
"139.333 19.6667 OFFCURVE",
"142 27 CURVE",
"308 438 LINE",
"1003 438 LINE",
"1169 27 LINE SMOOTH",
"1172.33 19 OFFCURVE",
"1177 12.5 OFFCURVE",
"1183 7.5 CURVE SMOOTH",
"1189 2.5 OFFCURVE",
"1196.67 0 OFFCURVE",
"1206 0 CURVE SMOOTH"
);
},
{
closed = 1;
nodes = (
"338 514 LINE",
"627 1228 LINE SMOOTH",
"631.667 1239.33 OFFCURVE",
"636.333 1252.33 OFFCURVE",
"641 1267 CURVE SMOOTH",
"645.667 1281.67 OFFCURVE",
"650.333 1297 OFFCURVE",
"655 1313 CURVE",
"664.333 1280.33 OFFCURVE",
"674 1252.33 OFFCURVE",
"684 1229 CURVE SMOOTH",
"972 514 LINE"
);
}
);
width = 1311;
}
);
leftKerningGroup = A;
rightKerningGroup = A;
unicode = 0041;
},
{
glyphname = Aacute;
layers = (
{
layerId = "6B32BEBF-3546-47C2-BC97-37B70AAB72D2";
name = Light;
paths = (
{
closed = 1;
nodes = (
"26 0 LINE"
);
},
{
closed = 1;
nodes = (
"1285 0 LINE",
"706 1415 LINE",
"605 1415 LINE",
"26 0 LINE",
"104 0 LINE SMOOTH",
"113.333 0 OFFCURVE",
"121.333 2.66667 OFFCURVE",
"128 8 CURVE SMOOTH",
"134.667 13.3333 OFFCURVE",
"139.333 19.6667 OFFCURVE",
"142 27 CURVE",
"308 438 LINE",
"1003 438 LINE",
"1169 27 LINE SMOOTH",
"1172.33 19 OFFCURVE",
"1177 12.5 OFFCURVE",
"1183 7.5 CURVE SMOOTH",
"1189 2.5 OFFCURVE",
"1196.67 0 OFFCURVE",
"1206 0 CURVE SMOOTH"
);
},
{
closed = 1;
nodes = (
"338 514 LINE",
"627 1228 LINE SMOOTH",
"631.667 1239.33 OFFCURVE",
"636.333 1252.33 OFFCURVE",
"641 1267 CURVE SMOOTH",
"645.667 1281.67 OFFCURVE",
"650.333 1297 OFFCURVE",
"655 1313 CURVE",
"664.333 1280.33 OFFCURVE",
"674 1252.33 OFFCURVE",
"684 1229 CURVE SMOOTH",
"972 514 LINE"
);
},
{
closed = 1;
nodes = (
"982 1841 LINE",
"869 1841 LINE SMOOTH",
"853 1841 OFFCURVE",
"840.833 1839.67 OFFCURVE",
"832.5 1837 CURVE SMOOTH",
"824.167 1834.33 OFFCURVE",
"816 1828.33 OFFCURVE",
"808 1819 CURVE",
"550 1542 LINE",
"615 1542 LINE SMOOTH",
"623 1542 OFFCURVE",
"630 1542.67 OFFCURVE",
"636 1544 CURVE SMOOTH",
"642 1545.33 OFFCURVE",
"648 1548.67 OFFCURVE",
"654 1554 CURVE SMOOTH"
);
}
);
width = 1311;
}
);
leftKerningGroup = A;
rightKerningGroup = A;
unicode = 00C1;
},
{
glyphname = Acircumflex;
layers = (
{
layerId = "6B32BEBF-3546-47C2-BC97-37B70AAB72D2";
name = Light;
paths = (
{
closed = 1;
nodes = (
"26 0 LINE"
);
},
{
closed = 1;
nodes = (
"1285 0 LINE",
"706 1415 LINE",
"605 1415 LINE",
"26 0 LINE",
"104 0 LINE SMOOTH",
"113.333 0 OFFCURVE",
"121.333 2.66667 OFFCURVE",
"128 8 CURVE SMOOTH",
"134.667 13.3333 OFFCURVE",
"139.333 19.6667 OFFCURVE",
"142 27 CURVE",
"308 438 LINE",
"1003 438 LINE",
"1169 27 LINE SMOOTH",
"1172.33 19 OFFCURVE",
"1177 12.5 OFFCURVE",
"1183 7.5 CURVE SMOOTH",
"1189 2.5 OFFCURVE",
"1196.67 0 OFFCURVE",
"1206 0 CURVE SMOOTH"
);
},
{
closed = 1;
nodes = (
"338 514 LINE",
"627 1228 LINE SMOOTH",
"631.667 1239.33 OFFCURVE",
"636.333 1252.33 OFFCURVE",
"641 1267 CURVE SMOOTH",
"645.667 1281.67 OFFCURVE",
"650.333 1297 OFFCURVE",
"655 1313 CURVE",
"664.333 1280.33 OFFCURVE",
"674 1252.33 OFFCURVE",
"684 1229 CURVE SMOOTH",
"972 514 LINE"
);
},
{
closed = 1;
nodes = (
"932 1542 LINE",
"697 1809 LINE",
"615 1809 LINE",
"380 1542 LINE",
"448 1542 LINE SMOOTH",
"453.333 1542 OFFCURVE",
"459.5 1543 OFFCURVE",
"466.5 1545 CURVE SMOOTH",
"473.5 1547 OFFCURVE",
"480.667 1551.67 OFFCURVE",
"488 1559 CURVE",
"647 1745 LINE",
"648.333 1746.33 OFFCURVE",
"649.5 1748 OFFCURVE",
"650.5 1750 CURVE SMOOTH",
"651.5 1752 OFFCURVE",
"652.667 1753.67 OFFCURVE",
"654 1755 CURVE",
"662 1745 LINE",
"822 1559 LINE",
"829.333 1551.67 OFFCURVE",
"836.333 1547 OFFCURVE",
"843 1545 CURVE SMOOTH",
"849.667 1543 OFFCURVE",
"855.667 1542 OFFCURVE",
"861 1542 CURVE SMOOTH"
);
}
);
width = 1311;
}
);
leftKerningGroup = A;
rightKerningGroup = A;
unicode = 00C2;
},
{
glyphname = Adieresis;
layers = (
{
layerId = "6B32BEBF-3546-47C2-BC97-37B70AAB72D2";
name = Light;
paths = (
{
closed = 1;
nodes = (
"26 0 LINE"
);
},
{
closed = 1;
nodes = (
"1285 0 LINE",
"706 1415 LINE",
"605 1415 LINE",
"26 0 LINE",
"104 0 LINE SMOOTH",
"113.333 0 OFFCURVE",
"121.333 2.66667 OFFCURVE",
"128 8 CURVE SMOOTH",
"134.667 13.3333 OFFCURVE",
"139.333 19.6667 OFFCURVE",
"142 27 CURVE",
"308 438 LINE",
"1003 438 LINE",
"1169 27 LINE SMOOTH",
"1172.33 19 OFFCURVE",
"1177 12.5 OFFCURVE",
"1183 7.5 CURVE SMOOTH",
"1189 2.5 OFFCURVE",
"1196.67 0 OFFCURVE",
"1206 0 CURVE SMOOTH"
);
},
{
closed = 1;
nodes = (
"338 514 LINE",
"627 1228 LINE SMOOTH",
"631.667 1239.33 OFFCURVE",
"636.333 1252.33 OFFCURVE",
"641 1267 CURVE SMOOTH",
"645.667 1281.67 OFFCURVE",
"650.333 1297 OFFCURVE",
"655 1313 CURVE",
"664.333 1280.33 OFFCURVE",
"674 1252.33 OFFCURVE",
"684 1229 CURVE SMOOTH",
"972 514 LINE"
);
},
{
closed = 1;
nodes = (
"540 1675.67 OFFCURVE",
"537.667 1686 OFFCURVE",
"533 1696 CURVE SMOOTH",
"528.333 1706 OFFCURVE",
"522.333 1714.83 OFFCURVE",
"515 1722.5 CURVE SMOOTH",
"507.667 1730.17 OFFCURVE",
"499 1736.17 OFFCURVE",
"489 1740.5 CURVE SMOOTH",
"479 1744.83 OFFCURVE",
"468.667 1747 OFFCURVE",
"458 1747 CURVE SMOOTH",
"447.333 1747 OFFCURVE",
"437.167 1744.83 OFFCURVE",
"427.5 1740.5 CURVE SMOOTH",
"417.833 1736.17 OFFCURVE",
"409.333 1730.17 OFFCURVE",
"402 1722.5 CURVE SMOOTH",
"394.667 1714.83 OFFCURVE",
"388.833 1706 OFFCURVE",
"384.5 1696 CURVE SMOOTH",
"380.167 1686 OFFCURVE",
"378 1675.67 OFFCURVE",
"378 1665 CURVE SMOOTH",
"378 1654.33 OFFCURVE",
"380.167 1644.17 OFFCURVE",
"384.5 1634.5 CURVE SMOOTH",
"388.833 1624.83 OFFCURVE",
"394.667 1616.5 OFFCURVE",
"402 1609.5 CURVE SMOOTH",
"409.333 1602.5 OFFCURVE",
"417.833 1596.83 OFFCURVE",
"427.5 1592.5 CURVE SMOOTH",
"437.167 1588.17 OFFCURVE",
"447.333 1586 OFFCURVE",
"458 1586 CURVE SMOOTH",
"468.667 1586 OFFCURVE",
"479 1588.17 OFFCURVE",
"489 1592.5 CURVE SMOOTH",
"499 1596.83 OFFCURVE",
"507.667 1602.5 OFFCURVE",
"515 1609.5 CURVE SMOOTH",
"522.333 1616.5 OFFCURVE",
"528.333 1624.83 OFFCURVE",
"533 1634.5 CURVE SMOOTH",
"537.667 1644.17 OFFCURVE",
"540 1654.33 OFFCURVE",
"540 1665 CURVE SMOOTH"
);
},
{
closed = 1;
nodes = (
"931 1675.67 OFFCURVE",
"928.833 1686 OFFCURVE",
"924.5 1696 CURVE SMOOTH",
"920.167 1706 OFFCURVE",
"914.167 1714.83 OFFCURVE",
"906.5 1722.5 CURVE SMOOTH",
"898.833 1730.17 OFFCURVE",
"890.167 1736.17 OFFCURVE",
"880.5 1740.5 CURVE SMOOTH",
"870.833 1744.83 OFFCURVE",
"860.667 1747 OFFCURVE",
"850 1747 CURVE SMOOTH",
"828 1747 OFFCURVE",
"809 1738.83 OFFCURVE",
"793 1722.5 CURVE SMOOTH",
"777 1706.17 OFFCURVE",
"769 1687 OFFCURVE",
"769 1665 CURVE SMOOTH",
"769 1654.33 OFFCURVE",
"771.167 1644.17 OFFCURVE",
"775.5 1634.5 CURVE SMOOTH",
"779.833 1624.83 OFFCURVE",
"785.667 1616.5 OFFCURVE",
"793 1609.5 CURVE SMOOTH",
"800.333 1602.5 OFFCURVE",
"808.833 1596.83 OFFCURVE",
"818.5 1592.5 CURVE SMOOTH",
"828.167 1588.17 OFFCURVE",
"838.667 1586 OFFCURVE",
"850 1586 CURVE SMOOTH",
"860.667 1586 OFFCURVE",
"870.833 1588.17 OFFCURVE",
"880.5 1592.5 CURVE SMOOTH",
"890.167 1596.83 OFFCURVE",
"898.833 1602.5 OFFCURVE",
"906.5 1609.5 CURVE SMOOTH",
"914.167 1616.5 OFFCURVE",
"920.167 1624.83 OFFCURVE",
"924.5 1634.5 CURVE SMOOTH",
"928.833 1644.17 OFFCURVE",
"931 1654.33 OFFCURVE",
"931 1665 CURVE SMOOTH"
);
}
);
width = 1311;
}
);
leftKerningGroup = A;
rightKerningGroup = A;
unicode = 00C4;
},
{
glyphname = Agrave;
layers = (
{
layerId = "6B32BEBF-3546-47C2-BC97-37B70AAB72D2";
name = Light;
paths = (
{
closed = 1;
nodes = (
"26 0 LINE"
);
},
{
closed = 1;
nodes = (
"1285 0 LINE",
"706 1415 LINE",
"605 1415 LINE",
"26 0 LINE",
"104 0 LINE SMOOTH",
"113.333 0 OFFCURVE",
"121.333 2.66667 OFFCURVE",
"128 8 CURVE SMOOTH",
"134.667 13.3333 OFFCURVE",
"139.333 19.6667 OFFCURVE",
"142 27 CURVE",
"308 438 LINE",
"1003 438 LINE",
"1169 27 LINE SMOOTH",
"1172.33 19 OFFCURVE",
"1177 12.5 OFFCURVE",
"1183 7.5 CURVE SMOOTH",
"1189 2.5 OFFCURVE",
"1196.67 0 OFFCURVE",
"1206 0 CURVE SMOOTH"
);
},
{
closed = 1;
nodes = (
"338 514 LINE",
"627 1228 LINE SMOOTH",
"631.667 1239.33 OFFCURVE",
"636.333 1252.33 OFFCURVE",
"641 1267 CURVE SMOOTH",
"645.667 1281.67 OFFCURVE",
"650.333 1297 OFFCURVE",
"655 1313 CURVE",
"664.333 1280.33 OFFCURVE",
"674 1252.33 OFFCURVE",
"684 1229 CURVE SMOOTH",
"972 514 LINE"
);
},
{
closed = 1;
nodes = (
"354 1841 LINE",
"658 1554 LINE SMOOTH",
"664 1548.67 OFFCURVE",
"669.833 1545.33 OFFCURVE",
"675.5 1544 CURVE SMOOTH",
"681.167 1542.67 OFFCURVE",
"688.333 1542 OFFCURVE",
"697 1542 CURVE SMOOTH",
"762 1542 LINE",
"523 1819 LINE",
"515 1829 OFFCURVE",
"506.833 1835.17 OFFCURVE",
"498.5 1837.5 CURVE SMOOTH",
"490.167 1839.83 OFFCURVE",
"478 1841 OFFCURVE",
"462 1841 CURVE SMOOTH"
);
}
);
width = 1311;
}
);
leftKerningGroup = A;
rightKerningGroup = A;
unicode = 00C0;
},
{
glyphname = Aring;
layers = (
{
layerId = "6B32BEBF-3546-47C2-BC97-37B70AAB72D2";
name = Light;
paths = (
{
closed = 1;
nodes = (
"26 0 LINE"
);
},
{
closed = 1;
nodes = (
"1285 0 LINE",
"706 1415 LINE",
"605 1415 LINE",
"26 0 LINE",
"104 0 LINE SMOOTH",
"113.333 0 OFFCURVE",
"121.333 2.66667 OFFCURVE",
"128 8 CURVE SMOOTH",
"134.667 13.3333 OFFCURVE",
"139.333 19.6667 OFFCURVE",
"142 27 CURVE",
"308 438 LINE",
"1003 438 LINE",
"1169 27 LINE SMOOTH",
"1172.33 19 OFFCURVE",
"1177 12.5 OFFCURVE",
"1183 7.5 CURVE SMOOTH",
"1189 2.5 OFFCURVE",
"1196.67 0 OFFCURVE",
"1206 0 CURVE SMOOTH"
);
},
{
closed = 1;
nodes = (
"338 514 LINE",
"627 1228 LINE SMOOTH",
"631.667 1239.33 OFFCURVE",
"636.333 1252.33 OFFCURVE",
"641 1267 CURVE SMOOTH",
"645.667 1281.67 OFFCURVE",
"650.333 1297 OFFCURVE",
"655 1313 CURVE",
"664.333 1280.33 OFFCURVE",
"674 1252.33 OFFCURVE",
"684 1229 CURVE SMOOTH",
"972 514 LINE"
);
},
{
closed = 1;
nodes = (
"489 1661.67 OFFCURVE",
"493.5 1640.33 OFFCURVE",
"502.5 1621 CURVE SMOOTH",
"511.5 1601.67 OFFCURVE",
"523.5 1585 OFFCURVE",
"538.5 1571 CURVE SMOOTH",
"553.5 1557 OFFCURVE",
"571 1546 OFFCURVE",
"591 1538 CURVE SMOOTH",
"611 1530 OFFCURVE",
"632.333 1526 OFFCURVE",
"655 1526 CURVE SMOOTH",
"677.667 1526 OFFCURVE",
"699.333 1530 OFFCURVE",
"720 1538 CURVE SMOOTH",
"740.667 1546 OFFCURVE",
"758.5 1557 OFFCURVE",
"773.5 1571 CURVE SMOOTH",
"788.5 1585 OFFCURVE",
"800.5 1601.67 OFFCURVE",
"809.5 1621 CURVE SMOOTH",
"818.5 1640.33 OFFCURVE",
"823 1661.67 OFFCURVE",
"823 1685 CURVE SMOOTH",
"823 1707.67 OFFCURVE",
"818.5 1728.83 OFFCURVE",
"809.5 1748.5 CURVE SMOOTH",
"800.5 1768.17 OFFCURVE",
"788.5 1785 OFFCURVE",
"773.5 1799 CURVE SMOOTH",
"758.5 1813 OFFCURVE",
"740.667 1824 OFFCURVE",
"720 1832 CURVE SMOOTH",
"699.333 1840 OFFCURVE",
"677.667 1844 OFFCURVE",
"655 1844 CURVE SMOOTH",
"632.333 1844 OFFCURVE",
"611 1840 OFFCURVE",
"591 1832 CURVE SMOOTH",
"571 1824 OFFCURVE",
"553.5 1813 OFFCURVE",
"538.5 1799 CURVE SMOOTH",
"523.5 1785 OFFCURVE",
"511.5 1768.17 OFFCURVE",
"502.5 1748.5 CURVE SMOOTH",
"493.5 1728.83 OFFCURVE",
"489 1707.67 OFFCURVE",
"489 1685 CURVE SMOOTH"
);
},
{
closed = 1;
nodes = (
"542 1718.33 OFFCURVE",
"552.5 1745.67 OFFCURVE",
"573.5 1767 CURVE SMOOTH",
"594.5 1788.33 OFFCURVE",
"622 1799 OFFCURVE",
"656 1799 CURVE SMOOTH",
"689.333 1799 OFFCURVE",
"716.667 1788.33 OFFCURVE",
"738 1767 CURVE SMOOTH",
"759.333 1745.67 OFFCURVE",
"770 1718.33 OFFCURVE",
"770 1685 CURVE SMOOTH",
"770 1651.67 OFFCURVE",
"759.333 1624.33 OFFCURVE",
"738 1603 CURVE SMOOTH",
"716.667 1581.67 OFFCURVE",
"689.333 1571 OFFCURVE",
"656 1571 CURVE SMOOTH",
"622 1571 OFFCURVE",
"594.5 1581.67 OFFCURVE",
"573.5 1603 CURVE SMOOTH",
"552.5 1624.33 OFFCURVE",
"542 1651.67 OFFCURVE",
"542 1685 CURVE SMOOTH"
);
}
);
width = 1311;
}
);
leftKerningGroup = A;
rightKerningGroup = A;
unicode = 00C5;
},
{
glyphname = Atilde;
layers = (
{
layerId = "6B32BEBF-3546-47C2-BC97-37B70AAB72D2";
name = Light;
paths = (
{
closed = 1;
nodes = (
"26 0 LINE"
);
},
{
closed = 1;
nodes = (
"1285 0 LINE",
"706 1415 LINE",
"605 1415 LINE",
"26 0 LINE",
"104 0 LINE SMOOTH",
"113.333 0 OFFCURVE",
"121.333 2.66667 OFFCURVE",
"128 8 CURVE SMOOTH",
"134.667 13.3333 OFFCURVE",
"139.333 19.6667 OFFCURVE",
"142 27 CURVE",
"308 438 LINE",
"1003 438 LINE",
"1169 27 LINE SMOOTH",
"1172.33 19 OFFCURVE",
"1177 12.5 OFFCURVE",
"1183 7.5 CURVE SMOOTH",
"1189 2.5 OFFCURVE",
"1196.67 0 OFFCURVE",
"1206 0 CURVE SMOOTH"
);
},
{
closed = 1;
nodes = (
"338 514 LINE",
"627 1228 LINE SMOOTH",
"631.667 1239.33 OFFCURVE",
"636.333 1252.33 OFFCURVE",
"641 1267 CURVE SMOOTH",
"645.667 1281.67 OFFCURVE",
"650.333 1297 OFFCURVE",
"655 1313 CURVE",
"664.333 1280.33 OFFCURVE",
"674 1252.33 OFFCURVE",
"684 1229 CURVE SMOOTH",
"972 514 LINE"
);
},
{
closed = 1;
nodes = (
"762.667 1616 OFFCURVE",
"743.667 1621.83 OFFCURVE",
"725 1633.5 CURVE SMOOTH",
"706.333 1645.17 OFFCURVE",
"686.833 1657.83 OFFCURVE",
"666.5 1671.5 CURVE SMOOTH",
"646.167 1685.17 OFFCURVE",
"625 1697.83 OFFCURVE",
"603 1709.5 CURVE SMOOTH",
"581 1721.17 OFFCURVE",
"557 1727 OFFCURVE",
"531 1727 CURVE SMOOTH",
"507 1727 OFFCURVE",
"485.5 1722.17 OFFCURVE",
"466.5 1712.5 CURVE SMOOTH",
"447.5 1702.83 OFFCURVE",
"431.333 1690 OFFCURVE",
"418 1674 CURVE SMOOTH",
"404.667 1658 OFFCURVE",
"394.5 1639.5 OFFCURVE",
"387.5 1618.5 CURVE SMOOTH",
"380.5 1597.5 OFFCURVE",
"377 1575.67 OFFCURVE",
"377 1553 CURVE",
"438 1553 LINE",
"438.667 1567 OFFCURVE",
"441.333 1580.5 OFFCURVE",
"446 1593.5 CURVE SMOOTH",
"450.667 1606.5 OFFCURVE",
"457.5 1618 OFFCURVE",
"466.5 1628 CURVE SMOOTH",
"475.5 1638 OFFCURVE",
"486.167 1646 OFFCURVE",
"498.5 1652 CURVE SMOOTH",
"510.833 1658 OFFCURVE",
"524.667 1661 OFFCURVE",
"540 1661 CURVE SMOOTH",
"558.667 1661 OFFCURVE",
"577.667 1655.17 OFFCURVE",
"597 1643.5 CURVE SMOOTH",
"616.333 1631.83 OFFCURVE",
"636.167 1619.17 OFFCURVE",
"656.5 1605.5 CURVE SMOOTH",
"676.833 1591.83 OFFCURVE",
"698 1579.17 OFFCURVE",
"720 1567.5 CURVE SMOOTH",
"742 1555.83 OFFCURVE",
"765.667 1550 OFFCURVE",
"791 1550 CURVE SMOOTH",
"815.667 1550 OFFCURVE",
"837.333 1554.67 OFFCURVE",
"856 1564 CURVE SMOOTH",
"874.667 1573.33 OFFCURVE",
"890.5 1586 OFFCURVE",
"903.5 1602 CURVE SMOOTH",
"916.5 1618 OFFCURVE",
"926.333 1636.5 OFFCURVE",
"933 1657.5 CURVE SMOOTH",
"939.667 1678.5 OFFCURVE",
"943 1700.67 OFFCURVE",
"943 1724 CURVE",
"884 1724 LINE",
"884 1710 OFFCURVE",
"881.667 1696.5 OFFCURVE",
"877 1683.5 CURVE SMOOTH",
"872.333 1670.5 OFFCURVE",
"865.667 1659 OFFCURVE",
"857 1649 CURVE SMOOTH",
"848.333 1639 OFFCURVE",
"837.667 1631 OFFCURVE",
"825 1625 CURVE SMOOTH",
"812.333 1619 OFFCURVE",
"798 1616 OFFCURVE",
"782 1616 CURVE SMOOTH"
);
}
);
width = 1311;
}
);
leftKerningGroup = A;
rightKerningGroup = A;
unicode = 00C3;
},
{
glyphname = AE;
layers = (
{
layerId = "6B32BEBF-3546-47C2-BC97-37B70AAB72D2";
name = Light;
paths = (
{
closed = 1;
nodes = (
"792 1415 LINE",
"10 0 LINE",
"89 0 LINE SMOOTH",
"108.333 0 OFFCURVE",
"122.333 8.33333 OFFCURVE",
"131 25 CURVE SMOOTH",
"358 438 LINE",
"954 438 LINE",
"1010 0 LINE",
"1752 0 LINE",
"1753 85 LINE",
"1095 85 LINE",
"1020 675 LINE",
"1627 675 LINE",
"1627 758 LINE",
"1009 758 LINE",
"937 1330 LINE",
"1752 1330 LINE",
"1752 1415 LINE"
);
},
{
closed = 1;
nodes = (
"400 514 LINE",
"800 1242 LINE",
"807.333 1257.33 OFFCURVE",
"814.333 1272.67 OFFCURVE",
"821 1288 CURVE SMOOTH",
"827.667 1303.33 OFFCURVE",
"833.667 1319.67 OFFCURVE",
"839 1337 CURVE",
"944 514 LINE"
);
}
);
width = 1855;
}
);
leftKerningGroup = AE;
rightKerningGroup = E;
unicode = 00C6;
},
{
glyphname = B;
layers = (
{
layerId = "6B32BEBF-3546-47C2-BC97-37B70AAB72D2";
name = Light;
paths = (
{
closed = 1;
nodes = (
"209 0 LINE",
"668 0 LINE SMOOTH",
"743.333 0 OFFCURVE",
"810.667 8.83333 OFFCURVE",
"870 26.5 CURVE SMOOTH",
"929.333 44.1667 OFFCURVE",
"979.333 69.6667 OFFCURVE",
"1020 103 CURVE SMOOTH",
"1060.67 136.333 OFFCURVE",
"1091.67 177 OFFCURVE",
"1113 225 CURVE SMOOTH",
"1134.33 273 OFFCURVE",
"1145 327 OFFCURVE",
"1145 387 CURVE SMOOTH",
"1145 480.333 OFFCURVE",
"1115.17 555.833 OFFCURVE",
"1055.5 613.5 CURVE SMOOTH",
"995.833 671.167 OFFCURVE",
"910.333 708.333 OFFCURVE",
"799 725 CURVE",
"844.333 736.333 OFFCURVE",
"884.833 752.833 OFFCURVE",
"920.5 774.5 CURVE SMOOTH",
"956.167 796.167 OFFCURVE",
"986.333 821.667 OFFCURVE",
"1011 851 CURVE SMOOTH",
"1035.67 880.333 OFFCURVE",
"1054.5 912.333 OFFCURVE",
"1067.5 947 CURVE SMOOTH",
"1080.5 981.667 OFFCURVE",
"1087 1017.67 OFFCURVE",
"1087 1055 CURVE SMOOTH",
"1087 1111.67 OFFCURVE",
"1077.67 1162.33 OFFCURVE",
"1059 1207 CURVE SMOOTH",
"1040.33 1251.67 OFFCURVE",
"1011.67 1289.5 OFFCURVE",
"973 1320.5 CURVE SMOOTH",
"934.333 1351.5 OFFCURVE",
"885.333 1375 OFFCURVE",
"826 1391 CURVE SMOOTH",
"766.667 1407 OFFCURVE",
"696.667 1415 OFFCURVE",
"616 1415 CURVE SMOOTH",
"209 1415 LINE"
);
},
{
closed = 1;
nodes = (
"312 678 LINE",
"668 678 LINE SMOOTH",
"727.333 678 OFFCURVE",
"780.333 671.333 OFFCURVE",
"827 658 CURVE SMOOTH",
"873.667 644.667 OFFCURVE",
"913 625.5 OFFCURVE",
"945 600.5 CURVE SMOOTH",
"977 575.5 OFFCURVE",
"1001.5 545.167 OFFCURVE",
"1018.5 509.5 CURVE SMOOTH",
"1035.5 473.833 OFFCURVE",
"1044 433.667 OFFCURVE",
"1044 389 CURVE SMOOTH",
"1044 291.667 OFFCURVE",
"1012.17 216.167 OFFCURVE",
"948.5 162.5 CURVE SMOOTH",
"884.834 108.833 OFFCURVE",
"791 82 OFFCURVE",
"667 82 CURVE SMOOTH",
"312 82 LINE"
);
},
{
closed = 1;
nodes = (
"312 753 LINE",
"312 1334 LINE",
"616 1334 LINE SMOOTH",
"742 1334 OFFCURVE",
"835.167 1309.5 OFFCURVE",
"895.5 1260.5 CURVE SMOOTH",
"955.834 1211.5 OFFCURVE",
"986 1139.33 OFFCURVE",
"986 1044 CURVE SMOOTH",
"986 1007.33 OFFCURVE",
"979 971.667 OFFCURVE",
"965 937 CURVE SMOOTH",
"951 902.333 OFFCURVE",
"929.167 871.333 OFFCURVE",
"899.5 844 CURVE SMOOTH",
"869.834 816.667 OFFCURVE",
"831.834 794.667 OFFCURVE",
"785.5 778 CURVE SMOOTH",
"739.167 761.333 OFFCURVE",
"683.334 753 OFFCURVE",
"618 753 CURVE SMOOTH"
);
}
);
width = 1264;
}
);
leftKerningGroup = B;
rightKerningGroup = B;
unicode = 0042;
},
{
glyphname = C;
layers = (
{
layerId = "6B32BEBF-3546-47C2-BC97-37B70AAB72D2";
name = Light;
paths = (
{
closed = 1;
nodes = (
"1226.67 238 OFFCURVE",
"1223.33 237.167 OFFCURVE",
"1220 235.5 CURVE SMOOTH",
"1216.67 233.833 OFFCURVE",
"1213.33 231.667 OFFCURVE",
"1210 229 CURVE",
"1182 203 OFFCURVE",
"1153.67 180.333 OFFCURVE",
"1125 161 CURVE SMOOTH",
"1096.33 141.667 OFFCURVE",
"1065.33 125.333 OFFCURVE",
"1032 112 CURVE SMOOTH",
"998.666 98.6667 OFFCURVE",
"962.166 88.6667 OFFCURVE",
"922.5 82 CURVE SMOOTH",
"882.833 75.3333 OFFCURVE",
"837.666 72 OFFCURVE",
"787 72 CURVE SMOOTH",
"707 72 OFFCURVE",
"632.5 86.5 OFFCURVE",
"563.5 115.5 CURVE SMOOTH",
"494.5 144.5 OFFCURVE",
"434.666 186.167 OFFCURVE",
"384 240.5 CURVE SMOOTH",
"333.333 294.833 OFFCURVE",
"293.5 361.333 OFFCURVE",
"264.5 440 CURVE SMOOTH",
"235.5 518.667 OFFCURVE",
"221 608 OFFCURVE",
"221 708 CURVE SMOOTH",
"221 806 OFFCURVE",
"235.333 894.333 OFFCURVE",
"264 973 CURVE SMOOTH",
"292.666 1051.67 OFFCURVE",
"332.5 1118.33 OFFCURVE",
"383.5 1173 CURVE SMOOTH",
"434.5 1227.67 OFFCURVE",
"495.5 1269.67 OFFCURVE",
"566.5 1299 CURVE SMOOTH",
"637.5 1328.33 OFFCURVE",
"715.666 1343 OFFCURVE",
"801 1343 CURVE SMOOTH",
"867.666 1343 OFFCURVE",
"924.833 1335.67 OFFCURVE",
"972.5 1321 CURVE SMOOTH",
"1020.17 1306.33 OFFCURVE",
"1060 1290.17 OFFCURVE",
"1092 1272.5 CURVE SMOOTH",
"1124 1254.83 OFFCURVE",
"1149 1238.67 OFFCURVE",
"1167 1224 CURVE SMOOTH",
"1185 1209.33 OFFCURVE",
"1198 1202 OFFCURVE",
"1206 1202 CURVE SMOOTH",
"1217.33 1202 OFFCURVE",
"1225.67 1206 OFFCURVE",
"1231 1214 CURVE SMOOTH",
"1262 1259 LINE",
"1200.67 1313.67 OFFCURVE",
"1132.67 1356 OFFCURVE",
"1058 1386 CURVE SMOOTH",
"983.333 1416 OFFCURVE",
"897.667 1431 OFFCURVE",
"801 1431 CURVE SMOOTH",
"699.667 1431 OFFCURVE",
"607 1413.5 OFFCURVE",
"523 1378.5 CURVE SMOOTH",
"439 1343.5 OFFCURVE",
"367 1294.17 OFFCURVE",
"307 1230.5 CURVE SMOOTH",
"247 1166.83 OFFCURVE",
"200.333 1090.67 OFFCURVE",
"167 1002 CURVE SMOOTH",
"133.666 913.333 OFFCURVE",
"117 815.333 OFFCURVE",
"117 708 CURVE SMOOTH",
"117 598.667 OFFCURVE",
"133.166 499.334 OFFCURVE",
"165.5 410 CURVE SMOOTH",
"197.833 320.667 OFFCURVE",
"243.333 244.5 OFFCURVE",
"302 181.5 CURVE SMOOTH",
"360.667 118.5 OFFCURVE",
"430.833 69.8335 OFFCURVE",
"512.5 35.5002 CURVE SMOOTH",
"594.167 1.16687 OFFCURVE",
"684 -16 OFFCURVE",
"782 -16 CURVE SMOOTH",
"840.667 -16 OFFCURVE",
"894.5 -11 OFFCURVE",
"943.5 -1 CURVE SMOOTH",
"992.5 8.16687 OFFCURVE",
"1037.5 21.8335 OFFCURVE",
"1078.5 39.5002 CURVE SMOOTH",
"1119.5 57.1669 OFFCURVE",
"1157.17 78.5002 OFFCURVE",
"1191.5 103.5 CURVE SMOOTH",
"1225.83 128.5 OFFCURVE",
"1257.67 156.667 OFFCURVE",
"1287 188 CURVE",
"1247 231 LINE",
"1242.33 235.667 OFFCURVE",
"1236.67 238 OFFCURVE",
"1230 238 CURVE SMOOTH"
);
}
);
width = 1352;
}
);
leftKerningGroup = C;
rightKerningGroup = C;
unicode = 0043;
},
{
glyphname = Ccedilla;
layers = (
{
layerId = "6B32BEBF-3546-47C2-BC97-37B70AAB72D2";
name = Light;
paths = (
{
closed = 1;
nodes = (
"661.333 -276 OFFCURVE",
"656 -280 OFFCURVE",
"652 -287 CURVE",
"642 -315 LINE",
"659.333 -328 OFFCURVE",
"681 -338 OFFCURVE",
"707 -346 CURVE SMOOTH",
"733 -353 OFFCURVE",
"759.667 -357 OFFCURVE",
"787 -357 CURVE SMOOTH",
"813.667 -357 OFFCURVE",
"838.333 -354 OFFCURVE",
"861 -349 CURVE SMOOTH",
"883.667 -343 OFFCURVE",
"903.167 -335 OFFCURVE",
"919.5 -324 CURVE SMOOTH",
"935.833 -313 OFFCURVE",
"948.5 -299 OFFCURVE",
"957.5 -283 CURVE SMOOTH",
"966.5 -267 OFFCURVE",
"971 -249 OFFCURVE",
"971 -229 CURVE SMOOTH",
"971 -190 OFFCURVE",
"955.5 -160 OFFCURVE",
"924.5 -140 CURVE SMOOTH",
"893.5 -119 OFFCURVE",
"847.667 -104 OFFCURVE",
"787 -93 CURVE",
"810 -15 LINE",
"864.667 -14 OFFCURVE",
"915 -8 OFFCURVE",
"961 2.5 CURVE SMOOTH",
"1007 12.8333 OFFCURVE",
"1049.5 26.6667 OFFCURVE",
"1088.5 44 CURVE SMOOTH",
"1127.5 61.3333 OFFCURVE",
"1163.33 82.1667 OFFCURVE",
"1196 106.5 CURVE SMOOTH",
"1228.67 130.833 OFFCURVE",
"1259 158 OFFCURVE",
"1287 188 CURVE",
"1247 231 LINE",
"1242.33 235.667 OFFCURVE",
"1236.67 238 OFFCURVE",
"1230 238 CURVE SMOOTH",
"1226.67 238 OFFCURVE",
"1223.33 237.167 OFFCURVE",
"1220 235.5 CURVE SMOOTH",
"1216.67 233.833 OFFCURVE",
"1213.33 231.667 OFFCURVE",
"1210 229 CURVE",
"1182 203 OFFCURVE",
"1153.67 180.333 OFFCURVE",
"1125 161 CURVE SMOOTH",
"1096.33 141.667 OFFCURVE",
"1065.33 125.333 OFFCURVE",
"1032 112 CURVE SMOOTH",
"998.667 98.6667 OFFCURVE",
"962.167 88.6667 OFFCURVE",
"922.5 82 CURVE SMOOTH",
"882.833 75.3333 OFFCURVE",
"837.667 72 OFFCURVE",
"787 72 CURVE SMOOTH",
"707 72 OFFCURVE",
"632.5 86.5 OFFCURVE",
"563.5 115.5 CURVE SMOOTH",
"494.5 144.5 OFFCURVE",
"434.667 186.167 OFFCURVE",
"384 240.5 CURVE SMOOTH",
"333.333 294.833 OFFCURVE",
"293.5 361.333 OFFCURVE",
"264.5 440 CURVE SMOOTH",
"235.5 518.667 OFFCURVE",
"221 608 OFFCURVE",
"221 708 CURVE SMOOTH",
"221 806 OFFCURVE",
"235.333 894.333 OFFCURVE",
"264 973 CURVE SMOOTH",
"292.667 1051.67 OFFCURVE",
"332.5 1118.33 OFFCURVE",
"383.5 1173 CURVE SMOOTH",
"434.5 1227.67 OFFCURVE",
"495.5 1269.67 OFFCURVE",
"566.5 1299 CURVE SMOOTH",
"637.5 1328.33 OFFCURVE",
"715.667 1343 OFFCURVE",
"801 1343 CURVE SMOOTH",
"867.667 1343 OFFCURVE",
"924.833 1335.67 OFFCURVE",
"972.5 1321 CURVE SMOOTH",
"1020.17 1306.33 OFFCURVE",
"1060 1290.17 OFFCURVE",
"1092 1272.5 CURVE SMOOTH",
"1124 1254.83 OFFCURVE",
"1149 1238.67 OFFCURVE",
"1167 1224 CURVE SMOOTH",
"1185 1209.33 OFFCURVE",
"1198 1202 OFFCURVE",
"1206 1202 CURVE SMOOTH",
"1217.33 1202 OFFCURVE",
"1225.67 1206 OFFCURVE",
"1231 1214 CURVE SMOOTH",
"1262 1259 LINE",
"1200.67 1313.67 OFFCURVE",
"1132.67 1356 OFFCURVE",
"1058 1386 CURVE SMOOTH",
"983.333 1416 OFFCURVE",
"897.667 1431 OFFCURVE",
"801 1431 CURVE SMOOTH",
"699.667 1431 OFFCURVE",
"607 1413.5 OFFCURVE",
"523 1378.5 CURVE SMOOTH",
"439 1343.5 OFFCURVE",
"367 1294.17 OFFCURVE",
"307 1230.5 CURVE SMOOTH",
"247 1166.83 OFFCURVE",
"200.333 1090.67 OFFCURVE",
"167 1002 CURVE SMOOTH",
"133.667 913.333 OFFCURVE",
"117 815.333 OFFCURVE",
"117 708 CURVE SMOOTH",
"117 600.667 OFFCURVE",
"132.5 503.334 OFFCURVE",
"163.5 416 CURVE SMOOTH",
"194.5 328.667 OFFCURVE",
"238 253.667 OFFCURVE",
"294 191 CURVE SMOOTH",
"350 128.334 OFFCURVE",
"417 79.1669 OFFCURVE",
"495 43.5002 CURVE SMOOTH",
"573 7.83353 OFFCURVE",
"659.333 -12 OFFCURVE",
"754 -15 CURVE",
"717 -131 LINE",
"743 -134 OFFCURVE",
"766.833 -138 OFFCURVE",
"788.5 -143 CURVE SMOOTH",
"810.167 -147 OFFCURVE",
"828.833 -153 OFFCURVE",
"844.5 -160 CURVE SMOOTH",
"860.167 -167 OFFCURVE",
"872.333 -176 OFFCURVE",
"881 -187 CURVE SMOOTH",
"889.667 -198 OFFCURVE",
"894 -212 OFFCURVE",
"894 -229 CURVE SMOOTH",
"894 -254 OFFCURVE",
"884.667 -273 OFFCURVE",
"866 -288 CURVE SMOOTH",
"847.333 -303 OFFCURVE",
"820.667 -310 OFFCURVE",
"786 -310 CURVE SMOOTH",
"766.667 -310 OFFCURVE",
"750.333 -308 OFFCURVE",
"737 -305 CURVE SMOOTH",
"723.667 -301 OFFCURVE",
"712.5 -297 OFFCURVE",
"703.5 -293 CURVE SMOOTH",
"694.5 -289 OFFCURVE",
"687.167 -285 OFFCURVE",
"681.5 -282 CURVE SMOOTH",
"675.833 -278 OFFCURVE",
"671.333 -276 OFFCURVE",
"668 -276 CURVE SMOOTH"
);
}
);
width = 1352;
}
);
leftKerningGroup = C;
rightKerningGroup = C;
unicode = 00C7;
},
{
glyphname = D;
layers = (
{
layerId = "6B32BEBF-3546-47C2-BC97-37B70AAB72D2";
name = Light;
paths = (
{
closed = 1;
nodes = (
"1401 816.667 OFFCURVE",
"1384.67 914.667 OFFCURVE",
"1352 1002 CURVE SMOOTH",
"1319.33 1089.33 OFFCURVE",
"1273.33 1163.67 OFFCURVE",
"1214 1225 CURVE SMOOTH",
"1154.67 1286.33 OFFCURVE",
"1083.5 1333.33 OFFCURVE",
"1000.5 1366 CURVE SMOOTH",
"917.5 1398.67 OFFCURVE",
"826 1415 OFFCURVE",
"726 1415 CURVE SMOOTH",
"209 1415 LINE",
"209 0 LINE",
"726 0 LINE SMOOTH",
"826 0 OFFCURVE",
"917.5 16.3335 OFFCURVE",
"1000.5 49 CURVE SMOOTH",
"1083.5 81.6668 OFFCURVE",
"1154.67 128.667 OFFCURVE",
"1214 190 CURVE SMOOTH",
"1273.33 251.333 OFFCURVE",
"1319.33 325.667 OFFCURVE",
"1352 413 CURVE SMOOTH",
"1384.67 500.333 OFFCURVE",
"1401 598.667 OFFCURVE",
"1401 708 CURVE SMOOTH"
);
},
{
closed = 1;
nodes = (
"1295 608.667 OFFCURVE",
"1281.33 520.333 OFFCURVE",
"1254 443 CURVE SMOOTH",
"1226.67 365.667 OFFCURVE",
"1188 300.333 OFFCURVE",
"1138 247 CURVE SMOOTH",
"1088 193.667 OFFCURVE",
"1028 153 OFFCURVE",
"958 125 CURVE SMOOTH",
"888 97 OFFCURVE",
"810.667 83 OFFCURVE",
"726 83 CURVE SMOOTH",
"312 83 LINE",
"312 1332 LINE",
"726 1332 LINE SMOOTH",
"810.667 1332 OFFCURVE",
"888 1318 OFFCURVE",
"958 1290 CURVE SMOOTH",
"1028 1262 OFFCURVE",
"1088 1221.33 OFFCURVE",
"1138 1168 CURVE SMOOTH",
"1188 1114.67 OFFCURVE",
"1226.67 1049.33 OFFCURVE",
"1254 972 CURVE SMOOTH",
"1281.33 894.667 OFFCURVE",
"1295 806.667 OFFCURVE",
"1295 708 CURVE SMOOTH"
);
}
);
width = 1520;
}
);
leftKerningGroup = B;
rightKerningGroup = D;
unicode = 0044;
},
{
glyphname = Eth;
layers = (
{
layerId = "6B32BEBF-3546-47C2-BC97-37B70AAB72D2";
name = Light;
paths = (
{
closed = 1;
nodes = (
"7 749 LINE",
"7 685 LINE",
"223 685 LINE",
"223 0 LINE",
"739 0 LINE SMOOTH",
"839.667 0 OFFCURVE",
"931.333 16.3333 OFFCURVE",
"1014 49 CURVE SMOOTH",
"1096.67 81.6667 OFFCURVE",
"1167.67 128.667 OFFCURVE",
"1227 190 CURVE SMOOTH",
"1286.33 251.333 OFFCURVE",
"1332.33 325.667 OFFCURVE",
"1365 413 CURVE SMOOTH",
"1397.67 500.333 OFFCURVE",
"1414 598.667 OFFCURVE",
"1414 708 CURVE SMOOTH",
"1414 816.667 OFFCURVE",
"1397.67 914.667 OFFCURVE",
"1365 1002 CURVE SMOOTH",
"1332.33 1089.33 OFFCURVE",
"1286.33 1163.67 OFFCURVE",
"1227 1225 CURVE SMOOTH",
"1167.67 1286.33 OFFCURVE",
"1096.67 1333.33 OFFCURVE",
"1014 1366 CURVE SMOOTH",
"931.333 1398.67 OFFCURVE",
"839.667 1415 OFFCURVE",
"739 1415 CURVE SMOOTH",
"223 1415 LINE",
"223 749 LINE"
);
},
{
closed = 1;
nodes = (
"1308 608.667 OFFCURVE",
"1294.33 520.333 OFFCURVE",
"1267 443 CURVE SMOOTH",
"1239.67 365.667 OFFCURVE",
"1201.17 300.333 OFFCURVE",
"1151.5 247 CURVE SMOOTH",
"1101.83 193.667 OFFCURVE",
"1042 153 OFFCURVE",
"972 125 CURVE SMOOTH",
"902 97 OFFCURVE",
"824.333 83 OFFCURVE",
"739 83 CURVE SMOOTH",
"326 83 LINE",
"326 685 LINE",
"645 685 LINE",
"645 749 LINE",
"326 749 LINE",
"326 1332 LINE",
"739 1332 LINE SMOOTH",
"824.333 1332 OFFCURVE",
"902 1318 OFFCURVE",
"972 1290 CURVE SMOOTH",
"1042 1262 OFFCURVE",
"1101.83 1221.33 OFFCURVE",
"1151.5 1168 CURVE SMOOTH",
"1201.17 1114.67 OFFCURVE",
"1239.67 1049.33 OFFCURVE",
"1267 972 CURVE SMOOTH",
"1294.33 894.667 OFFCURVE",
"1308 806.667 OFFCURVE",
"1308 708 CURVE SMOOTH"
);
}
);
width = 1533;
}
);
leftKerningGroup = B;
rightKerningGroup = D;
unicode = 00D0;
},
{
glyphname = E;
layers = (
{
layerId = "6B32BEBF-3546-47C2-BC97-37B70AAB72D2";
name = Light;
paths = (
{
closed = 1;
nodes = (
"1057 1415 LINE",
"209 1415 LINE",
"209 0 LINE",
"1057 0 LINE",
"1059 85 LINE",
"312 85 LINE",
"312 675 LINE",
"932 675 LINE",
"932 758 LINE",
"312 758 LINE",
"312 1330 LINE",
"1057 1330 LINE"
);
}
);
width = 1160;
}
);
leftKerningGroup = B;
rightKerningGroup = E;
unicode = 0045;
},
{
glyphname = Eacute;
layers = (
{
layerId = "6B32BEBF-3546-47C2-BC97-37B70AAB72D2";
name = Light;
paths = (
{
closed = 1;
nodes = (
"209 0 LINE"
);
},
{
closed = 1;
nodes = (
"1057 1415 LINE",
"209 1415 LINE",
"209 0 LINE",
"1057 0 LINE",
"1059 85 LINE",
"312 85 LINE",
"312 675 LINE",
"932 675 LINE",
"932 758 LINE",
"312 758 LINE",
"312 1330 LINE",
"1057 1330 LINE"
);
},
{
closed = 1;
nodes = (
"970 1841 LINE",
"857 1841 LINE SMOOTH",
"841 1841 OFFCURVE",
"828.833 1839.67 OFFCURVE",
"820.5 1837 CURVE SMOOTH",
"812.167 1834.33 OFFCURVE",
"804 1828.33 OFFCURVE",
"796 1819 CURVE",
"538 1542 LINE",
"603 1542 LINE SMOOTH",
"611 1542 OFFCURVE",
"618 1542.67 OFFCURVE",
"624 1544 CURVE SMOOTH",
"630 1545.33 OFFCURVE",
"636 1548.67 OFFCURVE",
"642 1554 CURVE SMOOTH"
);
}
);
width = 1160;
}
);
leftKerningGroup = B;
rightKerningGroup = E;
unicode = 00C9;
},
{
glyphname = Ecircumflex;
layers = (
{
layerId = "6B32BEBF-3546-47C2-BC97-37B70AAB72D2";
name = Light;
paths = (
{
closed = 1;
nodes = (
"209 0 LINE"
);
},
{
closed = 1;
nodes = (
"1057 1415 LINE",
"209 1415 LINE",
"209 0 LINE",
"1057 0 LINE",
"1059 85 LINE",
"312 85 LINE",
"312 675 LINE",
"932 675 LINE",
"932 758 LINE",
"312 758 LINE",
"312 1330 LINE",
"1057 1330 LINE"
);
},
{
closed = 1;
nodes = (
"920 1542 LINE",
"685 1809 LINE",
"603 1809 LINE",
"368 1542 LINE",
"436 1542 LINE SMOOTH",
"441.333 1542 OFFCURVE",
"447.5 1543 OFFCURVE",
"454.5 1545 CURVE SMOOTH",
"461.5 1547 OFFCURVE",
"468.667 1551.67 OFFCURVE",
"476 1559 CURVE",
"635 1745 LINE",
"636.333 1746.33 OFFCURVE",
"637.5 1748 OFFCURVE",
"638.5 1750 CURVE SMOOTH",
"639.5 1752 OFFCURVE",
"640.667 1753.67 OFFCURVE",
"642 1755 CURVE",
"650 1745 LINE",
"810 1559 LINE",
"817.333 1551.67 OFFCURVE",
"824.333 1547 OFFCURVE",
"831 1545 CURVE SMOOTH",
"837.667 1543 OFFCURVE",
"843.667 1542 OFFCURVE",
"849 1542 CURVE SMOOTH"
);
}
);
width = 1160;
}
);
leftKerningGroup = B;
rightKerningGroup = E;
unicode = 00CA;
},
{
glyphname = Edieresis;
layers = (
{
layerId = "6B32BEBF-3546-47C2-BC97-37B70AAB72D2";
name = Light;
paths = (
{
closed = 1;
nodes = (
"209 0 LINE"
);
},
{
closed = 1;
nodes = (
"1057 1415 LINE",
"209 1415 LINE",
"209 0 LINE",
"1057 0 LINE",
"1059 85 LINE",
"312 85 LINE",
"312 675 LINE",
"932 675 LINE",
"932 758 LINE",
"312 758 LINE",
"312 1330 LINE",
"1057 1330 LINE"
);
},
{
closed = 1;
nodes = (
"528 1675.67 OFFCURVE",
"525.667 1686 OFFCURVE",
"521 1696 CURVE SMOOTH",
"516.333 1706 OFFCURVE",
"510.333 1714.83 OFFCURVE",
"503 1722.5 CURVE SMOOTH",
"495.667 1730.17 OFFCURVE",
"487 1736.17 OFFCURVE",
"477 1740.5 CURVE SMOOTH",
"467 1744.83 OFFCURVE",
"456.667 1747 OFFCURVE",
"446 1747 CURVE SMOOTH",
"435.333 1747 OFFCURVE",
"425.167 1744.83 OFFCURVE",
"415.5 1740.5 CURVE SMOOTH",
"405.833 1736.17 OFFCURVE",
"397.333 1730.17 OFFCURVE",
"390 1722.5 CURVE SMOOTH",
"382.667 1714.83 OFFCURVE",
"376.833 1706 OFFCURVE",
"372.5 1696 CURVE SMOOTH",
"368.167 1686 OFFCURVE",
"366 1675.67 OFFCURVE",
"366 1665 CURVE SMOOTH",
"366 1654.33 OFFCURVE",
"368.167 1644.17 OFFCURVE",
"372.5 1634.5 CURVE SMOOTH",
"376.833 1624.83 OFFCURVE",
"382.667 1616.5 OFFCURVE",
"390 1609.5 CURVE SMOOTH",
"397.333 1602.5 OFFCURVE",
"405.833 1596.83 OFFCURVE",
"415.5 1592.5 CURVE SMOOTH",
"425.167 1588.17 OFFCURVE",
"435.333 1586 OFFCURVE",
"446 1586 CURVE SMOOTH",
"456.667 1586 OFFCURVE",
"467 1588.17 OFFCURVE",
"477 1592.5 CURVE SMOOTH",
"487 1596.83 OFFCURVE",
"495.667 1602.5 OFFCURVE",
"503 1609.5 CURVE SMOOTH",
"510.333 1616.5 OFFCURVE",
"516.333 1624.83 OFFCURVE",
"521 1634.5 CURVE SMOOTH",
"525.667 1644.17 OFFCURVE",
"528 1654.33 OFFCURVE",
"528 1665 CURVE SMOOTH"
);
},
{
closed = 1;
nodes = (
"919 1675.67 OFFCURVE",
"916.833 1686 OFFCURVE",
"912.5 1696 CURVE SMOOTH",
"908.167 1706 OFFCURVE",
"902.167 1714.83 OFFCURVE",
"894.5 1722.5 CURVE SMOOTH",
"886.833 1730.17 OFFCURVE",
"878.167 1736.17 OFFCURVE",
"868.5 1740.5 CURVE SMOOTH",
"858.833 1744.83 OFFCURVE",
"848.667 1747 OFFCURVE",
"838 1747 CURVE SMOOTH",
"816 1747 OFFCURVE",
"797 1738.83 OFFCURVE",
"781 1722.5 CURVE SMOOTH",
"765 1706.17 OFFCURVE",
"757 1687 OFFCURVE",
"757 1665 CURVE SMOOTH",
"757 1654.33 OFFCURVE",
"759.167 1644.17 OFFCURVE",
"763.5 1634.5 CURVE SMOOTH",
"767.833 1624.83 OFFCURVE",
"773.667 1616.5 OFFCURVE",
"781 1609.5 CURVE SMOOTH",
"788.333 1602.5 OFFCURVE",
"796.833 1596.83 OFFCURVE",
"806.5 1592.5 CURVE SMOOTH",
"816.167 1588.17 OFFCURVE",
"826.667 1586 OFFCURVE",
"838 1586 CURVE SMOOTH",
"848.667 1586 OFFCURVE",
"858.833 1588.17 OFFCURVE",
"868.5 1592.5 CURVE SMOOTH",
"878.167 1596.83 OFFCURVE",
"886.833 1602.5 OFFCURVE",
"894.5 1609.5 CURVE SMOOTH",
"902.167 1616.5 OFFCURVE",
"908.167 1624.83 OFFCURVE",
"912.5 1634.5 CURVE SMOOTH",
"916.833 1644.17 OFFCURVE",
"919 1654.33 OFFCURVE",
"919 1665 CURVE SMOOTH"
);
}
);
width = 1160;
}
);
leftKerningGroup = B;
rightKerningGroup = E;
unicode = 00CB;
},
{
glyphname = Egrave;
layers = (
{
layerId = "6B32BEBF-3546-47C2-BC97-37B70AAB72D2";
name = Light;
paths = (
{
closed = 1;
nodes = (
"209 0 LINE"
);
},
{
closed = 1;
nodes = (
"1057 1415 LINE",
"209 1415 LINE",
"209 0 LINE",
"1057 0 LINE",
"1059 85 LINE",
"312 85 LINE",
"312 675 LINE",
"932 675 LINE",
"932 758 LINE",
"312 758 LINE",
"312 1330 LINE",
"1057 1330 LINE"
);
},
{
closed = 1;
nodes = (
"342 1841 LINE",
"646 1554 LINE SMOOTH",
"652 1548.67 OFFCURVE",
"657.833 1545.33 OFFCURVE",
"663.5 1544 CURVE SMOOTH",
"669.167 1542.67 OFFCURVE",
"676.333 1542 OFFCURVE",
"685 1542 CURVE SMOOTH",
"750 1542 LINE",
"511 1819 LINE",
"503 1829 OFFCURVE",
"494.833 1835.17 OFFCURVE",
"486.5 1837.5 CURVE SMOOTH",
"478.167 1839.83 OFFCURVE",
"466 1841 OFFCURVE",
"450 1841 CURVE SMOOTH"
);
}
);
width = 1160;
}
);
leftKerningGroup = B;
rightKerningGroup = E;
unicode = 00C8;
},
{
glyphname = F;
layers = (
{
layerId = "6B32BEBF-3546-47C2-BC97-37B70AAB72D2";
name = Light;
paths = (
{
closed = 1;
nodes = (
"1057 1415 LINE",
"209 1415 LINE",
"209 0 LINE",
"312 0 LINE",
"312 650 LINE",
"957 650 LINE",
"957 735 LINE",
"312 735 LINE",
"312 1330 LINE",
"1057 1330 LINE"
);
}
);
width = 1129;
}
);
leftKerningGroup = B;
rightKerningGroup = F;
unicode = 0046;
},
{
glyphname = G;
layers = (
{
layerId = "6B32BEBF-3546-47C2-BC97-37B70AAB72D2";
name = Light;
paths = (
{
closed = 1;
nodes = (
"1339 139 LINE",
"1339 642 LINE",
"949 642 LINE",
"949 586 LINE SMOOTH",
"949 580 OFFCURVE",
"951.5 574.667 OFFCURVE",
"956.5 570 CURVE SMOOTH",
"961.5 565.333 OFFCURVE",
"967.667 563 OFFCURVE",
"975 563 CURVE SMOOTH",
"1246 563 LINE",
"1246 182 LINE",
"1214.67 164 OFFCURVE",
"1183.83 147.833 OFFCURVE",
"1153.5 133.5 CURVE SMOOTH",
"1123.17 119.167 OFFCURVE",
"1091.83 107 OFFCURVE",
"1059.5 97 CURVE SMOOTH",
"1027.17 87 OFFCURVE",
"993.166 79.5 OFFCURVE",
"957.5 74.5 CURVE SMOOTH",
"921.833 69.5 OFFCURVE",
"883 67 OFFCURVE",
"841 67 CURVE SMOOTH",
"745 67 OFFCURVE",
"658.666 81.6667 OFFCURVE",
"582 111 CURVE SMOOTH",
"505.333 140.333 OFFCURVE",
"440.166 182.667 OFFCURVE",
"386.5 238 CURVE SMOOTH",
"332.833 293.333 OFFCURVE",
"291.833 360.667 OFFCURVE",
"263.5 440 CURVE SMOOTH",
"235.166 519.333 OFFCURVE",
"221 608.667 OFFCURVE",
"221 708 CURVE SMOOTH",
"221 806 OFFCURVE",
"235.166 894.333 OFFCURVE",
"263.5 973 CURVE SMOOTH",
"291.833 1051.67 OFFCURVE",
"332.166 1118.33 OFFCURVE",
"384.5 1173 CURVE SMOOTH",
"436.833 1227.67 OFFCURVE",
"500.166 1269.67 OFFCURVE",
"574.5 1299 CURVE SMOOTH",
"648.833 1328.33 OFFCURVE",
"732 1343 OFFCURVE",
"824 1343 CURVE SMOOTH",
"893.333 1343 OFFCURVE",
"952.166 1336.67 OFFCURVE",
"1000.5 1324 CURVE SMOOTH",
"1048.83 1311.33 OFFCURVE",
"1089.33 1297 OFFCURVE",
"1122 1281 CURVE SMOOTH",
"1154.67 1265 OFFCURVE",
"1180.33 1249.67 OFFCURVE",
"1199 1235 CURVE SMOOTH",
"1217.67 1220.33 OFFCURVE",
"1232 1211 OFFCURVE",
"1242 1207 CURVE",
"1260.67 1198.33 OFFCURVE",
"1274.67 1202 OFFCURVE",
"1284 1218 CURVE",
"1312 1262 LINE",
"1280.67 1289.33 OFFCURVE",
"1248 1313.5 OFFCURVE",
"1214 1334.5 CURVE SMOOTH",
"1180 1355.5 OFFCURVE",
"1143.33 1373.17 OFFCURVE",
"1104 1387.5 CURVE SMOOTH",
"1064.67 1401.83 OFFCURVE",
"1022.17 1412.67 OFFCURVE",
"976.499 1420 CURVE SMOOTH",
"930.833 1427.33 OFFCURVE",
"880.999 1431 OFFCURVE",
"826.999 1431 CURVE SMOOTH",
"717.666 1431 OFFCURVE",
"619.333 1413.83 OFFCURVE",
"531.999 1379.5 CURVE SMOOTH",
"444.666 1345.17 OFFCURVE",
"370.166 1296.5 OFFCURVE",
"308.499 1233.5 CURVE SMOOTH",
"246.833 1170.5 OFFCURVE",
"199.499 1094.5 OFFCURVE",
"166.499 1005.5 CURVE SMOOTH",
"133.499 916.5 OFFCURVE",
"116.999 817.333 OFFCURVE",
"116.999 708 CURVE SMOOTH",
"116.999 598.667 OFFCURVE",
"133.833 499.333 OFFCURVE",
"167.499 410 CURVE SMOOTH",
"201.166 320.667 OFFCURVE",
"249.499 244.5 OFFCURVE",
"312.499 181.5 CURVE SMOOTH",
"375.499 118.5 OFFCURVE",
"451.666 69.8333 OFFCURVE",
"540.999 35.5 CURVE SMOOTH",
"630.333 1.16669 OFFCURVE",
"730.999 -16 OFFCURVE",
"842.999 -16 CURVE SMOOTH",
"942.999 -16 OFFCURVE",
"1033 -3 OFFCURVE",
"1113 24 CURVE SMOOTH",
"1193 50.6667 OFFCURVE",
"1268.33 89 OFFCURVE",
"1339 139 CURVE"
);
}
);
width = 1470;
}
);
leftKerningGroup = C;
rightKerningGroup = G;
unicode = 0047;
},
{
glyphname = H;
layers = (
{
layerId = "6B32BEBF-3546-47C2-BC97-37B70AAB72D2";
name = Light;
paths = (
{
closed = 1;
nodes = (
"1301 0 LINE",
"1301 1415 LINE",
"1198 1415 LINE",
"1198 755 LINE",
"312 755 LINE",
"312 1415 LINE",
"209 1415 LINE",
"209 0 LINE",
"312 0 LINE",
"312 678 LINE",
"1198 678 LINE",
"1198 0 LINE"
);
}
);
width = 1510;
}
);
leftKerningGroup = B;
rightKerningGroup = H;
unicode = 0048;
},
{
glyphname = I;
layers = (
{
layerId = "6B32BEBF-3546-47C2-BC97-37B70AAB72D2";
name = Light;
paths = (
{
closed = 1;
nodes = (
"312 0 LINE",
"312 1415 LINE",
"209 1415 LINE",
"209 0 LINE"
);
}
);
width = 521;
}
);
leftKerningGroup = B;
rightKerningGroup = H;
unicode = 0049;
},
{
glyphname = Iacute;
layers = (
{
layerId = "6B32BEBF-3546-47C2-BC97-37B70AAB72D2";
name = Light;
paths = (
{
closed = 1;
nodes = (
"158 0 LINE"
);
},
{
closed = 1;
nodes = (
"312 0 LINE",
"312 1415 LINE",
"209 1415 LINE",
"209 0 LINE"
);
},
{
closed = 1;
nodes = (
"590 1841 LINE",
"477 1841 LINE SMOOTH",
"461 1841 OFFCURVE",
"448.833 1839.67 OFFCURVE",
"440.5 1837 CURVE SMOOTH",
"432.167 1834.33 OFFCURVE",
"424 1828.33 OFFCURVE",
"416 1819 CURVE",
"158 1542 LINE",
"223 1542 LINE SMOOTH",
"231 1542 OFFCURVE",
"238 1542.67 OFFCURVE",
"244 1544 CURVE SMOOTH",
"250 1545.33 OFFCURVE",
"256 1548.67 OFFCURVE",
"262 1554 CURVE SMOOTH"
);
}
);
width = 521;
}
);
leftKerningGroup = B;
rightKerningGroup = H;
unicode = 00CD;
},
{
glyphname = Icircumflex;
layers = (
{
layerId = "6B32BEBF-3546-47C2-BC97-37B70AAB72D2";
name = Light;
paths = (
{
closed = 1;
nodes = (
"0 0 LINE"
);
},
{
closed = 1;
nodes = (
"312 0 LINE",
"312 1415 LINE",
"209 1415 LINE",
"209 0 LINE"
);
},
{
closed = 1;
nodes = (
"540 1542 LINE",
"305 1809 LINE",
"223 1809 LINE",
"-12 1542 LINE",
"56 1542 LINE SMOOTH",
"61.3333 1542 OFFCURVE",
"67.5 1543 OFFCURVE",
"74.5 1545 CURVE SMOOTH",
"81.5 1547 OFFCURVE",
"88.6667 1551.67 OFFCURVE",
"96 1559 CURVE",
"255 1745 LINE",
"256.333 1746.33 OFFCURVE",
"257.5 1748 OFFCURVE",
"258.5 1750 CURVE SMOOTH",
"259.5 1752 OFFCURVE",
"260.667 1753.67 OFFCURVE",
"262 1755 CURVE",
"270 1745 LINE",
"430 1559 LINE",
"437.333 1551.67 OFFCURVE",
"444.333 1547 OFFCURVE",
"451 1545 CURVE SMOOTH",
"457.667 1543 OFFCURVE",
"463.667 1542 OFFCURVE",
"469 1542 CURVE SMOOTH"
);
}
);
width = 521;
}
);
leftKerningGroup = B;
rightKerningGroup = H;
unicode = 00CE;
},
{
glyphname = Idieresis;
layers = (
{
layerId = "6B32BEBF-3546-47C2-BC97-37B70AAB72D2";
name = Light;
paths = (
{
closed = 1;
nodes = (
"0 0 LINE"
);
},
{
closed = 1;
nodes = (
"312 0 LINE",
"312 1415 LINE",
"209 1415 LINE",
"209 0 LINE"
);
},
{
closed = 1;
nodes = (
"148 1675.67 OFFCURVE",
"145.667 1686 OFFCURVE",
"141 1696 CURVE SMOOTH",
"136.333 1706 OFFCURVE",
"130.333 1714.83 OFFCURVE",
"123 1722.5 CURVE SMOOTH",
"115.667 1730.17 OFFCURVE",
"107 1736.17 OFFCURVE",
"97 1740.5 CURVE SMOOTH",
"87 1744.83 OFFCURVE",
"76.6667 1747 OFFCURVE",
"66 1747 CURVE SMOOTH",
"55.3333 1747 OFFCURVE",
"45.1667 1744.83 OFFCURVE",
"35.5 1740.5 CURVE SMOOTH",
"25.8333 1736.17 OFFCURVE",
"17.3333 1730.17 OFFCURVE",
"10 1722.5 CURVE SMOOTH",
"2.66667 1714.83 OFFCURVE",
"-3 1706 OFFCURVE",
"-8 1696 CURVE SMOOTH",
"-12 1686 OFFCURVE",
"-14 1675.67 OFFCURVE",
"-14 1665 CURVE SMOOTH",
"-14 1654.33 OFFCURVE",
"-12 1644.17 OFFCURVE",
"-8 1634.5 CURVE SMOOTH",
"-3 1624.83 OFFCURVE",
"2.66667 1616.5 OFFCURVE",
"10 1609.5 CURVE SMOOTH",
"17.3333 1602.5 OFFCURVE",
"25.8333 1596.83 OFFCURVE",
"35.5 1592.5 CURVE SMOOTH",
"45.1667 1588.17 OFFCURVE",
"55.3333 1586 OFFCURVE",
"66 1586 CURVE SMOOTH",
"76.6667 1586 OFFCURVE",
"87 1588.17 OFFCURVE",
"97 1592.5 CURVE SMOOTH",
"107 1596.83 OFFCURVE",
"115.667 1602.5 OFFCURVE",
"123 1609.5 CURVE SMOOTH",
"130.333 1616.5 OFFCURVE",
"136.333 1624.83 OFFCURVE",
"141 1634.5 CURVE SMOOTH",
"145.667 1644.17 OFFCURVE",
"148 1654.33 OFFCURVE",
"148 1665 CURVE SMOOTH"
);
},
{
closed = 1;
nodes = (
"539 1675.67 OFFCURVE",
"536.833 1686 OFFCURVE",
"532.5 1696 CURVE SMOOTH",
"528.167 1706 OFFCURVE",
"522.167 1714.83 OFFCURVE",
"514.5 1722.5 CURVE SMOOTH",
"506.833 1730.17 OFFCURVE",
"498.167 1736.17 OFFCURVE",
"488.5 1740.5 CURVE SMOOTH",
"478.833 1744.83 OFFCURVE",
"468.667 1747 OFFCURVE",
"458 1747 CURVE SMOOTH",
"436 1747 OFFCURVE",
"417 1738.83 OFFCURVE",
"401 1722.5 CURVE SMOOTH",
"385 1706.17 OFFCURVE",
"377 1687 OFFCURVE",
"377 1665 CURVE SMOOTH",
"377 1654.33 OFFCURVE",
"379.167 1644.17 OFFCURVE",
"383.5 1634.5 CURVE SMOOTH",
"387.833 1624.83 OFFCURVE",
"393.667 1616.5 OFFCURVE",
"401 1609.5 CURVE SMOOTH",
"408.333 1602.5 OFFCURVE",
"416.833 1596.83 OFFCURVE",
"426.5 1592.5 CURVE SMOOTH",
"436.167 1588.17 OFFCURVE",
"446.667 1586 OFFCURVE",
"458 1586 CURVE SMOOTH",
"468.667 1586 OFFCURVE",
"478.833 1588.17 OFFCURVE",
"488.5 1592.5 CURVE SMOOTH",
"498.167 1596.83 OFFCURVE",
"506.833 1602.5 OFFCURVE",
"514.5 1609.5 CURVE SMOOTH",
"522.167 1616.5 OFFCURVE",
"528.167 1624.83 OFFCURVE",
"532.5 1634.5 CURVE SMOOTH",
"536.833 1644.17 OFFCURVE",
"539 1654.33 OFFCURVE",
"539 1665 CURVE SMOOTH"
);
}
);
width = 521;
}
);
leftKerningGroup = B;
rightKerningGroup = H;
unicode = 00CF;
},
{
glyphname = Igrave;
layers = (
{
layerId = "6B32BEBF-3546-47C2-BC97-37B70AAB72D2";
name = Light;
paths = (
{
closed = 1;
nodes = (
"0 0 LINE"
);
},
{
closed = 1;
nodes = (
"312 0 LINE",
"312 1415 LINE",
"209 1415 LINE",
"209 0 LINE"
);
},
{
closed = 1;
nodes = (
"-38 1841 LINE",
"266 1554 LINE SMOOTH",
"272 1548.67 OFFCURVE",
"277.833 1545.33 OFFCURVE",
"283.5 1544 CURVE SMOOTH",
"289.167 1542.67 OFFCURVE",
"296.333 1542 OFFCURVE",
"305 1542 CURVE SMOOTH",
"370 1542 LINE",
"131 1819 LINE",
"123 1829 OFFCURVE",
"114.833 1835.17 OFFCURVE",
"106.5 1837.5 CURVE SMOOTH",
"98.1667 1839.83 OFFCURVE",
"86 1841 OFFCURVE",
"70 1841 CURVE SMOOTH"
);
}
);
width = 521;
}
);
leftKerningGroup = B;
rightKerningGroup = H;
unicode = 00CC;
},
{
glyphname = J;
lastChange = "2014-08-20 03:54:17 -0500";
layers = (
{
layerId = "6B32BEBF-3546-47C2-BC97-37B70AAB72D2";
name = Light;
paths = (
{
closed = 1;
nodes = (
"825 1415 LINE",
"825 470 LINE SMOOTH",
"825 402 OFFCURVE",
"818 343 OFFCURVE",
"803 293 CURVE SMOOTH",
"788 242 OFFCURVE",
"766 201 OFFCURVE",
"737 168 CURVE SMOOTH",
"708 135 OFFCURVE",
"674 110 OFFCURVE",
"633 94 CURVE SMOOTH",
"595 79 OFFCURVE",
"554 71 OFFCURVE",
"507 70 CURVE",
"472 71 OFFCURVE",
"440 75 OFFCURVE",
"411 82 CURVE SMOOTH",
"379 90 OFFCURVE",
"351 100 OFFCURVE",
"326 112 CURVE SMOOTH",
"302 124 OFFCURVE",
"280 136 OFFCURVE",
"261 150 CURVE SMOOTH",
"243 164 OFFCURVE",
"227 176 OFFCURVE",
"213 188 CURVE",
"200 200 OFFCURVE",
"189 209 OFFCURVE",
"179 217 CURVE",
"170 225 OFFCURVE",
"162 229 OFFCURVE",
"156 229 CURVE SMOOTH",
"146 229 OFFCURVE",
"136 224 OFFCURVE",
"128 214 CURVE",
"100 170 LINE",
"151 113 OFFCURVE",
"210 68 OFFCURVE",
"277 35 CURVE SMOOTH",
"336 6 OFFCURVE",
"404 -10 OFFCURVE",
"482 -14 CURVE",
"489 -16 OFFCURVE",
"497 -16 OFFCURVE",
"505 -16 CURVE SMOOTH",
"570 -16 OFFCURVE",
"629 -6 OFFCURVE",
"681 16 CURVE SMOOTH",
"733 37 OFFCURVE",
"777 68 OFFCURVE",
"814 109 CURVE SMOOTH",
"851 150 OFFCURVE",
"879 201 OFFCURVE",
"898 262 CURVE SMOOTH",
"917 323 OFFCURVE",
"927 393 OFFCURVE",
"927 472 CURVE SMOOTH",
"927 1415 LINE"
);
}
);
width = 1122;
}
);
leftKerningGroup = J;
rightKerningGroup = J;
unicode = 004A;
},
{
glyphname = K;
lastChange = "2014-08-20 04:13:58 -0500";
layers = (
{
layerId = "6B32BEBF-3546-47C2-BC97-37B70AAB72D2";
name = Light;
paths = (
{
closed = 1;
nodes = (
"312 762 LINE",
"312 1415 LINE",
"209 1415 LINE",
"209 0 LINE",
"312 0 LINE",
"312 682 LINE",
"403 682 LINE SMOOTH",
"419 682 OFFCURVE",
"432.167 681.167 OFFCURVE",
"442.5 679.5 CURVE SMOOTH",
"452.833 677.833 OFFCURVE",
"461.833 675.167 OFFCURVE",
"469.5 671.5 CURVE SMOOTH",
"477.167 667.833 OFFCURVE",
"484.167 663.333 OFFCURVE",
"490.5 658 CURVE SMOOTH",
"496.833 652.667 OFFCURVE",
"503.667 646.333 OFFCURVE",
"511 639 CURVE SMOOTH",
"1109 26.9999 LINE",
"1116.33 17.6666 OFFCURVE",
"1123.83 10.8333 OFFCURVE",
"1131.5 6.49994 CURVE SMOOTH",
"1139.17 2.16661 OFFCURVE",
"1138 -6 OFFCURVE",
"1168 -6 CURVE",
"1252 -6 LINE",
"601 680 LINE",
"589.667 693.333 OFFCURVE",
"578.333 704.167 OFFCURVE",
"567 712.5 CURVE SMOOTH",
"555.667 720.833 OFFCURVE",
"543 727 OFFCURVE",
"529 731 CURVE",
"541 735.667 OFFCURVE",
"551.833 741.667 OFFCURVE",
"561.5 749 CURVE SMOOTH",
"571.167 756.333 OFFCURVE",
"582.333 766.667 OFFCURVE",
"595 780 CURVE SMOOTH",
"1213 1415 LINE",
"1131 1415 LINE SMOOTH",
"1117.67 1415 OFFCURVE",
"1106.17 1413 OFFCURVE",
"1096.5 1409 CURVE SMOOTH",
"1086.83 1405 OFFCURVE",
"1077 1397.33 OFFCURVE",
"1067 1386 CURVE",
"496 799 LINE SMOOTH",
"488.667 791.667 OFFCURVE",
"481.833 785.5 OFFCURVE",
"475.5 780.5 CURVE SMOOTH",
"469.167 775.5 OFFCURVE",
"462.167 771.667 OFFCURVE",
"454.5 769 CURVE SMOOTH",
"446.833 766.333 OFFCURVE",
"438.333 764.5 OFFCURVE",
"429 763.5 CURVE SMOOTH",
"419.667 762.5 OFFCURVE",
"408.667 762 OFFCURVE",
"396 762 CURVE SMOOTH"
);
}
);
width = 1270;
}
);
leftKerningGroup = B;
rightKerningGroup = K;
unicode = 004B;
},
{
glyphname = L;
layers = (
{
layerId = "6B32BEBF-3546-47C2-BC97-37B70AAB72D2";
name = Light;
paths = (
{
closed = 1;
nodes = (
"312 87 LINE",
"312 1415 LINE",
"209 1415 LINE",
"209 0 LINE",
"982 0 LINE",
"982 87 LINE"
);
}
);
width = 1012;
}
);
leftKerningGroup = B;
rightKerningGroup = L;
unicode = 004C;
},
{
glyphname = M;
layers = (
{
layerId = "6B32BEBF-3546-47C2-BC97-37B70AAB72D2";
name = Light;
paths = (
{
closed = 1;
nodes = (
"889 412 LINE",
"318 1396 LINE SMOOTH",
"312.667 1404.67 OFFCURVE",
"307.333 1410 OFFCURVE",
"302 1412 CURVE SMOOTH",
"296.667 1414 OFFCURVE",
"289.333 1415 OFFCURVE",
"280 1415 CURVE SMOOTH",
"209 1415 LINE",
"209 0 LINE",
"299 0 LINE",
"299 1206 LINE SMOOTH",
"299 1224 OFFCURVE",
"298 1242.67 OFFCURVE",
"296 1262 CURVE",
"868 272 LINE SMOOTH",
"877.333 254.667 OFFCURVE",
"890.667 246 OFFCURVE",
"908 246 CURVE SMOOTH",
"924 246 LINE SMOOTH",
"941.333 246 OFFCURVE",
"954.667 254.667 OFFCURVE",
"964 272 CURVE SMOOTH",
"1520 1260 LINE",
"1519.33 1250.67 OFFCURVE",
"1518.83 1241.33 OFFCURVE",
"1518.5 1232 CURVE SMOOTH",
"1518.17 1222.67 OFFCURVE",
"1518 1214 OFFCURVE",
"1518 1206 CURVE SMOOTH",
"1518 0 LINE",
"1607 0 LINE",
"1607 1415 LINE",
"1537 1415 LINE SMOOTH",
"1527.67 1415 OFFCURVE",
"1520.17 1414 OFFCURVE",
"1514.5 1412 CURVE SMOOTH",
"1508.83 1410 OFFCURVE",
"1503.33 1404.67 OFFCURVE",
"1498 1396 CURVE",
"943 413 LINE SMOOTH",
"937.667 403.667 OFFCURVE",
"932.667 393.667 OFFCURVE",
"928 383 CURVE SMOOTH",
"923.333 372.333 OFFCURVE",
"919 362 OFFCURVE",
"915 352 CURVE",
"907.667 373.333 OFFCURVE",
"899 393.333 OFFCURVE",
"889 412 CURVE"
);
}
);
width = 1816;
}
);
leftKerningGroup = B;
rightKerningGroup = H;
unicode = 004D;
},
{
glyphname = N;
layers = (
{
layerId = "6B32BEBF-3546-47C2-BC97-37B70AAB72D2";
name = Light;
paths = (
{
closed = 1;
nodes = (
"260 1415 LINE",
"209 1415 LINE",
"209 0 LINE",
"299 0 LINE",
"299 1191 LINE SMOOTH",
"299 1208.33 OFFCURVE",
"298 1227 OFFCURVE",
"296 1247 CURVE",
"1215 20 LINE SMOOTH",
"1220.33 12.6667 OFFCURVE",
"1225.83 7.5 OFFCURVE",
"1231.5 4.5 CURVE SMOOTH",
"1237.17 1.5 OFFCURVE",
"1244.33 0 OFFCURVE",
"1253 0 CURVE SMOOTH",
"1301 0 LINE",
"1301 1415 LINE",
"1212 1415 LINE",
"1212 228 LINE SMOOTH",
"1212 209.333 OFFCURVE",
"1213 190 OFFCURVE",
"1215 170 CURVE",
"298 1396 LINE SMOOTH",
"292 1404 OFFCURVE",
"286.5 1409.17 OFFCURVE",
"281.5 1411.5 CURVE SMOOTH",
"276.5 1413.83 OFFCURVE",
"269.333 1415 OFFCURVE",
"260 1415 CURVE SMOOTH"
);
}
);
width = 1510;
}
);
leftKerningGroup = B;
rightKerningGroup = H;
unicode = 004E;
},
{
glyphname = Ntilde;
layers = (
{
layerId = "6B32BEBF-3546-47C2-BC97-37B70AAB72D2";
name = Light;
paths = (
{
closed = 1;
nodes = (
"209 1415 LINE",
"209 0 LINE",
"299 0 LINE",
"299 1191 LINE SMOOTH",
"299 1208.33 OFFCURVE",
"298 1227 OFFCURVE",
"296 1247 CURVE",
"1215 20 LINE SMOOTH",
"1220.33 12.6667 OFFCURVE",
"1225.83 7.5 OFFCURVE",
"1231.5 4.5 CURVE SMOOTH",
"1237.17 1.5 OFFCURVE",
"1244.33 0 OFFCURVE",
"1253 0 CURVE SMOOTH",
"1301 0 LINE",
"1301 1415 LINE",
"1212 1415 LINE",
"1212 228 LINE SMOOTH",
"1212 209.333 OFFCURVE",
"1213 190 OFFCURVE",
"1215 170 CURVE",
"298 1396 LINE SMOOTH",
"292 1404 OFFCURVE",
"286.5 1409.17 OFFCURVE",
"281.5 1411.5 CURVE SMOOTH",
"276.5 1413.83 OFFCURVE",
"269.333 1415 OFFCURVE",
"260 1415 CURVE SMOOTH"
);
},
{
closed = 1;
nodes = (
"884.667 1615 OFFCURVE",
"865.667 1620.83 OFFCURVE",
"847 1632.5 CURVE SMOOTH",
"828.333 1644.17 OFFCURVE",
"808.833 1656.83 OFFCURVE",
"788.5 1670.5 CURVE SMOOTH",
"768.167 1684.17 OFFCURVE",
"747 1696.83 OFFCURVE",
"725 1708.5 CURVE SMOOTH",
"703 1720.17 OFFCURVE",
"679 1726 OFFCURVE",
"653 1726 CURVE SMOOTH",
"629 1726 OFFCURVE",
"607.5 1721.17 OFFCURVE",
"588.5 1711.5 CURVE SMOOTH",
"569.5 1701.83 OFFCURVE",
"553.333 1689 OFFCURVE",
"540 1673 CURVE SMOOTH",
"526.667 1657 OFFCURVE",
"516.5 1638.5 OFFCURVE",
"509.5 1617.5 CURVE SMOOTH",
"502.5 1596.5 OFFCURVE",
"499 1574.67 OFFCURVE",
"499 1552 CURVE",
"560 1552 LINE",
"560.667 1566 OFFCURVE",
"563.333 1579.5 OFFCURVE",
"568 1592.5 CURVE SMOOTH",
"572.667 1605.5 OFFCURVE",
"579.5 1617 OFFCURVE",
"588.5 1627 CURVE SMOOTH",
"597.5 1637 OFFCURVE",
"608.167 1645 OFFCURVE",
"620.5 1651 CURVE SMOOTH",
"632.833 1657 OFFCURVE",
"646.667 1660 OFFCURVE",
"662 1660 CURVE SMOOTH",
"680.667 1660 OFFCURVE",
"699.667 1654.17 OFFCURVE",
"719 1642.5 CURVE SMOOTH",
"738.333 1630.83 OFFCURVE",
"758.167 1618.17 OFFCURVE",
"778.5 1604.5 CURVE SMOOTH",
"798.833 1590.83 OFFCURVE",
"820 1578.17 OFFCURVE",
"842 1566.5 CURVE SMOOTH",
"864 1554.83 OFFCURVE",
"887.667 1549 OFFCURVE",
"913 1549 CURVE SMOOTH",
"937.667 1549 OFFCURVE",
"959.333 1553.67 OFFCURVE",
"978 1563 CURVE SMOOTH",
"996.667 1572.33 OFFCURVE",
"1012.5 1585 OFFCURVE",
"1025.5 1601 CURVE SMOOTH",
"1038.5 1617 OFFCURVE",
"1048.33 1635.5 OFFCURVE",
"1055 1656.5 CURVE SMOOTH",
"1061.67 1677.5 OFFCURVE",
"1065 1699.67 OFFCURVE",
"1065 1723 CURVE",
"1006 1723 LINE",
"1006 1709 OFFCURVE",
"1003.67 1695.5 OFFCURVE",
"999 1682.5 CURVE SMOOTH",
"994.333 1669.5 OFFCURVE",
"987.667 1658 OFFCURVE",
"979 1648 CURVE SMOOTH",
"970.333 1638 OFFCURVE",
"959.667 1630 OFFCURVE",
"947 1624 CURVE SMOOTH",
"934.333 1618 OFFCURVE",
"920 1615 OFFCURVE",
"904 1615 CURVE SMOOTH"
);
}
);
width = 1510;
}
);
leftKerningGroup = B;
rightKerningGroup = H;
unicode = 00D1;
},
{
glyphname = O;
layers = (
{
layerId = "6B32BEBF-3546-47C2-BC97-37B70AAB72D2";
name = Light;
paths = (
{
closed = 1;
nodes = (
"1466 816.667 OFFCURVE",
"1449.67 915.5 OFFCURVE",
"1417 1004.5 CURVE SMOOTH",
"1384.33 1093.5 OFFCURVE",
"1338.33 1169.67 OFFCURVE",
"1279 1233 CURVE SMOOTH",
"1219.67 1296.33 OFFCURVE",
"1148.5 1345.17 OFFCURVE",
"1065.5 1379.5 CURVE SMOOTH",
"982.5 1413.83 OFFCURVE",
"891 1431 OFFCURVE",
"791 1431 CURVE SMOOTH",
"691 1431 OFFCURVE",
"599.667 1413.67 OFFCURVE",
"517 1379 CURVE SMOOTH",
"434.333 1344.33 OFFCURVE",
"363.333 1295.5 OFFCURVE",
"304 1232.5 CURVE SMOOTH",
"244.667 1169.5 OFFCURVE",
"198.667 1093.5 OFFCURVE",
"166 1004.5 CURVE SMOOTH",
"133.333 915.5 OFFCURVE",
"117 816.667 OFFCURVE",
"117 708 CURVE SMOOTH",
"117 598.667 OFFCURVE",
"133.333 499.5 OFFCURVE",
"166 410.5 CURVE SMOOTH",
"198.667 321.5 OFFCURVE",
"244.667 245.5 OFFCURVE",
"304 182.5 CURVE SMOOTH",
"363.333 119.5 OFFCURVE",
"434.333 70.8335 OFFCURVE",
"517 36.5001 CURVE SMOOTH",
"599.667 2.16679 OFFCURVE",
"691 -15 OFFCURVE",
"791 -15 CURVE SMOOTH",
"891 -15 OFFCURVE",
"982.5 2.16679 OFFCURVE",
"1065.5 36.5001 CURVE SMOOTH",
"1148.5 70.8335 OFFCURVE",
"1219.67 119.5 OFFCURVE",
"1279 182.5 CURVE SMOOTH",
"1338.33 245.5 OFFCURVE",
"1384.33 321.5 OFFCURVE",
"1417 410.5 CURVE SMOOTH",
"1449.67 499.5 OFFCURVE",
"1466 598.667 OFFCURVE",
"1466 708 CURVE SMOOTH"
);
},
{
closed = 1;
nodes = (
"1360 608.667 OFFCURVE",
"1346.33 519.833 OFFCURVE",
"1319 441.5 CURVE SMOOTH",
"1291.67 363.167 OFFCURVE",
"1253 296.667 OFFCURVE",
"1203 242 CURVE SMOOTH",
"1153 187.334 OFFCURVE",
"1093 145.667 OFFCURVE",
"1023 117 CURVE SMOOTH",
"953 88.3335 OFFCURVE",
"875.667 74 OFFCURVE",
"791 74 CURVE SMOOTH",
"707 74 OFFCURVE",
"630 88.3335 OFFCURVE",
"560 117 CURVE SMOOTH",
"490 145.667 OFFCURVE",
"429.833 187.334 OFFCURVE",
"379.5 242 CURVE SMOOTH",
"329.167 296.667 OFFCURVE",
"290.167 363.167 OFFCURVE",
"262.5 441.5 CURVE SMOOTH",
"234.833 519.833 OFFCURVE",
"221 608.667 OFFCURVE",
"221 708 CURVE SMOOTH",
"221 806.667 OFFCURVE",
"234.833 895.333 OFFCURVE",
"262.5 974 CURVE SMOOTH",
"290.167 1052.67 OFFCURVE",
"329.167 1119.33 OFFCURVE",
"379.5 1174 CURVE SMOOTH",
"429.833 1228.67 OFFCURVE",
"490 1270.5 OFFCURVE",
"560 1299.5 CURVE SMOOTH",
"630 1328.5 OFFCURVE",
"707 1343 OFFCURVE",
"791 1343 CURVE SMOOTH",
"875.667 1343 OFFCURVE",
"953 1328.5 OFFCURVE",
"1023 1299.5 CURVE SMOOTH",
"1093 1270.5 OFFCURVE",
"1153 1228.67 OFFCURVE",
"1203 1174 CURVE SMOOTH",
"1253 1119.33 OFFCURVE",
"1291.67 1052.67 OFFCURVE",
"1319 974 CURVE SMOOTH",
"1346.33 895.333 OFFCURVE",
"1360 806.667 OFFCURVE",
"1360 708 CURVE SMOOTH"
);
}
);
width = 1583;
}
);
leftKerningGroup = C;
rightKerningGroup = O;
unicode = 004F;
},
{
glyphname = Oacute;
layers = (
{
layerId = "6B32BEBF-3546-47C2-BC97-37B70AAB72D2";
name = Light;
paths = (
{
closed = 1;
nodes = (
"117 0 LINE"
);
},
{
closed = 1;
nodes = (
"1466 816.667 OFFCURVE",
"1449.67 915.5 OFFCURVE",
"1417 1004.5 CURVE SMOOTH",
"1384.33 1093.5 OFFCURVE",
"1338.33 1169.67 OFFCURVE",
"1279 1233 CURVE SMOOTH",
"1219.67 1296.33 OFFCURVE",
"1148.5 1345.17 OFFCURVE",
"1065.5 1379.5 CURVE SMOOTH",
"982.5 1413.83 OFFCURVE",
"891 1431 OFFCURVE",
"791 1431 CURVE SMOOTH",
"691 1431 OFFCURVE",
"599.667 1413.67 OFFCURVE",
"517 1379 CURVE SMOOTH",
"434.333 1344.33 OFFCURVE",
"363.333 1295.5 OFFCURVE",
"304 1232.5 CURVE SMOOTH",
"244.667 1169.5 OFFCURVE",
"198.667 1093.5 OFFCURVE",
"166 1004.5 CURVE SMOOTH",
"133.333 915.5 OFFCURVE",
"117 816.667 OFFCURVE",
"117 708 CURVE SMOOTH",
"117 598.667 OFFCURVE",
"133.333 499.5 OFFCURVE",
"166 410.5 CURVE SMOOTH",
"198.667 321.5 OFFCURVE",
"244.667 245.5 OFFCURVE",
"304 182.5 CURVE SMOOTH",
"363.333 119.5 OFFCURVE",
"434.333 70.8335 OFFCURVE",
"517 36.5001 CURVE SMOOTH",
"599.667 2.16679 OFFCURVE",
"691 -15 OFFCURVE",
"791 -15 CURVE SMOOTH",
"891 -15 OFFCURVE",
"982.5 2.16679 OFFCURVE",
"1065.5 36.5001 CURVE SMOOTH",
"1148.5 70.8335 OFFCURVE",
"1219.67 119.5 OFFCURVE",
"1279 182.5 CURVE SMOOTH",
"1338.33 245.5 OFFCURVE",
"1384.33 321.5 OFFCURVE",
"1417 410.5 CURVE SMOOTH",
"1449.67 499.5 OFFCURVE",
"1466 598.667 OFFCURVE",
"1466 708 CURVE SMOOTH"
);
},
{
closed = 1;
nodes = (
"1360 608.667 OFFCURVE",
"1346.33 519.833 OFFCURVE",
"1319 441.5 CURVE SMOOTH",
"1291.67 363.167 OFFCURVE",
"1253 296.667 OFFCURVE",
"1203 242 CURVE SMOOTH",
"1153 187.334 OFFCURVE",
"1093 145.667 OFFCURVE",
"1023 117 CURVE SMOOTH",
"953 88.3335 OFFCURVE",
"875.667 74 OFFCURVE",
"791 74 CURVE SMOOTH",
"707 74 OFFCURVE",
"630 88.3335 OFFCURVE",
"560 117 CURVE SMOOTH",
"490 145.667 OFFCURVE",
"429.833 187.334 OFFCURVE",
"379.5 242 CURVE SMOOTH",
"329.167 296.667 OFFCURVE",
"290.167 363.167 OFFCURVE",
"262.5 441.5 CURVE SMOOTH",
"234.833 519.833 OFFCURVE",
"221 608.667 OFFCURVE",
"221 708 CURVE SMOOTH",
"221 806.667 OFFCURVE",
"234.833 895.333 OFFCURVE",
"262.5 974 CURVE SMOOTH",
"290.167 1052.67 OFFCURVE",
"329.167 1119.33 OFFCURVE",
"379.5 1174 CURVE SMOOTH",
"429.833 1228.67 OFFCURVE",
"490 1270.5 OFFCURVE",
"560 1299.5 CURVE SMOOTH",
"630 1328.5 OFFCURVE",
"707 1343 OFFCURVE",
"791 1343 CURVE SMOOTH",
"875.667 1343 OFFCURVE",
"953 1328.5 OFFCURVE",
"1023 1299.5 CURVE SMOOTH",
"1093 1270.5 OFFCURVE",
"1153 1228.67 OFFCURVE",
"1203 1174 CURVE SMOOTH",
"1253 1119.33 OFFCURVE",
"1291.67 1052.67 OFFCURVE",
"1319 974 CURVE SMOOTH",
"1346.33 895.333 OFFCURVE",
"1360 806.667 OFFCURVE",
"1360 708 CURVE SMOOTH"
);
},
{
closed = 1;
nodes = (
"1120 1841 LINE",
"1007 1841 LINE SMOOTH",
"991 1841 OFFCURVE",
"978.833 1839.67 OFFCURVE",
"970.5 1837 CURVE SMOOTH",
"962.167 1834.33 OFFCURVE",
"954 1828.33 OFFCURVE",
"946 1819 CURVE",
"688 1542 LINE",
"753 1542 LINE SMOOTH",
"761 1542 OFFCURVE",
"768 1542.67 OFFCURVE",
"774 1544 CURVE SMOOTH",
"780 1545.33 OFFCURVE",
"786 1548.67 OFFCURVE",
"792 1554 CURVE SMOOTH"
);
}
);
width = 1583;
}
);
leftKerningGroup = C;
rightKerningGroup = O;
unicode = 00D3;
},
{
glyphname = Ocircumflex;
layers = (
{
layerId = "6B32BEBF-3546-47C2-BC97-37B70AAB72D2";
name = Light;
paths = (
{
closed = 1;
nodes = (
"117 0 LINE"
);
},
{
closed = 1;
nodes = (
"1466 816.667 OFFCURVE",
"1449.67 915.5 OFFCURVE",
"1417 1004.5 CURVE SMOOTH",
"1384.33 1093.5 OFFCURVE",
"1338.33 1169.67 OFFCURVE",
"1279 1233 CURVE SMOOTH",
"1219.67 1296.33 OFFCURVE",
"1148.5 1345.17 OFFCURVE",
"1065.5 1379.5 CURVE SMOOTH",
"982.5 1413.83 OFFCURVE",
"891 1431 OFFCURVE",
"791 1431 CURVE SMOOTH",
"691 1431 OFFCURVE",
"599.667 1413.67 OFFCURVE",
"517 1379 CURVE SMOOTH",
"434.333 1344.33 OFFCURVE",
"363.333 1295.5 OFFCURVE",
"304 1232.5 CURVE SMOOTH",
"244.667 1169.5 OFFCURVE",
"198.667 1093.5 OFFCURVE",
"166 1004.5 CURVE SMOOTH",
"133.333 915.5 OFFCURVE",
"117 816.667 OFFCURVE",
"117 708 CURVE SMOOTH",
"117 598.667 OFFCURVE",
"133.333 499.5 OFFCURVE",
"166 410.5 CURVE SMOOTH",
"198.667 321.5 OFFCURVE",
"244.667 245.5 OFFCURVE",
"304 182.5 CURVE SMOOTH",
"363.333 119.5 OFFCURVE",
"434.333 70.8335 OFFCURVE",
"517 36.5001 CURVE SMOOTH",
"599.667 2.16679 OFFCURVE",
"691 -15 OFFCURVE",
"791 -15 CURVE SMOOTH",
"891 -15 OFFCURVE",
"982.5 2.16679 OFFCURVE",
"1065.5 36.5001 CURVE SMOOTH",
"1148.5 70.8335 OFFCURVE",
"1219.67 119.5 OFFCURVE",
"1279 182.5 CURVE SMOOTH",
"1338.33 245.5 OFFCURVE",
"1384.33 321.5 OFFCURVE",
"1417 410.5 CURVE SMOOTH",
"1449.67 499.5 OFFCURVE",
"1466 598.667 OFFCURVE",
"1466 708 CURVE SMOOTH"
);
},
{
closed = 1;
nodes = (
"1360 608.667 OFFCURVE",
"1346.33 519.833 OFFCURVE",
"1319 441.5 CURVE SMOOTH",
"1291.67 363.167 OFFCURVE",
"1253 296.667 OFFCURVE",
"1203 242 CURVE SMOOTH",
"1153 187.334 OFFCURVE",
"1093 145.667 OFFCURVE",
"1023 117 CURVE SMOOTH",
"953 88.3335 OFFCURVE",
"875.667 74 OFFCURVE",
"791 74 CURVE SMOOTH",
"707 74 OFFCURVE",
"630 88.3335 OFFCURVE",
"560 117 CURVE SMOOTH",
"490 145.667 OFFCURVE",
"429.833 187.334 OFFCURVE",
"379.5 242 CURVE SMOOTH",
"329.167 296.667 OFFCURVE",
"290.167 363.167 OFFCURVE",
"262.5 441.5 CURVE SMOOTH",
"234.833 519.833 OFFCURVE",
"221 608.667 OFFCURVE",
"221 708 CURVE SMOOTH",
"221 806.667 OFFCURVE",
"234.833 895.333 OFFCURVE",
"262.5 974 CURVE SMOOTH",
"290.167 1052.67 OFFCURVE",
"329.167 1119.33 OFFCURVE",
"379.5 1174 CURVE SMOOTH",
"429.833 1228.67 OFFCURVE",
"490 1270.5 OFFCURVE",
"560 1299.5 CURVE SMOOTH",
"630 1328.5 OFFCURVE",
"707 1343 OFFCURVE",
"791 1343 CURVE SMOOTH",
"875.667 1343 OFFCURVE",
"953 1328.5 OFFCURVE",
"1023 1299.5 CURVE SMOOTH",
"1093 1270.5 OFFCURVE",
"1153 1228.67 OFFCURVE",
"1203 1174 CURVE SMOOTH",
"1253 1119.33 OFFCURVE",
"1291.67 1052.67 OFFCURVE",
"1319 974 CURVE SMOOTH",
"1346.33 895.333 OFFCURVE",
"1360 806.667 OFFCURVE",
"1360 708 CURVE SMOOTH"
);
},
{
closed = 1;
nodes = (
"1070 1542 LINE",
"835 1809 LINE",
"753 1809 LINE",
"518 1542 LINE",
"586 1542 LINE SMOOTH",
"591.333 1542 OFFCURVE",
"597.5 1543 OFFCURVE",
"604.5 1545 CURVE SMOOTH",
"611.5 1547 OFFCURVE",
"618.667 1551.67 OFFCURVE",
"626 1559 CURVE",
"785 1745 LINE",
"786.333 1746.33 OFFCURVE",
"787.5 1748 OFFCURVE",
"788.5 1750 CURVE SMOOTH",
"789.5 1752 OFFCURVE",
"790.667 1753.67 OFFCURVE",
"792 1755 CURVE",
"800 1745 LINE",
"960 1559 LINE",
"967.333 1551.67 OFFCURVE",
"974.333 1547 OFFCURVE",
"981 1545 CURVE SMOOTH",
"987.667 1543 OFFCURVE",
"993.667 1542 OFFCURVE",
"999 1542 CURVE SMOOTH"
);
}
);
width = 1583;
}
);
leftKerningGroup = C;
rightKerningGroup = O;
unicode = 00D4;
},
{
glyphname = Odieresis;
layers = (
{
layerId = "6B32BEBF-3546-47C2-BC97-37B70AAB72D2";
name = Light;
paths = (
{
closed = 1;
nodes = (
"117 0 LINE"
);
},
{
closed = 1;
nodes = (
"1466 816.667 OFFCURVE",
"1449.67 915.5 OFFCURVE",
"1417 1004.5 CURVE SMOOTH",
"1384.33 1093.5 OFFCURVE",
"1338.33 1169.67 OFFCURVE",
"1279 1233 CURVE SMOOTH",
"1219.67 1296.33 OFFCURVE",
"1148.5 1345.17 OFFCURVE",
"1065.5 1379.5 CURVE SMOOTH",
"982.5 1413.83 OFFCURVE",
"891 1431 OFFCURVE",
"791 1431 CURVE SMOOTH",
"691 1431 OFFCURVE",
"599.667 1413.67 OFFCURVE",
"517 1379 CURVE SMOOTH",
"434.333 1344.33 OFFCURVE",
"363.333 1295.5 OFFCURVE",
"304 1232.5 CURVE SMOOTH",
"244.667 1169.5 OFFCURVE",
"198.667 1093.5 OFFCURVE",
"166 1004.5 CURVE SMOOTH",
"133.333 915.5 OFFCURVE",
"117 816.667 OFFCURVE",
"117 708 CURVE SMOOTH",
"117 598.667 OFFCURVE",
"133.333 499.5 OFFCURVE",
"166 410.5 CURVE SMOOTH",
"198.667 321.5 OFFCURVE",
"244.667 245.5 OFFCURVE",
"304 182.5 CURVE SMOOTH",
"363.333 119.5 OFFCURVE",
"434.333 70.8335 OFFCURVE",
"517 36.5001 CURVE SMOOTH",
"599.667 2.16679 OFFCURVE",
"691 -15 OFFCURVE",
"791 -15 CURVE SMOOTH",
"891 -15 OFFCURVE",
"982.5 2.16679 OFFCURVE",
"1065.5 36.5001 CURVE SMOOTH",
"1148.5 70.8335 OFFCURVE",
"1219.67 119.5 OFFCURVE",
"1279 182.5 CURVE SMOOTH",
"1338.33 245.5 OFFCURVE",
"1384.33 321.5 OFFCURVE",
"1417 410.5 CURVE SMOOTH",
"1449.67 499.5 OFFCURVE",
"1466 598.667 OFFCURVE",
"1466 708 CURVE SMOOTH"
);
},
{
closed = 1;
nodes = (
"1360 608.667 OFFCURVE",
"1346.33 519.833 OFFCURVE",
"1319 441.5 CURVE SMOOTH",
"1291.67 363.167 OFFCURVE",
"1253 296.667 OFFCURVE",
"1203 242 CURVE SMOOTH",
"1153 187.334 OFFCURVE",
"1093 145.667 OFFCURVE",
"1023 117 CURVE SMOOTH",
"953 88.3335 OFFCURVE",
"875.667 74 OFFCURVE",
"791 74 CURVE SMOOTH",
"707 74 OFFCURVE",
"630 88.3335 OFFCURVE",
"560 117 CURVE SMOOTH",
"490 145.667 OFFCURVE",
"429.833 187.334 OFFCURVE",
"379.5 242 CURVE SMOOTH",
"329.167 296.667 OFFCURVE",
"290.167 363.167 OFFCURVE",
"262.5 441.5 CURVE SMOOTH",
"234.833 519.833 OFFCURVE",
"221 608.667 OFFCURVE",
"221 708 CURVE SMOOTH",
"221 806.667 OFFCURVE",
"234.833 895.333 OFFCURVE",
"262.5 974 CURVE SMOOTH",
"290.167 1052.67 OFFCURVE",
"329.167 1119.33 OFFCURVE",
"379.5 1174 CURVE SMOOTH",
"429.833 1228.67 OFFCURVE",
"490 1270.5 OFFCURVE",
"560 1299.5 CURVE SMOOTH",
"630 1328.5 OFFCURVE",
"707 1343 OFFCURVE",
"791 1343 CURVE SMOOTH",
"875.667 1343 OFFCURVE",
"953 1328.5 OFFCURVE",
"1023 1299.5 CURVE SMOOTH",
"1093 1270.5 OFFCURVE",
"1153 1228.67 OFFCURVE",
"1203 1174 CURVE SMOOTH",
"1253 1119.33 OFFCURVE",
"1291.67 1052.67 OFFCURVE",
"1319 974 CURVE SMOOTH",
"1346.33 895.333 OFFCURVE",
"1360 806.667 OFFCURVE",
"1360 708 CURVE SMOOTH"
);
},
{
closed = 1;
nodes = (
"678 1675.67 OFFCURVE",
"675.667 1686 OFFCURVE",
"671 1696 CURVE SMOOTH",
"666.333 1706 OFFCURVE",
"660.333 1714.83 OFFCURVE",
"653 1722.5 CURVE SMOOTH",
"645.667 1730.17 OFFCURVE",
"637 1736.17 OFFCURVE",
"627 1740.5 CURVE SMOOTH",
"617 1744.83 OFFCURVE",
"606.667 1747 OFFCURVE",
"596 1747 CURVE SMOOTH",
"585.333 1747 OFFCURVE",
"575.167 1744.83 OFFCURVE",
"565.5 1740.5 CURVE SMOOTH",
"555.833 1736.17 OFFCURVE",
"547.333 1730.17 OFFCURVE",
"540 1722.5 CURVE SMOOTH",
"532.667 1714.83 OFFCURVE",
"526.833 1706 OFFCURVE",
"522.5 1696 CURVE SMOOTH",
"518.167 1686 OFFCURVE",
"516 1675.67 OFFCURVE",
"516 1665 CURVE SMOOTH",
"516 1654.33 OFFCURVE",
"518.167 1644.17 OFFCURVE",
"522.5 1634.5 CURVE SMOOTH",
"526.833 1624.83 OFFCURVE",
"532.667 1616.5 OFFCURVE",
"540 1609.5 CURVE SMOOTH",
"547.333 1602.5 OFFCURVE",
"555.833 1596.83 OFFCURVE",
"565.5 1592.5 CURVE SMOOTH",
"575.167 1588.17 OFFCURVE",
"585.333 1586 OFFCURVE",
"596 1586 CURVE SMOOTH",
"606.667 1586 OFFCURVE",
"617 1588.17 OFFCURVE",
"627 1592.5 CURVE SMOOTH",
"637 1596.83 OFFCURVE",
"645.667 1602.5 OFFCURVE",
"653 1609.5 CURVE SMOOTH",
"660.333 1616.5 OFFCURVE",
"666.333 1624.83 OFFCURVE",
"671 1634.5 CURVE SMOOTH",
"675.667 1644.17 OFFCURVE",
"678 1654.33 OFFCURVE",
"678 1665 CURVE SMOOTH"
);
},
{
closed = 1;
nodes = (
"1069 1675.67 OFFCURVE",
"1066.83 1686 OFFCURVE",
"1062.5 1696 CURVE SMOOTH",
"1058.17 1706 OFFCURVE",
"1052.17 1714.83 OFFCURVE",
"1044.5 1722.5 CURVE SMOOTH",
"1036.83 1730.17 OFFCURVE",
"1028.17 1736.17 OFFCURVE",
"1018.5 1740.5 CURVE SMOOTH",
"1008.83 1744.83 OFFCURVE",
"998.667 1747 OFFCURVE",
"988 1747 CURVE SMOOTH",
"966 1747 OFFCURVE",
"947 1738.83 OFFCURVE",
"931 1722.5 CURVE SMOOTH",
"915 1706.17 OFFCURVE",
"907 1687 OFFCURVE",
"907 1665 CURVE SMOOTH",
"907 1654.33 OFFCURVE",
"909.167 1644.17 OFFCURVE",
"913.5 1634.5 CURVE SMOOTH",
"917.833 1624.83 OFFCURVE",
"923.667 1616.5 OFFCURVE",
"931 1609.5 CURVE SMOOTH",
"938.333 1602.5 OFFCURVE",
"946.833 1596.83 OFFCURVE",
"956.5 1592.5 CURVE SMOOTH",
"966.167 1588.17 OFFCURVE",
"976.667 1586 OFFCURVE",
"988 1586 CURVE SMOOTH",
"998.667 1586 OFFCURVE",
"1008.83 1588.17 OFFCURVE",
"1018.5 1592.5 CURVE SMOOTH",
"1028.17 1596.83 OFFCURVE",
"1036.83 1602.5 OFFCURVE",
"1044.5 1609.5 CURVE SMOOTH",
"1052.17 1616.5 OFFCURVE",
"1058.17 1624.83 OFFCURVE",
"1062.5 1634.5 CURVE SMOOTH",
"1066.83 1644.17 OFFCURVE",
"1069 1654.33 OFFCURVE",
"1069 1665 CURVE SMOOTH"
);
}
);
width = 1583;
}
);
leftKerningGroup = C;
rightKerningGroup = O;
unicode = 00D6;
},
{
glyphname = Ograve;
layers = (
{
layerId = "6B32BEBF-3546-47C2-BC97-37B70AAB72D2";
name = Light;
paths = (
{
closed = 1;
nodes = (
"117 0 LINE"
);
},
{
closed = 1;
nodes = (
"1466 816.667 OFFCURVE",
"1449.67 915.5 OFFCURVE",
"1417 1004.5 CURVE SMOOTH",
"1384.33 1093.5 OFFCURVE",
"1338.33 1169.67 OFFCURVE",
"1279 1233 CURVE SMOOTH",
"1219.67 1296.33 OFFCURVE",
"1148.5 1345.17 OFFCURVE",
"1065.5 1379.5 CURVE SMOOTH",
"982.5 1413.83 OFFCURVE",
"891 1431 OFFCURVE",
"791 1431 CURVE SMOOTH",
"691 1431 OFFCURVE",
"599.667 1413.67 OFFCURVE",
"517 1379 CURVE SMOOTH",
"434.333 1344.33 OFFCURVE",
"363.333 1295.5 OFFCURVE",
"304 1232.5 CURVE SMOOTH",
"244.667 1169.5 OFFCURVE",
"198.667 1093.5 OFFCURVE",
"166 1004.5 CURVE SMOOTH",
"133.333 915.5 OFFCURVE",
"117 816.667 OFFCURVE",
"117 708 CURVE SMOOTH",
"117 598.667 OFFCURVE",
"133.333 499.5 OFFCURVE",
"166 410.5 CURVE SMOOTH",
"198.667 321.5 OFFCURVE",
"244.667 245.5 OFFCURVE",
"304 182.5 CURVE SMOOTH",
"363.333 119.5 OFFCURVE",
"434.333 70.8335 OFFCURVE",
"517 36.5001 CURVE SMOOTH",
"599.667 2.16679 OFFCURVE",
"691 -15 OFFCURVE",
"791 -15 CURVE SMOOTH",
"891 -15 OFFCURVE",
"982.5 2.16679 OFFCURVE",
"1065.5 36.5001 CURVE SMOOTH",
"1148.5 70.8335 OFFCURVE",
"1219.67 119.5 OFFCURVE",
"1279 182.5 CURVE SMOOTH",
"1338.33 245.5 OFFCURVE",
"1384.33 321.5 OFFCURVE",
"1417 410.5 CURVE SMOOTH",
"1449.67 499.5 OFFCURVE",
"1466 598.667 OFFCURVE",
"1466 708 CURVE SMOOTH"
);
},
{
closed = 1;
nodes = (
"1360 608.667 OFFCURVE",
"1346.33 519.833 OFFCURVE",
"1319 441.5 CURVE SMOOTH",
"1291.67 363.167 OFFCURVE",
"1253 296.667 OFFCURVE",
"1203 242 CURVE SMOOTH",
"1153 187.334 OFFCURVE",
"1093 145.667 OFFCURVE",
"1023 117 CURVE SMOOTH",
"953 88.3335 OFFCURVE",
"875.667 74 OFFCURVE",
"791 74 CURVE SMOOTH",
"707 74 OFFCURVE",
"630 88.3335 OFFCURVE",
"560 117 CURVE SMOOTH",
"490 145.667 OFFCURVE",
"429.833 187.334 OFFCURVE",
"379.5 242 CURVE SMOOTH",
"329.167 296.667 OFFCURVE",
"290.167 363.167 OFFCURVE",
"262.5 441.5 CURVE SMOOTH",
"234.833 519.833 OFFCURVE",
"221 608.667 OFFCURVE",
"221 708 CURVE SMOOTH",
"221 806.667 OFFCURVE",
"234.833 895.333 OFFCURVE",
"262.5 974 CURVE SMOOTH",
"290.167 1052.67 OFFCURVE",
"329.167 1119.33 OFFCURVE",
"379.5 1174 CURVE SMOOTH",
"429.833 1228.67 OFFCURVE",
"490 1270.5 OFFCURVE",
"560 1299.5 CURVE SMOOTH",
"630 1328.5 OFFCURVE",
"707 1343 OFFCURVE",
"791 1343 CURVE SMOOTH",
"875.667 1343 OFFCURVE",
"953 1328.5 OFFCURVE",
"1023 1299.5 CURVE SMOOTH",
"1093 1270.5 OFFCURVE",
"1153 1228.67 OFFCURVE",
"1203 1174 CURVE SMOOTH",
"1253 1119.33 OFFCURVE",
"1291.67 1052.67 OFFCURVE",
"1319 974 CURVE SMOOTH",
"1346.33 895.333 OFFCURVE",
"1360 806.667 OFFCURVE",
"1360 708 CURVE SMOOTH"
);
},
{
closed = 1;
nodes = (
"492 1841 LINE",
"796 1554 LINE SMOOTH",
"802 1548.67 OFFCURVE",
"807.833 1545.33 OFFCURVE",
"813.5 1544 CURVE SMOOTH",
"819.167 1542.67 OFFCURVE",
"826.333 1542 OFFCURVE",
"835 1542 CURVE SMOOTH",
"900 1542 LINE",
"661 1819 LINE",
"653 1829 OFFCURVE",
"644.833 1835.17 OFFCURVE",
"636.5 1837.5 CURVE SMOOTH",
"628.167 1839.83 OFFCURVE",
"616 1841 OFFCURVE",
"600 1841 CURVE SMOOTH"
);
}
);
width = 1583;
}
);
leftKerningGroup = C;
rightKerningGroup = O;
unicode = 00D2;
},
{
glyphname = Oslash;
layers = (
{
layerId = "6B32BEBF-3546-47C2-BC97-37B70AAB72D2";
name = Light;
paths = (
{
closed = 1;
nodes = (
"1466 825.333 OFFCURVE",
"1447.33 930.333 OFFCURVE",
"1410 1023 CURVE SMOOTH",
"1372.67 1115.67 OFFCURVE",
"1320.33 1194 OFFCURVE",
"1253 1258 CURVE",
"1418 1480 LINE",
"1363 1480 LINE SMOOTH",
"1350.33 1480 OFFCURVE",
"1340.83 1477.67 OFFCURVE",
"1334.5 1473 CURVE SMOOTH",
"1328.17 1468.33 OFFCURVE",
"1321.33 1460.67 OFFCURVE",
"1314 1450 CURVE",
"1203 1301 LINE",
"1147.67 1343 OFFCURVE",
"1085.33 1375.17 OFFCURVE",
"1016 1397.5 CURVE SMOOTH",
"946.666 1419.83 OFFCURVE",
"871.666 1431 OFFCURVE",
"791 1431 CURVE SMOOTH",
"691 1431 OFFCURVE",
"599.666 1413.67 OFFCURVE",
"517 1379 CURVE SMOOTH",
"434.333 1344.33 OFFCURVE",
"363.333 1295.5 OFFCURVE",
"304 1232.5 CURVE SMOOTH",
"244.666 1169.5 OFFCURVE",
"198.666 1093.5 OFFCURVE",
"166 1004.5 CURVE SMOOTH",
"133.333 915.5 OFFCURVE",
"117 816.667 OFFCURVE",
"117 708 CURVE SMOOTH",
"117 586 OFFCURVE",
"136.833 477.333 OFFCURVE",
"176.5 382 CURVE SMOOTH",
"216.166 286.667 OFFCURVE",
"272 207.333 OFFCURVE",
"344 144 CURVE",
"159 -105 LINE",
"202 -105 LINE SMOOTH",
"213.333 -105 OFFCURVE",
"224.5 -103 OFFCURVE",
"235.5 -97 CURVE SMOOTH",
"246.5 -92 OFFCURVE",
"256.333 -84 OFFCURVE",
"265 -73 CURVE SMOOTH",
"396 103 LINE",
"450 65 OFFCURVE",
"510.166 35.8335 OFFCURVE",
"576.5 15.5001 CURVE SMOOTH",
"642.833 -5 OFFCURVE",
"714.333 -15 OFFCURVE",
"791 -15 CURVE SMOOTH",
"891 -15 OFFCURVE",
"982.5 2.16681 OFFCURVE",
"1065.5 36.5001 CURVE SMOOTH",
"1148.5 70.8335 OFFCURVE",
"1219.67 119.5 OFFCURVE",
"1279 182.5 CURVE SMOOTH",
"1338.33 245.5 OFFCURVE",
"1384.33 321.5 OFFCURVE",
"1417 410.5 CURVE SMOOTH",
"1449.67 499.5 OFFCURVE",
"1466 598.667 OFFCURVE",
"1466 708 CURVE SMOOTH"
);
},
{
closed = 1;
nodes = (
"221 806.667 OFFCURVE",
"234.833 895.333 OFFCURVE",
"262.5 974 CURVE SMOOTH",
"290.166 1052.67 OFFCURVE",
"329.166 1119.33 OFFCURVE",
"379.5 1174 CURVE SMOOTH",
"429.833 1228.67 OFFCURVE",
"490 1270.5 OFFCURVE",
"560 1299.5 CURVE SMOOTH",
"630 1328.5 OFFCURVE",
"707 1343 OFFCURVE",
"791 1343 CURVE SMOOTH",
"861.666 1343 OFFCURVE",
"926.833 1332.83 OFFCURVE",
"986.5 1312.5 CURVE SMOOTH",
"1046.17 1292.17 OFFCURVE",
"1099.67 1263 OFFCURVE",
"1147 1225 CURVE",
"401 220 LINE",
"343.667 274.667 OFFCURVE",
"299.333 343 OFFCURVE",
"268 425 CURVE SMOOTH",
"236.667 507 OFFCURVE",
"221 601.333 OFFCURVE",
"221 708 CURVE SMOOTH"
);
},
{
closed = 1;
nodes = (
"1360 608.667 OFFCURVE",
"1346.33 519.833 OFFCURVE",
"1319 441.5 CURVE SMOOTH",
"1291.67 363.167 OFFCURVE",
"1253 296.667 OFFCURVE",
"1203 242 CURVE SMOOTH",
"1153 187.334 OFFCURVE",
"1093 145.667 OFFCURVE",
"1023 117 CURVE SMOOTH",
"953 88.3335 OFFCURVE",
"875.667 74 OFFCURVE",
"791 74 CURVE SMOOTH",
"724.333 74 OFFCURVE",
"662.5 82.8335 OFFCURVE",
"605.5 100.5 CURVE SMOOTH",
"548.5 118.167 OFFCURVE",
"497 144 OFFCURVE",
"451 178 CURVE",
"1196 1181 LINE",
"1248 1125.67 OFFCURVE",
"1288.33 1058.33 OFFCURVE",
"1317 979 CURVE SMOOTH",
"1345.67 899.667 OFFCURVE",
"1360 809.333 OFFCURVE",
"1360 708 CURVE SMOOTH"
);
}
);
width = 1583;
}
);
leftKerningGroup = C;
rightKerningGroup = O;
unicode = 00D8;
},
{
glyphname = Otilde;
layers = (
{
layerId = "6B32BEBF-3546-47C2-BC97-37B70AAB72D2";
name = Light;
paths = (
{
closed = 1;
nodes = (
"117 0 LINE"
);
},
{
closed = 1;
nodes = (
"1466 816.667 OFFCURVE",
"1449.67 915.5 OFFCURVE",
"1417 1004.5 CURVE SMOOTH",
"1384.33 1093.5 OFFCURVE",
"1338.33 1169.67 OFFCURVE",
"1279 1233 CURVE SMOOTH",
"1219.67 1296.33 OFFCURVE",
"1148.5 1345.17 OFFCURVE",
"1065.5 1379.5 CURVE SMOOTH",
"982.5 1413.83 OFFCURVE",
"891 1431 OFFCURVE",
"791 1431 CURVE SMOOTH",
"691 1431 OFFCURVE",
"599.667 1413.67 OFFCURVE",
"517 1379 CURVE SMOOTH",
"434.333 1344.33 OFFCURVE",
"363.333 1295.5 OFFCURVE",
"304 1232.5 CURVE SMOOTH",
"244.667 1169.5 OFFCURVE",
"198.667 1093.5 OFFCURVE",
"166 1004.5 CURVE SMOOTH",
"133.333 915.5 OFFCURVE",
"117 816.667 OFFCURVE",
"117 708 CURVE SMOOTH",
"117 598.667 OFFCURVE",
"133.333 499.5 OFFCURVE",
"166 410.5 CURVE SMOOTH",
"198.667 321.5 OFFCURVE",
"244.667 245.5 OFFCURVE",
"304 182.5 CURVE SMOOTH",
"363.333 119.5 OFFCURVE",
"434.333 70.8335 OFFCURVE",
"517 36.5001 CURVE SMOOTH",
"599.667 2.16679 OFFCURVE",
"691 -15 OFFCURVE",
"791 -15 CURVE SMOOTH",
"891 -15 OFFCURVE",
"982.5 2.16679 OFFCURVE",
"1065.5 36.5001 CURVE SMOOTH",
"1148.5 70.8335 OFFCURVE",
"1219.67 119.5 OFFCURVE",
"1279 182.5 CURVE SMOOTH",
"1338.33 245.5 OFFCURVE",
"1384.33 321.5 OFFCURVE",
"1417 410.5 CURVE SMOOTH",
"1449.67 499.5 OFFCURVE",
"1466 598.667 OFFCURVE",
"1466 708 CURVE SMOOTH"
);
},
{
closed = 1;
nodes = (
"1360 608.667 OFFCURVE",
"1346.33 519.833 OFFCURVE",
"1319 441.5 CURVE SMOOTH",
"1291.67 363.167 OFFCURVE",
"1253 296.667 OFFCURVE",
"1203 242 CURVE SMOOTH",
"1153 187.334 OFFCURVE",
"1093 145.667 OFFCURVE",
"1023 117 CURVE SMOOTH",
"953 88.3335 OFFCURVE",
"875.667 74 OFFCURVE",
"791 74 CURVE SMOOTH",
"707 74 OFFCURVE",
"630 88.3335 OFFCURVE",
"560 117 CURVE SMOOTH",
"490 145.667 OFFCURVE",
"429.833 187.334 OFFCURVE",
"379.5 242 CURVE SMOOTH",
"329.167 296.667 OFFCURVE",
"290.167 363.167 OFFCURVE",
"262.5 441.5 CURVE SMOOTH",
"234.833 519.833 OFFCURVE",
"221 608.667 OFFCURVE",
"221 708 CURVE SMOOTH",
"221 806.667 OFFCURVE",
"234.833 895.333 OFFCURVE",
"262.5 974 CURVE SMOOTH",
"290.167 1052.67 OFFCURVE",
"329.167 1119.33 OFFCURVE",
"379.5 1174 CURVE SMOOTH",
"429.833 1228.67 OFFCURVE",
"490 1270.5 OFFCURVE",
"560 1299.5 CURVE SMOOTH",
"630 1328.5 OFFCURVE",
"707 1343 OFFCURVE",
"791 1343 CURVE SMOOTH",
"875.667 1343 OFFCURVE",
"953 1328.5 OFFCURVE",
"1023 1299.5 CURVE SMOOTH",
"1093 1270.5 OFFCURVE",
"1153 1228.67 OFFCURVE",
"1203 1174 CURVE SMOOTH",
"1253 1119.33 OFFCURVE",
"1291.67 1052.67 OFFCURVE",
"1319 974 CURVE SMOOTH",
"1346.33 895.333 OFFCURVE",
"1360 806.667 OFFCURVE",
"1360 708 CURVE SMOOTH"
);
},
{
closed = 1;
nodes = (
"900.667 1616 OFFCURVE",
"881.667 1621.83 OFFCURVE",
"863 1633.5 CURVE SMOOTH",
"844.333 1645.17 OFFCURVE",
"824.833 1657.83 OFFCURVE",
"804.5 1671.5 CURVE SMOOTH",
"784.167 1685.17 OFFCURVE",
"763 1697.83 OFFCURVE",
"741 1709.5 CURVE SMOOTH",
"719 1721.17 OFFCURVE",
"695 1727 OFFCURVE",
"669 1727 CURVE SMOOTH",
"645 1727 OFFCURVE",
"623.5 1722.17 OFFCURVE",
"604.5 1712.5 CURVE SMOOTH",
"585.5 1702.83 OFFCURVE",
"569.333 1690 OFFCURVE",
"556 1674 CURVE SMOOTH",
"542.667 1658 OFFCURVE",
"532.5 1639.5 OFFCURVE",
"525.5 1618.5 CURVE SMOOTH",
"518.5 1597.5 OFFCURVE",
"515 1575.67 OFFCURVE",
"515 1553 CURVE",
"576 1553 LINE",
"576.667 1567 OFFCURVE",
"579.333 1580.5 OFFCURVE",
"584 1593.5 CURVE SMOOTH",
"588.667 1606.5 OFFCURVE",
"595.5 1618 OFFCURVE",
"604.5 1628 CURVE SMOOTH",
"613.5 1638 OFFCURVE",
"624.167 1646 OFFCURVE",
"636.5 1652 CURVE SMOOTH",
"648.833 1658 OFFCURVE",
"662.667 1661 OFFCURVE",
"678 1661 CURVE SMOOTH",
"696.667 1661 OFFCURVE",
"715.667 1655.17 OFFCURVE",
"735 1643.5 CURVE SMOOTH",
"754.333 1631.83 OFFCURVE",
"774.167 1619.17 OFFCURVE",
"794.5 1605.5 CURVE SMOOTH",
"814.833 1591.83 OFFCURVE",
"836 1579.17 OFFCURVE",
"858 1567.5 CURVE SMOOTH",
"880 1555.83 OFFCURVE",
"903.667 1550 OFFCURVE",
"929 1550 CURVE SMOOTH",
"953.667 1550 OFFCURVE",
"975.333 1554.67 OFFCURVE",
"994 1564 CURVE SMOOTH",
"1012.67 1573.33 OFFCURVE",
"1028.5 1586 OFFCURVE",
"1041.5 1602 CURVE SMOOTH",
"1054.5 1618 OFFCURVE",
"1064.33 1636.5 OFFCURVE",
"1071 1657.5 CURVE SMOOTH",
"1077.67 1678.5 OFFCURVE",
"1081 1700.67 OFFCURVE",
"1081 1724 CURVE",
"1022 1724 LINE",
"1022 1710 OFFCURVE",
"1019.67 1696.5 OFFCURVE",
"1015 1683.5 CURVE SMOOTH",
"1010.33 1670.5 OFFCURVE",
"1003.67 1659 OFFCURVE",
"995 1649 CURVE SMOOTH",
"986.333 1639 OFFCURVE",
"975.667 1631 OFFCURVE",
"963 1625 CURVE SMOOTH",
"950.333 1619 OFFCURVE",
"936 1616 OFFCURVE",
"920 1616 CURVE SMOOTH"
);
}
);
width = 1583;
}
);
leftKerningGroup = C;
rightKerningGroup = O;
unicode = 00D5;
},
{
glyphname = OE;
layers = (
{
layerId = "6B32BEBF-3546-47C2-BC97-37B70AAB72D2";
name = Light;
paths = (
{
closed = 1;
nodes = (
"2099 1330 LINE",
"2099 1415 LINE",
"1262 1415 LINE",
"1262 1082 LINE",
"1237.33 1136.67 OFFCURVE",
"1207.17 1185.5 OFFCURVE",
"1171.5 1228.5 CURVE SMOOTH",
"1135.83 1271.5 OFFCURVE",
"1095.33 1308 OFFCURVE",
"1050 1338 CURVE SMOOTH",
"1004.67 1368 OFFCURVE",
"954.833 1391 OFFCURVE",
"900.5 1407 CURVE SMOOTH",
"846.167 1423 OFFCURVE",
"788 1431 OFFCURVE",
"726 1431 CURVE SMOOTH",
"636 1431 OFFCURVE",
"553.833 1413.67 OFFCURVE",
"479.5 1379 CURVE SMOOTH",
"405.167 1344.33 OFFCURVE",
"341.334 1295.5 OFFCURVE",
"288 1232.5 CURVE SMOOTH",
"234.667 1169.5 OFFCURVE",
"193.167 1093.5 OFFCURVE",
"163.5 1004.5 CURVE SMOOTH",
"133.834 915.5 OFFCURVE",
"119 816.667 OFFCURVE",
"119 708 CURVE SMOOTH",
"119 598.667 OFFCURVE",
"133.834 499.667 OFFCURVE",
"163.5 411 CURVE SMOOTH",
"193.167 322.333 OFFCURVE",
"234.667 246.5 OFFCURVE",
"288 183.5 CURVE SMOOTH",
"341.333 120.5 OFFCURVE",
"405.167 72 OFFCURVE",
"479.5 38 CURVE SMOOTH",
"553.833 3.99998 OFFCURVE",
"636 -13 OFFCURVE",
"726 -13 CURVE SMOOTH",
"788 -13 OFFCURVE",
"846.167 -5 OFFCURVE",
"900.5 10.5 CURVE SMOOTH",
"954.833 26.1667 OFFCURVE",
"1004.67 48.8333 OFFCURVE",
"1050 78.5 CURVE SMOOTH",
"1095.33 108.167 OFFCURVE",
"1135.83 144.5 OFFCURVE",
"1171.5 187.5 CURVE SMOOTH",
"1207.17 230.5 OFFCURVE",
"1237.33 279.333 OFFCURVE",
"1262 334 CURVE",
"1262 0 LINE",
"2099 0 LINE",
"2100 85 LINE",
"1354 85 LINE",
"1354 675 LINE",
"1974 675 LINE",
"1974 758 LINE",
"1354 758 LINE",
"1354 1330 LINE"
);
},
{
closed = 1;
nodes = (
"1251 608.667 OFFCURVE",
"1238.67 519.667 OFFCURVE",
"1214 441 CURVE SMOOTH",
"1189.33 362.333 OFFCURVE",
"1154.5 295.833 OFFCURVE",
"1109.5 241.5 CURVE SMOOTH",
"1064.5 187.167 OFFCURVE",
"1010.5 145.5 OFFCURVE",
"947.5 116.5 CURVE SMOOTH",
"884.5 87.5 OFFCURVE",
"814.667 73 OFFCURVE",
"738 73 CURVE SMOOTH",
"662 73 OFFCURVE",
"592.333 87.5 OFFCURVE",
"529 116.5 CURVE SMOOTH",
"465.667 145.5 OFFCURVE",
"411.5 187.167 OFFCURVE",
"366.5 241.5 CURVE SMOOTH",
"321.5 295.833 OFFCURVE",
"286.5 362.333 OFFCURVE",
"261.5 441 CURVE SMOOTH",
"236.5 519.667 OFFCURVE",
"224 608.667 OFFCURVE",
"224 708 CURVE SMOOTH",
"224 806.667 OFFCURVE",
"236.5 895.333 OFFCURVE",
"261.5 974 CURVE SMOOTH",
"286.5 1052.67 OFFCURVE",
"321.5 1119.5 OFFCURVE",
"366.5 1174.5 CURVE SMOOTH",
"411.5 1229.5 OFFCURVE",
"465.667 1271.67 OFFCURVE",
"529 1301 CURVE SMOOTH",
"592.333 1330.33 OFFCURVE",
"662 1345 OFFCURVE",
"738 1345 CURVE SMOOTH",
"814.667 1345 OFFCURVE",
"884.5 1330.33 OFFCURVE",
"947.5 1301 CURVE SMOOTH",
"1010.5 1271.67 OFFCURVE",
"1064.5 1229.5 OFFCURVE",
"1109.5 1174.5 CURVE SMOOTH",
"1154.5 1119.5 OFFCURVE",
"1189.33 1052.67 OFFCURVE",
"1214 974 CURVE SMOOTH",
"1238.67 895.333 OFFCURVE",
"1251 806.667 OFFCURVE",
"1251 708 CURVE SMOOTH"
);
}
);
width = 2202;
}
);
leftKerningGroup = C;
rightKerningGroup = E;
unicode = 0152;
},
{
glyphname = P;
layers = (
{
layerId = "6B32BEBF-3546-47C2-BC97-37B70AAB72D2";
name = Light;
paths = (
{
closed = 1;
nodes = (
"312 570 LINE",
"575 570 LINE SMOOTH",
"652.333 570 OFFCURVE",
"722 580.5 OFFCURVE",
"784 601.5 CURVE SMOOTH",
"846 622.5 OFFCURVE",
"898.667 651.833 OFFCURVE",
"942 689.5 CURVE SMOOTH",
"985.333 727.167 OFFCURVE",
"1018.67 772 OFFCURVE",
"1042 824 CURVE SMOOTH",
"1065.33 876 OFFCURVE",
"1077 933 OFFCURVE",
"1077 995 CURVE SMOOTH",
"1077 1129.67 OFFCURVE",
"1034.83 1233.33 OFFCURVE",
"950.5 1306 CURVE SMOOTH",
"866.167 1378.67 OFFCURVE",
"741 1415 OFFCURVE",
"575 1415 CURVE SMOOTH",
"209 1415 LINE",
"209 0 LINE",
"312 0 LINE"
);
},
{
closed = 1;
nodes = (
"312 652 LINE",
"312 1334 LINE",
"575 1334 LINE SMOOTH",
"707.667 1334 OFFCURVE",
"807.333 1304.67 OFFCURVE",
"874 1246 CURVE SMOOTH",
"940.667 1187.33 OFFCURVE",
"974 1103.67 OFFCURVE",
"974 995 CURVE SMOOTH",
"974 945.667 OFFCURVE",
"964.833 900.167 OFFCURVE",
"946.5 858.5 CURVE SMOOTH",
"928.167 816.833 OFFCURVE",
"901.833 780.667 OFFCURVE",
"867.5 750 CURVE SMOOTH",
"833.167 719.333 OFFCURVE",
"791.333 695.333 OFFCURVE",
"742 678 CURVE SMOOTH",
"692.667 660.667 OFFCURVE",
"637 652 OFFCURVE",
"575 652 CURVE SMOOTH"
);
}
);
width = 1156;
}
);
leftKerningGroup = B;
rightKerningGroup = P;
unicode = 0050;
},
{
glyphname = Thorn;
layers = (
{
layerId = "6B32BEBF-3546-47C2-BC97-37B70AAB72D2";
name = Light;
paths = (
{
closed = 1;
nodes = (
"312 286 LINE",
"575 286 LINE SMOOTH",
"652.333 286 OFFCURVE",
"722 296.5 OFFCURVE",
"784 317.5 CURVE SMOOTH",
"846 338.5 OFFCURVE",
"898.667 367.833 OFFCURVE",
"942 405.5 CURVE SMOOTH",
"985.333 443.167 OFFCURVE",
"1018.67 488 OFFCURVE",
"1042 540 CURVE SMOOTH",
"1065.33 592 OFFCURVE",
"1077 649 OFFCURVE",
"1077 711 CURVE SMOOTH",
"1077 845.667 OFFCURVE",
"1034.83 949.333 OFFCURVE",
"950.5 1022 CURVE SMOOTH",
"866.167 1094.67 OFFCURVE",
"741 1131 OFFCURVE",
"575 1131 CURVE SMOOTH",
"312 1131 LINE",
"312 1415 LINE",
"209 1415 LINE",
"209 0 LINE",
"312 0 LINE"
);
},
{
closed = 1;
nodes = (
"312 368 LINE",
"312 1049 LINE",
"575 1049 LINE SMOOTH",
"707.667 1049 OFFCURVE",
"807.333 1019.83 OFFCURVE",
"874 961.5 CURVE SMOOTH",
"940.667 903.167 OFFCURVE",
"974 819.667 OFFCURVE",
"974 711 CURVE SMOOTH",
"974 661.667 OFFCURVE",
"964.833 616.167 OFFCURVE",
"946.5 574.5 CURVE SMOOTH",
"928.167 532.833 OFFCURVE",
"901.833 496.667 OFFCURVE",
"867.5 466 CURVE SMOOTH",
"833.167 435.333 OFFCURVE",
"791.333 411.333 OFFCURVE",
"742 394 CURVE SMOOTH",
"692.667 376.667 OFFCURVE",
"637 368 OFFCURVE",
"575 368 CURVE SMOOTH"
);
}
);
width = 1155;
}
);
leftKerningGroup = B;
rightKerningGroup = Thorn;
unicode = 00DE;
},
{
glyphname = Q;
lastChange = "2014-08-20 03:46:54 -0500";
layers = (
{
layerId = "6B32BEBF-3546-47C2-BC97-37B70AAB72D2";
name = Light;
paths = (
{
closed = 1;
nodes = (
"972 439 LINE",
"1389 -14 LINE",
"1509 -14 LINE",
"1056 482 LINE"
);
},
{
closed = 1;
nodes = (
"1466 816.667 OFFCURVE",
"1449.67 915.5 OFFCURVE",
"1417 1004.5 CURVE SMOOTH",
"1384.33 1093.5 OFFCURVE",
"1338.33 1169.67 OFFCURVE",
"1279 1233 CURVE SMOOTH",
"1219.67 1296.33 OFFCURVE",
"1148.5 1345.17 OFFCURVE",
"1065.5 1379.5 CURVE SMOOTH",
"982.5 1413.83 OFFCURVE",
"891 1431 OFFCURVE",
"791 1431 CURVE SMOOTH",
"691 1431 OFFCURVE",
"599.667 1413.67 OFFCURVE",
"517 1379 CURVE SMOOTH",
"434.333 1344.33 OFFCURVE",
"363.333 1295.5 OFFCURVE",
"304 1232.5 CURVE SMOOTH",
"244.667 1169.5 OFFCURVE",
"198.667 1093.5 OFFCURVE",
"166 1004.5 CURVE SMOOTH",
"133.333 915.5 OFFCURVE",
"117 816.667 OFFCURVE",
"117 708 CURVE SMOOTH",
"117 598.667 OFFCURVE",
"133.333 499.5 OFFCURVE",
"166 410.5 CURVE SMOOTH",
"198.667 321.5 OFFCURVE",
"244.667 245.5 OFFCURVE",
"304 182.5 CURVE SMOOTH",
"363.333 119.5 OFFCURVE",
"434.333 70.834 OFFCURVE",
"517 36.5 CURVE SMOOTH",
"599.667 2.167 OFFCURVE",
"691 -15 OFFCURVE",
"791 -15 CURVE SMOOTH",
"891 -15 OFFCURVE",
"982.5 2.167 OFFCURVE",
"1065.5 36.5 CURVE SMOOTH",
"1148.5 70.834 OFFCURVE",
"1219.67 119.5 OFFCURVE",
"1279 182.5 CURVE SMOOTH",
"1338.33 245.5 OFFCURVE",
"1384.33 321.5 OFFCURVE",
"1417 410.5 CURVE SMOOTH",
"1449.67 499.5 OFFCURVE",
"1466 598.667 OFFCURVE",
"1466 708 CURVE SMOOTH"
);
},
{
closed = 1;
nodes = (
"1360 608.667 OFFCURVE",
"1346.33 519.833 OFFCURVE",
"1319 441.5 CURVE SMOOTH",
"1291.67 363.167 OFFCURVE",
"1253 296.667 OFFCURVE",
"1203 242 CURVE SMOOTH",
"1153 187.334 OFFCURVE",
"1093 145.667 OFFCURVE",
"1023 117 CURVE SMOOTH",
"953 88.334 OFFCURVE",
"875.667 74 OFFCURVE",
"791 74 CURVE SMOOTH",
"707 74 OFFCURVE",
"630 88.334 OFFCURVE",
"560 117 CURVE SMOOTH",
"490 145.667 OFFCURVE",
"429.833 187.334 OFFCURVE",
"379.5 242 CURVE SMOOTH",
"329.167 296.667 OFFCURVE",
"290.167 363.167 OFFCURVE",
"262.5 441.5 CURVE SMOOTH",
"234.833 519.833 OFFCURVE",
"221 608.667 OFFCURVE",
"221 708 CURVE SMOOTH",
"221 806.667 OFFCURVE",
"234.833 895.333 OFFCURVE",
"262.5 974 CURVE SMOOTH",
"290.167 1052.67 OFFCURVE",
"329.167 1119.33 OFFCURVE",
"379.5 1174 CURVE SMOOTH",
"429.833 1228.67 OFFCURVE",
"490 1270.5 OFFCURVE",
"560 1299.5 CURVE SMOOTH",
"630 1328.5 OFFCURVE",
"707 1343 OFFCURVE",
"791 1343 CURVE SMOOTH",
"875.667 1343 OFFCURVE",
"953 1328.5 OFFCURVE",
"1023 1299.5 CURVE SMOOTH",
"1093 1270.5 OFFCURVE",
"1153 1228.67 OFFCURVE",
"1203 1174 CURVE SMOOTH",
"1253 1119.33 OFFCURVE",
"1291.67 1052.67 OFFCURVE",
"1319 974 CURVE SMOOTH",
"1346.33 895.333 OFFCURVE",
"1360 806.667 OFFCURVE",
"1360 708 CURVE SMOOTH"
);
}
);
width = 1583;
}
);
leftKerningGroup = C;
rightKerningGroup = O;
unicode = 0051;
},
{
glyphname = R;
lastChange = "2014-08-20 04:15:28 -0500";
layers = (
{
layerId = "6B32BEBF-3546-47C2-BC97-37B70AAB72D2";
name = Light;
paths = (
{
closed = 1;
nodes = (
"312 640 LINE",
"497 640 LINE SMOOTH",
"511 640 OFFCURVE",
"522.833 639.333 OFFCURVE",
"532.5 638 CURVE SMOOTH",
"542.167 636.667 OFFCURVE",
"550.5 634.5 OFFCURVE",
"557.5 631.5 CURVE SMOOTH",
"564.5 628.5 OFFCURVE",
"570.833 624.333 OFFCURVE",
"576.5 619 CURVE SMOOTH",
"582.167 613.667 OFFCURVE",
"587.667 607.333 OFFCURVE",
"593 600 CURVE",
"1047 26 LINE",
"1053.67 16 OFFCURVE",
"1060.83 9.16673 OFFCURVE",
"1068.5 5.50006 CURVE SMOOTH",
"1076.17 1.83339 OFFCURVE",
"1081 0 OFFCURVE",
"1120 0 CURVE",
"1189 0 LINE",
"698 612 LINE SMOOTH",
"685 629 OFFCURVE",
"671 642 OFFCURVE",
"655 652 CURVE",
"716.333 658.667 OFFCURVE",
"771.833 672.833 OFFCURVE",
"821.5 694.5 CURVE SMOOTH",
"871.167 716.167 OFFCURVE",
"913.5 743.833 OFFCURVE",
"948.5 777.5 CURVE SMOOTH",
"983.5 811.167 OFFCURVE",
"1010.5 850.333 OFFCURVE",
"1029.5 895 CURVE SMOOTH",
"1048.5 939.667 OFFCURVE",
"1058 989 OFFCURVE",
"1058 1043 CURVE SMOOTH",
"1058 1165 OFFCURVE",
"1017.5 1257.5 OFFCURVE",
"936.5 1320.5 CURVE SMOOTH",
"855.5 1383.5 OFFCURVE",
"733.667 1415 OFFCURVE",
"571 1415 CURVE SMOOTH",
"209 1415 LINE",
"209 0 LINE",
"312 0 LINE"
);
},
{
closed = 1;
nodes = (
"312 716 LINE",
"312 1334 LINE",
"571 1334 LINE SMOOTH",
"697 1334 OFFCURVE",
"792.833 1309.67 OFFCURVE",
"858.5 1261 CURVE SMOOTH",
"924.167 1212.33 OFFCURVE",
"957 1137.67 OFFCURVE",
"957 1037 CURVE SMOOTH",
"957 987.667 OFFCURVE",
"948 943.333 OFFCURVE",
"930 904 CURVE SMOOTH",
"912 864.667 OFFCURVE",
"885.833 831 OFFCURVE",
"851.5 803 CURVE SMOOTH",
"817.167 775 OFFCURVE",
"775.167 753.5 OFFCURVE",
"725.5 738.5 CURVE SMOOTH",
"675.833 723.5 OFFCURVE",
"619.667 716 OFFCURVE",
"557 716 CURVE SMOOTH"
);
}
);
width = 1214;
}
);
leftKerningGroup = B;
rightKerningGroup = R;
unicode = 0052;
},
{
glyphname = S;
layers = (
{
layerId = "6B32BEBF-3546-47C2-BC97-37B70AAB72D2";
name = Light;
paths = (
{
closed = 1;
nodes = (
"920 1289 LINE",
"872 1337 OFFCURVE",
"818.833 1372.67 OFFCURVE",
"760.5 1396 CURVE SMOOTH",
"702.167 1419.33 OFFCURVE",
"636.333 1431 OFFCURVE",
"563 1431 CURVE SMOOTH",
"497.667 1431 OFFCURVE",
"439.5 1420.83 OFFCURVE",
"388.5 1400.5 CURVE SMOOTH",
"337.5 1380.17 OFFCURVE",
"294.667 1353.17 OFFCURVE",
"260 1319.5 CURVE SMOOTH",
"225.333 1285.83 OFFCURVE",
"199 1247 OFFCURVE",
"181 1203 CURVE SMOOTH",
"163 1159 OFFCURVE",
"154 1113.33 OFFCURVE",
"154 1066 CURVE SMOOTH",
"154 1005.33 OFFCURVE",
"164.167 954.833 OFFCURVE",
"184.5 914.5 CURVE SMOOTH",
"204.833 874.167 OFFCURVE",
"231.667 840.5 OFFCURVE",
"265 813.5 CURVE SMOOTH",
"298.333 786.5 OFFCURVE",
"336.167 764.333 OFFCURVE",
"378.5 747 CURVE SMOOTH",
"420.833 729.667 OFFCURVE",
"464.333 714 OFFCURVE",
"509 700 CURVE SMOOTH",
"553.667 686 OFFCURVE",
"597.167 671.667 OFFCURVE",
"639.5 657 CURVE SMOOTH",
"681.833 642.333 OFFCURVE",
"719.667 624.167 OFFCURVE",
"753 602.5 CURVE SMOOTH",
"786.333 580.833 OFFCURVE",
"813.167 553.833 OFFCURVE",
"833.5 521.5 CURVE SMOOTH",
"853.833 489.167 OFFCURVE",
"864 448 OFFCURVE",
"864 398 CURVE SMOOTH",
"864 352 OFFCURVE",
"856 308.833 OFFCURVE",
"840 268.5 CURVE SMOOTH",
"824 228.167 OFFCURVE",
"800.833 193.333 OFFCURVE",
"770.5 164 CURVE SMOOTH",
"740.167 134.667 OFFCURVE",
"703 111.5 OFFCURVE",
"659 94.4999 CURVE SMOOTH",
"615 77.4999 OFFCURVE",
"565 68.9999 OFFCURVE",
"509 68.9999 CURVE SMOOTH",
"468.333 68.9999 OFFCURVE",
"432 72.9999 OFFCURVE",
"400 80.9999 CURVE SMOOTH",
"368 88.9999 OFFCURVE",
"339.667 98.8333 OFFCURVE",
"315 110.5 CURVE SMOOTH",
"290.333 122.167 OFFCURVE",
"268.667 134.833 OFFCURVE",
"250 148.5 CURVE SMOOTH",
"231.333 162.167 OFFCURVE",
"215.333 174.833 OFFCURVE",
"202 186.5 CURVE SMOOTH",
"188.667 198.167 OFFCURVE",
"177.333 208 OFFCURVE",
"168 216 CURVE SMOOTH",
"158.667 224 OFFCURVE",
"151 228 OFFCURVE",
"145 228 CURVE SMOOTH",
"134.333 228 OFFCURVE",
"125 223 OFFCURVE",
"117 213 CURVE",
"89 169 LINE",
"139.667 111.667 OFFCURVE",
"198.667 66.4999 OFFCURVE",
"266 33.4999 CURVE SMOOTH",
"333.333 0.499939 OFFCURVE",
"413.667 -16 OFFCURVE",
"507 -16 CURVE SMOOTH",
"579 -16 OFFCURVE",
"643 -5 OFFCURVE",
"699 17.4999 CURVE SMOOTH",
"755 39.8333 OFFCURVE",
"802.333 70.3333 OFFCURVE",
"841 109 CURVE SMOOTH",
"879.667 147.667 OFFCURVE",
"909.167 193.167 OFFCURVE",
"929.5 245.5 CURVE SMOOTH",
"949.833 297.833 OFFCURVE",
"960 353.667 OFFCURVE",
"960 413 CURVE SMOOTH",
"960 471 OFFCURVE",
"949.833 519.5 OFFCURVE",
"929.5 558.5 CURVE SMOOTH",
"909.167 597.5 OFFCURVE",
"882.333 630.333 OFFCURVE",
"849 657 CURVE SMOOTH",
"815.667 683.667 OFFCURVE",
"777.833 705.833 OFFCURVE",
"735.5 723.5 CURVE SMOOTH",
"693.167 741.167 OFFCURVE",
"649.667 757.333 OFFCURVE",
"605 772 CURVE SMOOTH",
"560.333 786.667 OFFCURVE",
"516.833 801.5 OFFCURVE",
"474.5 816.5 CURVE SMOOTH",
"432.167 831.5 OFFCURVE",
"394.333 850 OFFCURVE",
"361 872 CURVE SMOOTH",
"327.667 894 OFFCURVE",
"300.833 920.667 OFFCURVE",
"280.5 952 CURVE SMOOTH",
"260.167 983.333 OFFCURVE",
"250 1023 OFFCURVE",
"250 1071 CURVE SMOOTH",
"250 1107.67 OFFCURVE",
"256.833 1142.67 OFFCURVE",
"270.5 1176 CURVE SMOOTH",
"284.167 1209.33 OFFCURVE",
"304.167 1238.67 OFFCURVE",
"330.5 1264 CURVE SMOOTH",
"356.833 1289.33 OFFCURVE",
"389.5 1309.33 OFFCURVE",
"428.5 1324 CURVE SMOOTH",
"467.5 1338.67 OFFCURVE",
"512.667 1346 OFFCURVE",
"564 1346 CURVE SMOOTH",
"615.333 1346 OFFCURVE",
"658.5 1339.67 OFFCURVE",
"693.5 1327 CURVE SMOOTH",
"728.5 1314.33 OFFCURVE",
"757.667 1300.5 OFFCURVE",
"781 1285.5 CURVE SMOOTH",
"804.333 1270.5 OFFCURVE",
"822.833 1256.83 OFFCURVE",
"836.5 1244.5 CURVE SMOOTH",
"850.167 1232.17 OFFCURVE",
"861.333 1226 OFFCURVE",
"870 1226 CURVE SMOOTH",
"881.333 1226 OFFCURVE",
"890 1231.67 OFFCURVE",
"896 1243 CURVE SMOOTH"
);
}
);
width = 1070;
}
);
leftKerningGroup = S;
rightKerningGroup = S;
unicode = 0053;
},
{
glyphname = T;
layers = (
{
layerId = "6B32BEBF-3546-47C2-BC97-37B70AAB72D2";
name = Light;
paths = (
{
closed = 1;
nodes = (
"1129 1415 LINE",
"29 1415 LINE",
"29 1328 LINE",
"529 1328 LINE",
"529 0 LINE",
"632 0 LINE",
"632 1328 LINE",
"1129 1328 LINE"
);
}
);
width = 1158;
}
);
leftKerningGroup = T;
rightKerningGroup = T;
unicode = 0054;
},
{
glyphname = U;
layers = (
{
layerId = "6B32BEBF-3546-47C2-BC97-37B70AAB72D2";
name = Light;
paths = (
{
closed = 1;
nodes = (
"659 73 OFFCURVE",
"598.167 85 OFFCURVE",
"544.5 109 CURVE SMOOTH",
"490.833 133 OFFCURVE",
"445.5 166 OFFCURVE",
"408.5 208 CURVE SMOOTH",
"371.5 250 OFFCURVE",
"343.167 299.5 OFFCURVE",
"323.5 356.5 CURVE SMOOTH",
"303.833 413.5 OFFCURVE",
"294 475 OFFCURVE",
"294 541 CURVE SMOOTH",
"294 1415 LINE",
"191 1415 LINE",
"191 540 LINE SMOOTH",
"191 462 OFFCURVE",
"203.333 389.167 OFFCURVE",
"228 321.5 CURVE SMOOTH",
"252.667 253.833 OFFCURVE",
"288.167 194.833 OFFCURVE",
"334.5 144.5 CURVE SMOOTH",
"380.833 94.1667 OFFCURVE",
"437.167 54.6667 OFFCURVE",
"503.5 26 CURVE SMOOTH",
"569.833 -3 OFFCURVE",
"644.333 -17 OFFCURVE",
"727 -17 CURVE SMOOTH",
"809.667 -17 OFFCURVE",
"884.167 -3 OFFCURVE",
"950.5 26 CURVE SMOOTH",
"1016.83 54.6667 OFFCURVE",
"1073.17 94.1667 OFFCURVE",
"1119.5 144.5 CURVE SMOOTH",
"1165.83 194.833 OFFCURVE",
"1201.33 253.833 OFFCURVE",
"1226 321.5 CURVE SMOOTH",
"1250.67 389.167 OFFCURVE",
"1263 462 OFFCURVE",
"1263 540 CURVE SMOOTH",
"1263 1415 LINE",
"1161 1415 LINE",
"1161 540 LINE SMOOTH",
"1161 474 OFFCURVE",
"1151.17 412.5 OFFCURVE",
"1131.5 355.5 CURVE SMOOTH",
"1111.83 298.5 OFFCURVE",
"1083.33 249 OFFCURVE",
"1046 207 CURVE SMOOTH",
"1008.67 165 OFFCURVE",
"963.167 132.167 OFFCURVE",
"909.5 108.5 CURVE SMOOTH",
"855.833 84.8333 OFFCURVE",
"795 73 OFFCURVE",
"727 73 CURVE SMOOTH"
);
}
);
width = 1454;
}
);
leftKerningGroup = U;
rightKerningGroup = U;
unicode = 0055;
},
{
glyphname = Uacute;
layers = (
{
layerId = "6B32BEBF-3546-47C2-BC97-37B70AAB72D2";
name = Light;
paths = (
{
closed = 1;
nodes = (
"191 0 LINE"
);
},
{
closed = 1;
nodes = (
"659 73 OFFCURVE",
"598.167 85 OFFCURVE",
"544.5 109 CURVE SMOOTH",
"490.833 133 OFFCURVE",
"445.5 166 OFFCURVE",
"408.5 208 CURVE SMOOTH",
"371.5 250 OFFCURVE",
"343.167 299.5 OFFCURVE",
"323.5 356.5 CURVE SMOOTH",
"303.833 413.5 OFFCURVE",
"294 475 OFFCURVE",
"294 541 CURVE SMOOTH",
"294 1415 LINE",
"191 1415 LINE",
"191 540 LINE SMOOTH",
"191 462 OFFCURVE",
"203.333 389.167 OFFCURVE",
"228 321.5 CURVE SMOOTH",
"252.667 253.833 OFFCURVE",
"288.167 194.833 OFFCURVE",
"334.5 144.5 CURVE SMOOTH",
"380.833 94.1667 OFFCURVE",
"437.167 54.6667 OFFCURVE",
"503.5 26 CURVE SMOOTH",
"569.833 -3 OFFCURVE",
"644.333 -17 OFFCURVE",
"727 -17 CURVE SMOOTH",
"809.667 -17 OFFCURVE",
"884.167 -3 OFFCURVE",
"950.5 26 CURVE SMOOTH",
"1016.83 54.6667 OFFCURVE",
"1073.17 94.1667 OFFCURVE",
"1119.5 144.5 CURVE SMOOTH",
"1165.83 194.833 OFFCURVE",
"1201.33 253.833 OFFCURVE",
"1226 321.5 CURVE SMOOTH",
"1250.67 389.167 OFFCURVE",
"1263 462 OFFCURVE",
"1263 540 CURVE SMOOTH",
"1263 1415 LINE",
"1161 1415 LINE",
"1161 540 LINE SMOOTH",
"1161 474 OFFCURVE",
"1151.17 412.5 OFFCURVE",
"1131.5 355.5 CURVE SMOOTH",
"1111.83 298.5 OFFCURVE",
"1083.33 249 OFFCURVE",
"1046 207 CURVE SMOOTH",
"1008.67 165 OFFCURVE",
"963.167 132.167 OFFCURVE",
"909.5 108.5 CURVE SMOOTH",
"855.833 84.8333 OFFCURVE",
"795 73 OFFCURVE",
"727 73 CURVE SMOOTH"
);
},
{
closed = 1;
nodes = (
"1054 1841 LINE",
"941 1841 LINE SMOOTH",
"925 1841 OFFCURVE",
"912.833 1839.67 OFFCURVE",
"904.5 1837 CURVE SMOOTH",
"896.167 1834.33 OFFCURVE",
"888 1828.33 OFFCURVE",
"880 1819 CURVE",
"622 1542 LINE",
"687 1542 LINE SMOOTH",
"695 1542 OFFCURVE",
"702 1542.67 OFFCURVE",
"708 1544 CURVE SMOOTH",
"714 1545.33 OFFCURVE",
"720 1548.67 OFFCURVE",
"726 1554 CURVE SMOOTH"
);
}
);
width = 1454;
}
);
leftKerningGroup = U;
rightKerningGroup = U;
unicode = 00DA;
},
{
glyphname = Ucircumflex;
layers = (
{
layerId = "6B32BEBF-3546-47C2-BC97-37B70AAB72D2";
name = Light;
paths = (
{
closed = 1;
nodes = (
"191 0 LINE"
);
},
{
closed = 1;
nodes = (
"659 73 OFFCURVE",
"598.167 85 OFFCURVE",
"544.5 109 CURVE SMOOTH",
"490.833 133 OFFCURVE",
"445.5 166 OFFCURVE",
"408.5 208 CURVE SMOOTH",
"371.5 250 OFFCURVE",
"343.167 299.5 OFFCURVE",
"323.5 356.5 CURVE SMOOTH",
"303.833 413.5 OFFCURVE",
"294 475 OFFCURVE",
"294 541 CURVE SMOOTH",
"294 1415 LINE",
"191 1415 LINE",
"191 540 LINE SMOOTH",
"191 462 OFFCURVE",
"203.333 389.167 OFFCURVE",
"228 321.5 CURVE SMOOTH",
"252.667 253.833 OFFCURVE",
"288.167 194.833 OFFCURVE",
"334.5 144.5 CURVE SMOOTH",
"380.833 94.1667 OFFCURVE",
"437.167 54.6667 OFFCURVE",
"503.5 26 CURVE SMOOTH",
"569.833 -3 OFFCURVE",
"644.333 -17 OFFCURVE",
"727 -17 CURVE SMOOTH",
"809.667 -17 OFFCURVE",
"884.167 -3 OFFCURVE",
"950.5 26 CURVE SMOOTH",
"1016.83 54.6667 OFFCURVE",
"1073.17 94.1667 OFFCURVE",
"1119.5 144.5 CURVE SMOOTH",
"1165.83 194.833 OFFCURVE",
"1201.33 253.833 OFFCURVE",
"1226 321.5 CURVE SMOOTH",
"1250.67 389.167 OFFCURVE",
"1263 462 OFFCURVE",
"1263 540 CURVE SMOOTH",
"1263 1415 LINE",
"1161 1415 LINE",
"1161 540 LINE SMOOTH",
"1161 474 OFFCURVE",
"1151.17 412.5 OFFCURVE",
"1131.5 355.5 CURVE SMOOTH",
"1111.83 298.5 OFFCURVE",
"1083.33 249 OFFCURVE",
"1046 207 CURVE SMOOTH",
"1008.67 165 OFFCURVE",
"963.167 132.167 OFFCURVE",
"909.5 108.5 CURVE SMOOTH",
"855.833 84.8333 OFFCURVE",
"795 73 OFFCURVE",
"727 73 CURVE SMOOTH"
);
},
{
closed = 1;
nodes = (
"1004 1542 LINE",
"769 1809 LINE",
"687 1809 LINE",
"452 1542 LINE",
"520 1542 LINE SMOOTH",
"525.333 1542 OFFCURVE",
"531.5 1543 OFFCURVE",
"538.5 1545 CURVE SMOOTH",
"545.5 1547 OFFCURVE",
"552.667 1551.67 OFFCURVE",
"560 1559 CURVE",
"719 1745 LINE",
"720.333 1746.33 OFFCURVE",
"721.5 1748 OFFCURVE",
"722.5 1750 CURVE SMOOTH",
"723.5 1752 OFFCURVE",
"724.667 1753.67 OFFCURVE",
"726 1755 CURVE",
"734 1745 LINE",
"894 1559 LINE",
"901.333 1551.67 OFFCURVE",
"908.333 1547 OFFCURVE",
"915 1545 CURVE SMOOTH",
"921.667 1543 OFFCURVE",
"927.667 1542 OFFCURVE",
"933 1542 CURVE SMOOTH"
);
}
);
width = 1454;
}
);
leftKerningGroup = U;
rightKerningGroup = U;
unicode = 00DB;
},
{
glyphname = Udieresis;
lastChange = "2014-08-20 03:12:13 -0500";
layers = (
{
layerId = "6B32BEBF-3546-47C2-BC97-37B70AAB72D2";
name = Light;
paths = (
{
closed = 1;
nodes = (
"191 0 LINE"
);
},
{
closed = 1;
nodes = (
"659 73 OFFCURVE",
"598.167 85 OFFCURVE",
"544.5 109 CURVE SMOOTH",
"490.833 133 OFFCURVE",
"445.5 166 OFFCURVE",
"408.5 208 CURVE SMOOTH",
"371.5 250 OFFCURVE",
"343.167 299.5 OFFCURVE",
"323.5 356.5 CURVE SMOOTH",
"303.833 413.5 OFFCURVE",
"294 475 OFFCURVE",
"294 541 CURVE SMOOTH",
"294 1415 LINE",
"191 1415 LINE",
"191 540 LINE SMOOTH",
"191 462 OFFCURVE",
"203.333 389.167 OFFCURVE",
"228 321.5 CURVE SMOOTH",
"252.667 253.833 OFFCURVE",
"288.167 194.833 OFFCURVE",
"334.5 144.5 CURVE SMOOTH",
"380.833 94.167 OFFCURVE",
"437.167 54.667 OFFCURVE",
"503.5 26 CURVE SMOOTH",
"569.833 -3 OFFCURVE",
"644.333 -17 OFFCURVE",
"727 -17 CURVE SMOOTH",
"809.667 -17 OFFCURVE",
"884.167 -3 OFFCURVE",
"950.5 26 CURVE SMOOTH",
"1016.83 54.667 OFFCURVE",
"1073.17 94.167 OFFCURVE",
"1119.5 144.5 CURVE SMOOTH",
"1165.83 194.833 OFFCURVE",
"1201.33 253.833 OFFCURVE",
"1226 321.5 CURVE SMOOTH",
"1250.67 389.167 OFFCURVE",
"1263 462 OFFCURVE",
"1263 540 CURVE SMOOTH",
"1263 1415 LINE",
"1161 1415 LINE",
"1161 540 LINE SMOOTH",
"1161 474 OFFCURVE",
"1151.17 412.5 OFFCURVE",
"1131.5 355.5 CURVE SMOOTH",
"1111.83 298.5 OFFCURVE",
"1083.33 249 OFFCURVE",
"1046 207 CURVE SMOOTH",
"1008.67 165 OFFCURVE",
"963.167 132.167 OFFCURVE",
"909.5 108.5 CURVE SMOOTH",
"855.833 84.833 OFFCURVE",
"795 73 OFFCURVE",
"727 73 CURVE SMOOTH"
);
},
{
closed = 1;
nodes = (
"612 1675.67 OFFCURVE",
"609.667 1686 OFFCURVE",
"605 1696 CURVE SMOOTH",
"600.333 1706 OFFCURVE",
"594.333 1714.83 OFFCURVE",
"587 1722.5 CURVE SMOOTH",
"579.667 1730.17 OFFCURVE",
"571 1736.17 OFFCURVE",
"561 1740.5 CURVE SMOOTH",
"551 1744.83 OFFCURVE",
"540.667 1747 OFFCURVE",
"530 1747 CURVE SMOOTH",
"519.333 1747 OFFCURVE",
"509.167 1744.83 OFFCURVE",
"499.5 1740.5 CURVE SMOOTH",
"489.833 1736.17 OFFCURVE",
"481.333 1730.17 OFFCURVE",
"474 1722.5 CURVE SMOOTH",
"466.667 1714.83 OFFCURVE",
"460.833 1706 OFFCURVE",
"456.5 1696 CURVE SMOOTH",
"452.167 1686 OFFCURVE",
"450 1675.67 OFFCURVE",
"450 1665 CURVE SMOOTH",
"450 1654.33 OFFCURVE",
"452.167 1644.17 OFFCURVE",
"456.5 1634.5 CURVE SMOOTH",
"460.833 1624.83 OFFCURVE",
"466.667 1616.5 OFFCURVE",
"474 1609.5 CURVE SMOOTH",
"481.333 1602.5 OFFCURVE",
"489.833 1596.83 OFFCURVE",
"499.5 1592.5 CURVE SMOOTH",
"509.167 1588.17 OFFCURVE",
"519.333 1586 OFFCURVE",
"530 1586 CURVE SMOOTH",
"540.667 1586 OFFCURVE",
"551 1588.17 OFFCURVE",
"561 1592.5 CURVE SMOOTH",
"571 1596.83 OFFCURVE",
"579.667 1602.5 OFFCURVE",
"587 1609.5 CURVE SMOOTH",
"594.333 1616.5 OFFCURVE",
"600.333 1624.83 OFFCURVE",
"605 1634.5 CURVE SMOOTH",
"609.667 1644.17 OFFCURVE",
"612 1654.33 OFFCURVE",
"612 1665 CURVE SMOOTH"
);
},
{
closed = 1;
nodes = (
"1003 1675.67 OFFCURVE",
"1000.83 1686 OFFCURVE",
"996.5 1696 CURVE SMOOTH",
"992.167 1706 OFFCURVE",
"986.167 1714.83 OFFCURVE",
"978.5 1722.5 CURVE SMOOTH",
"970.833 1730.17 OFFCURVE",
"962.167 1736.17 OFFCURVE",
"952.5 1740.5 CURVE SMOOTH",
"942.833 1744.83 OFFCURVE",
"932.667 1747 OFFCURVE",
"922 1747 CURVE SMOOTH",
"900 1747 OFFCURVE",
"881 1738.83 OFFCURVE",
"865 1722.5 CURVE SMOOTH",
"849 1706.17 OFFCURVE",
"841 1687 OFFCURVE",
"841 1665 CURVE SMOOTH",
"841 1654.33 OFFCURVE",
"843.167 1644.17 OFFCURVE",
"847.5 1634.5 CURVE SMOOTH",
"851.833 1624.83 OFFCURVE",
"857.667 1616.5 OFFCURVE",
"865 1609.5 CURVE SMOOTH",
"872.333 1602.5 OFFCURVE",
"880.833 1596.83 OFFCURVE",
"890.5 1592.5 CURVE SMOOTH",
"900.167 1588.17 OFFCURVE",
"910.667 1586 OFFCURVE",
"922 1586 CURVE SMOOTH",
"932.667 1586 OFFCURVE",
"942.833 1588.17 OFFCURVE",
"952.5 1592.5 CURVE SMOOTH",
"962.167 1596.83 OFFCURVE",
"970.833 1602.5 OFFCURVE",
"978.5 1609.5 CURVE SMOOTH",
"986.167 1616.5 OFFCURVE",
"992.167 1624.83 OFFCURVE",
"996.5 1634.5 CURVE SMOOTH",
"1000.83 1644.17 OFFCURVE",
"1003 1654.33 OFFCURVE",
"1003 1665 CURVE SMOOTH"
);
}
);
width = 1454;
}
);
leftKerningGroup = U;
rightKerningGroup = U;
unicode = 00DC;
},
{
glyphname = Ugrave;
layers = (
{
layerId = "6B32BEBF-3546-47C2-BC97-37B70AAB72D2";
name = Light;
paths = (
{
closed = 1;
nodes = (
"191 0 LINE"
);
},
{
closed = 1;
nodes = (
"659 73 OFFCURVE",
"598.167 85 OFFCURVE",
"544.5 109 CURVE SMOOTH",
"490.833 133 OFFCURVE",
"445.5 166 OFFCURVE",
"408.5 208 CURVE SMOOTH",
"371.5 250 OFFCURVE",
"343.167 299.5 OFFCURVE",
"323.5 356.5 CURVE SMOOTH",
"303.833 413.5 OFFCURVE",
"294 475 OFFCURVE",
"294 541 CURVE SMOOTH",
"294 1415 LINE",
"191 1415 LINE",
"191 540 LINE SMOOTH",
"191 462 OFFCURVE",
"203.333 389.167 OFFCURVE",
"228 321.5 CURVE SMOOTH",
"252.667 253.833 OFFCURVE",
"288.167 194.833 OFFCURVE",
"334.5 144.5 CURVE SMOOTH",
"380.833 94.1667 OFFCURVE",
"437.167 54.6667 OFFCURVE",
"503.5 26 CURVE SMOOTH",
"569.833 -3 OFFCURVE",
"644.333 -17 OFFCURVE",
"727 -17 CURVE SMOOTH",
"809.667 -17 OFFCURVE",
"884.167 -3 OFFCURVE",
"950.5 26 CURVE SMOOTH",
"1016.83 54.6667 OFFCURVE",
"1073.17 94.1667 OFFCURVE",
"1119.5 144.5 CURVE SMOOTH",
"1165.83 194.833 OFFCURVE",
"1201.33 253.833 OFFCURVE",
"1226 321.5 CURVE SMOOTH",
"1250.67 389.167 OFFCURVE",
"1263 462 OFFCURVE",
"1263 540 CURVE SMOOTH",
"1263 1415 LINE",
"1161 1415 LINE",
"1161 540 LINE SMOOTH",
"1161 474 OFFCURVE",
"1151.17 412.5 OFFCURVE",
"1131.5 355.5 CURVE SMOOTH",
"1111.83 298.5 OFFCURVE",
"1083.33 249 OFFCURVE",
"1046 207 CURVE SMOOTH",
"1008.67 165 OFFCURVE",
"963.167 132.167 OFFCURVE",
"909.5 108.5 CURVE SMOOTH",
"855.833 84.8333 OFFCURVE",
"795 73 OFFCURVE",
"727 73 CURVE SMOOTH"
);
},
{
closed = 1;
nodes = (
"426 1841 LINE",
"730 1554 LINE SMOOTH",
"736 1548.67 OFFCURVE",
"741.833 1545.33 OFFCURVE",
"747.5 1544 CURVE SMOOTH",
"753.167 1542.67 OFFCURVE",
"760.333 1542 OFFCURVE",
"769 1542 CURVE SMOOTH",
"834 1542 LINE",
"595 1819 LINE",
"587 1829 OFFCURVE",
"578.833 1835.17 OFFCURVE",
"570.5 1837.5 CURVE SMOOTH",
"562.167 1839.83 OFFCURVE",
"550 1841 OFFCURVE",
"534 1841 CURVE SMOOTH"
);
}
);
width = 1454;
}
);
leftKerningGroup = U;
rightKerningGroup = U;
unicode = 00D9;
},
{
glyphname = V;
layers = (
{
layerId = "6B32BEBF-3546-47C2-BC97-37B70AAB72D2";
name = Light;
paths = (
{
closed = 1;
nodes = (
"26 1415 LINE",
"610 0 LINE",
"701 0 LINE",
"1285 1415 LINE",
"1205 1415 LINE SMOOTH",
"1195.67 1415 OFFCURVE",
"1187.67 1412.33 OFFCURVE",
"1181 1407 CURVE SMOOTH",
"1174.33 1401.67 OFFCURVE",
"1169.67 1395.33 OFFCURVE",
"1167 1388 CURVE",
"686 214 LINE SMOOTH",
"680 199.333 OFFCURVE",
"674.5 183.667 OFFCURVE",
"669.5 167 CURVE SMOOTH",
"664.5 150.333 OFFCURVE",
"660 133.333 OFFCURVE",
"656 116 CURVE",
"652 133.333 OFFCURVE",
"647.333 150.333 OFFCURVE",
"642 167 CURVE SMOOTH",
"636.667 183.667 OFFCURVE",
"631.333 199.333 OFFCURVE",
"626 214 CURVE",
"144 1388 LINE SMOOTH",
"140.667 1396 OFFCURVE",
"136 1402.5 OFFCURVE",
"130 1407.5 CURVE SMOOTH",
"124 1412.5 OFFCURVE",
"116.334 1415 OFFCURVE",
"107 1415 CURVE SMOOTH"
);
}
);
width = 1311;
}
);
leftKerningGroup = V;
rightKerningGroup = V;
unicode = 0056;
},
{
glyphname = W;
layers = (
{
layerId = "6B32BEBF-3546-47C2-BC97-37B70AAB72D2";
name = Light;
paths = (
{
closed = 1;
nodes = (
"47 1415 LINE",
"493 0 LINE",
"584 0 LINE",
"1003 1228 LINE SMOOTH",
"1008.33 1244 OFFCURVE",
"1013 1261 OFFCURVE",
"1017 1279 CURVE",
"1021 1261 OFFCURVE",
"1025.67 1244 OFFCURVE",
"1031 1228 CURVE SMOOTH",
"1449 0 LINE",
"1541 0 LINE",
"1986 1415 LINE",
"1908 1415 LINE SMOOTH",
"1898.67 1415 OFFCURVE",
"1890.5 1412.33 OFFCURVE",
"1883.5 1407 CURVE SMOOTH",
"1876.5 1401.67 OFFCURVE",
"1872 1395.33 OFFCURVE",
"1870 1388 CURVE SMOOTH",
"1513 225 LINE",
"1509.67 211.667 OFFCURVE",
"1506.5 197.5 OFFCURVE",
"1503.5 182.5 CURVE SMOOTH",
"1500.5 167.5 OFFCURVE",
"1497.33 152 OFFCURVE",
"1494 136 CURVE",
"1490.67 152.667 OFFCURVE",
"1487.17 168.333 OFFCURVE",
"1483.5 183 CURVE SMOOTH",
"1479.83 197.667 OFFCURVE",
"1475.67 211.667 OFFCURVE",
"1471 225 CURVE SMOOTH",
"1071 1388 LINE",
"1067.67 1396 OFFCURVE",
"1063 1402.5 OFFCURVE",
"1057 1407.5 CURVE SMOOTH",
"1051 1412.5 OFFCURVE",
"1043.33 1415 OFFCURVE",
"1034 1415 CURVE SMOOTH",
"1006 1415 LINE SMOOTH",
"996.667 1415 OFFCURVE",
"988.667 1412.33 OFFCURVE",
"982 1407 CURVE SMOOTH",
"975.333 1401.67 OFFCURVE",
"970.667 1395.33 OFFCURVE",
"968 1388 CURVE SMOOTH",
"568 225 LINE SMOOTH",
"563.333 211.666 OFFCURVE",
"559.333 197.333 OFFCURVE",
"556 182 CURVE SMOOTH",
"552.667 166.666 OFFCURVE",
"549.333 150.666 OFFCURVE",
"546 134 CURVE",
"540 168 OFFCURVE",
"533.333 198.333 OFFCURVE",
"526 225 CURVE SMOOTH",
"169 1388 LINE SMOOTH",
"163.667 1406 OFFCURVE",
"151.333 1415 OFFCURVE",
"132 1415 CURVE SMOOTH"
);
}
);
width = 2034;
}
);
leftKerningGroup = W;
rightKerningGroup = W;
unicode = 0057;
},
{
glyphname = X;
layers = (
{
layerId = "6B32BEBF-3546-47C2-BC97-37B70AAB72D2";
name = Light;
paths = (
{
closed = 1;
nodes = (
"551 726 LINE",
"40 0 LINE",
"136 0 LINE SMOOTH",
"144 0 OFFCURVE",
"150.5 2.66667 OFFCURVE",
"155.5 8 CURVE SMOOTH",
"160.5 13.3333 OFFCURVE",
"165.333 19 OFFCURVE",
"170 25 CURVE",
"608 648 LINE SMOOTH",
"614.667 657.333 OFFCURVE",
"619.333 667 OFFCURVE",
"622 677 CURVE",
"1068 25 LINE",
"1071.33 19.6667 OFFCURVE",
"1075.67 14.1667 OFFCURVE",
"1081 8.5 CURVE SMOOTH",
"1086.33 2.83333 OFFCURVE",
"1093.67 0 OFFCURVE",
"1103 0 CURVE SMOOTH",
"1204 0 LINE",
"695 731 LINE",
"1184 1415 LINE",
"1086 1415 LINE SMOOTH",
"1079.33 1415 OFFCURVE",
"1073.5 1413 OFFCURVE",
"1068.5 1409 CURVE SMOOTH",
"1063.5 1405 OFFCURVE",
"1059.33 1400 OFFCURVE",
"1056 1394 CURVE",
"641 806 LINE",
"637.667 800.667 OFFCURVE",
"634.834 795.5 OFFCURVE",
"632.5 790.5 CURVE SMOOTH",
"630.167 785.5 OFFCURVE",
"628 780.333 OFFCURVE",
"626 775 CURVE",
"196 1395 LINE",
"192.667 1400.33 OFFCURVE",
"188.834 1405 OFFCURVE",
"184.5 1409 CURVE SMOOTH",
"180.167 1413 OFFCURVE",
"173.334 1415 OFFCURVE",
"164 1415 CURVE SMOOTH",
"63 1415 LINE"
);
}
);
width = 1246;
}
);
leftKerningGroup = X;
rightKerningGroup = X;
unicode = 0058;
},
{
glyphname = Y;
layers = (
{
layerId = "6B32BEBF-3546-47C2-BC97-37B70AAB72D2";
name = Light;
paths = (
{
closed = 1;
nodes = (
"646 583 LINE",
"1170 1415 LINE",
"1080 1415 LINE SMOOTH",
"1070.67 1415 OFFCURVE",
"1062.83 1412.67 OFFCURVE",
"1056.5 1408 CURVE SMOOTH",
"1050.17 1403.33 OFFCURVE",
"1045.33 1397.33 OFFCURVE",
"1042 1390 CURVE",
"637 740 LINE",
"628.333 724.667 OFFCURVE",
"620.5 709.833 OFFCURVE",
"613.5 695.5 CURVE SMOOTH",
"606.5 681.167 OFFCURVE",
"600.333 667 OFFCURVE",
"595 653 CURVE",
"589.666 667 OFFCURVE",
"583.5 681.167 OFFCURVE",
"576.5 695.5 CURVE SMOOTH",
"569.5 709.833 OFFCURVE",
"561.666 724.667 OFFCURVE",
"553 740 CURVE",
"148 1390 LINE",
"144 1398 OFFCURVE",
"139 1404.17 OFFCURVE",
"133 1408.5 CURVE SMOOTH",
"127 1412.83 OFFCURVE",
"119.333 1415 OFFCURVE",
"110 1415 CURVE SMOOTH",
"19.9998 1415 LINE",
"544 583 LINE",
"544 0 LINE",
"646 0 LINE"
);
}
);
width = 1190;
}
);
leftKerningGroup = Y;
rightKerningGroup = Y;
unicode = 0059;
},
{
glyphname = Yacute;
layers = (
{
layerId = "6B32BEBF-3546-47C2-BC97-37B70AAB72D2";
name = Light;
paths = (
{
closed = 1;
nodes = (
"20 0 LINE"
);
},
{
closed = 1;
nodes = (
"646 583 LINE",
"1170 1415 LINE",
"1080 1415 LINE SMOOTH",
"1070.67 1415 OFFCURVE",
"1062.83 1412.67 OFFCURVE",
"1056.5 1408 CURVE SMOOTH",
"1050.17 1403.33 OFFCURVE",
"1045.33 1397.33 OFFCURVE",
"1042 1390 CURVE",
"637 740 LINE",
"628.333 724.667 OFFCURVE",
"620.5 709.833 OFFCURVE",
"613.5 695.5 CURVE SMOOTH",
"606.5 681.167 OFFCURVE",
"600.333 667 OFFCURVE",
"595 653 CURVE",
"589.666 667 OFFCURVE",
"583.5 681.167 OFFCURVE",
"576.5 695.5 CURVE SMOOTH",
"569.5 709.833 OFFCURVE",
"561.666 724.667 OFFCURVE",
"553 740 CURVE",
"148 1390 LINE",
"144 1398 OFFCURVE",
"139 1404.17 OFFCURVE",
"133 1408.5 CURVE SMOOTH",
"127 1412.83 OFFCURVE",
"119.333 1415 OFFCURVE",
"110 1415 CURVE SMOOTH",
"19.9998 1415 LINE",
"544 583 LINE",
"544 0 LINE",
"646 0 LINE"
);
},
{
closed = 1;
nodes = (
"923 1841 LINE",
"810 1841 LINE SMOOTH",
"794 1841 OFFCURVE",
"781.833 1839.67 OFFCURVE",
"773.5 1837 CURVE SMOOTH",
"765.166 1834.33 OFFCURVE",
"757 1828.33 OFFCURVE",
"749 1819 CURVE",
"491 1542 LINE",
"556 1542 LINE SMOOTH",
"564 1542 OFFCURVE",
"571 1542.67 OFFCURVE",
"577 1544 CURVE SMOOTH",
"583 1545.33 OFFCURVE",
"589 1548.67 OFFCURVE",
"595 1554 CURVE SMOOTH"
);
}
);
width = 1190;
}
);
leftKerningGroup = Y;
rightKerningGroup = Y;
unicode = 00DD;
},
{
glyphname = Ydieresis;
layers = (
{
layerId = "6B32BEBF-3546-47C2-BC97-37B70AAB72D2";
name = Light;
paths = (
{
closed = 1;
nodes = (
"20 0 LINE"
);
},
{
closed = 1;
nodes = (
"646 583 LINE",
"1170 1415 LINE",
"1080 1415 LINE SMOOTH",
"1070.67 1415 OFFCURVE",
"1062.83 1412.67 OFFCURVE",
"1056.5 1408 CURVE SMOOTH",
"1050.17 1403.33 OFFCURVE",
"1045.33 1397.33 OFFCURVE",
"1042 1390 CURVE",
"637 740 LINE",
"628.333 724.667 OFFCURVE",
"620.5 709.833 OFFCURVE",
"613.5 695.5 CURVE SMOOTH",
"606.5 681.167 OFFCURVE",
"600.333 667 OFFCURVE",
"595 653 CURVE",
"589.666 667 OFFCURVE",
"583.5 681.167 OFFCURVE",
"576.5 695.5 CURVE SMOOTH",
"569.5 709.833 OFFCURVE",
"561.666 724.667 OFFCURVE",
"553 740 CURVE",
"148 1390 LINE",
"144 1398 OFFCURVE",
"139 1404.17 OFFCURVE",
"133 1408.5 CURVE SMOOTH",
"127 1412.83 OFFCURVE",
"119.333 1415 OFFCURVE",
"110 1415 CURVE SMOOTH",
"19.9998 1415 LINE",
"544 583 LINE",
"544 0 LINE",
"646 0 LINE"
);
},
{
closed = 1;
nodes = (
"481 1675.67 OFFCURVE",
"478.666 1686 OFFCURVE",
"474 1696 CURVE SMOOTH",
"469.333 1706 OFFCURVE",
"463.333 1714.83 OFFCURVE",
"456 1722.5 CURVE SMOOTH",
"448.666 1730.17 OFFCURVE",
"440 1736.17 OFFCURVE",
"430 1740.5 CURVE SMOOTH",
"420 1744.83 OFFCURVE",
"409.666 1747 OFFCURVE",
"399 1747 CURVE SMOOTH",
"388.333 1747 OFFCURVE",
"378.166 1744.83 OFFCURVE",
"368.5 1740.5 CURVE SMOOTH",
"358.833 1736.17 OFFCURVE",
"350.333 1730.17 OFFCURVE",
"343 1722.5 CURVE SMOOTH",
"335.666 1714.83 OFFCURVE",
"329.833 1706 OFFCURVE",
"325.5 1696 CURVE SMOOTH",
"321.166 1686 OFFCURVE",
"319 1675.67 OFFCURVE",
"319 1665 CURVE SMOOTH",
"319 1654.33 OFFCURVE",
"321.166 1644.17 OFFCURVE",
"325.5 1634.5 CURVE SMOOTH",
"329.833 1624.83 OFFCURVE",
"335.666 1616.5 OFFCURVE",
"343 1609.5 CURVE SMOOTH",
"350.333 1602.5 OFFCURVE",
"358.833 1596.83 OFFCURVE",
"368.5 1592.5 CURVE SMOOTH",
"378.166 1588.17 OFFCURVE",
"388.333 1586 OFFCURVE",
"399 1586 CURVE SMOOTH",
"409.666 1586 OFFCURVE",
"420 1588.17 OFFCURVE",
"430 1592.5 CURVE SMOOTH",
"440 1596.83 OFFCURVE",
"448.666 1602.5 OFFCURVE",
"456 1609.5 CURVE SMOOTH",
"463.333 1616.5 OFFCURVE",
"469.333 1624.83 OFFCURVE",
"474 1634.5 CURVE SMOOTH",
"478.666 1644.17 OFFCURVE",
"481 1654.33 OFFCURVE",
"481 1665 CURVE SMOOTH"
);
},
{
closed = 1;
nodes = (
"872 1675.67 OFFCURVE",
"869.833 1686 OFFCURVE",
"865.5 1696 CURVE SMOOTH",
"861.166 1706 OFFCURVE",
"855.166 1714.83 OFFCURVE",
"847.5 1722.5 CURVE SMOOTH",
"839.833 1730.17 OFFCURVE",
"831.166 1736.17 OFFCURVE",
"821.5 1740.5 CURVE SMOOTH",
"811.833 1744.83 OFFCURVE",
"801.666 1747 OFFCURVE",
"791 1747 CURVE SMOOTH",
"769 1747 OFFCURVE",
"750 1738.83 OFFCURVE",
"734 1722.5 CURVE SMOOTH",
"718 1706.17 OFFCURVE",
"710 1687 OFFCURVE",
"710 1665 CURVE SMOOTH",
"710 1654.33 OFFCURVE",
"712.166 1644.17 OFFCURVE",
"716.5 1634.5 CURVE SMOOTH",
"720.833 1624.83 OFFCURVE",
"726.666 1616.5 OFFCURVE",
"734 1609.5 CURVE SMOOTH",
"741.333 1602.5 OFFCURVE",
"749.833 1596.83 OFFCURVE",
"759.5 1592.5 CURVE SMOOTH",
"769.166 1588.17 OFFCURVE",
"779.666 1586 OFFCURVE",
"791 1586 CURVE SMOOTH",
"801.666 1586 OFFCURVE",
"811.833 1588.17 OFFCURVE",
"821.5 1592.5 CURVE SMOOTH",
"831.166 1596.83 OFFCURVE",
"839.833 1602.5 OFFCURVE",
"847.5 1609.5 CURVE SMOOTH",
"855.166 1616.5 OFFCURVE",
"861.166 1624.83 OFFCURVE",
"865.5 1634.5 CURVE SMOOTH",
"869.833 1644.17 OFFCURVE",
"872 1654.33 OFFCURVE",
"872 1665 CURVE SMOOTH"
);
}
);
width = 1190;
}
);
leftKerningGroup = Y;
rightKerningGroup = Y;
unicode = 0178;
},
{
glyphname = Z;
layers = (
{
layerId = "6B32BEBF-3546-47C2-BC97-37B70AAB72D2";
name = Light;
paths = (
{
closed = 1;
nodes = (
"1118 1415 LINE",
"95 1415 LINE",
"95 1330 LINE",
"981 1330 LINE",
"81 73 LINE",
"77.6667 67.6667 OFFCURVE",
"74.8333 62.1667 OFFCURVE",
"72.5 56.5 CURVE SMOOTH",
"70.1667 50.8333 OFFCURVE",
"69 44.3333 OFFCURVE",
"69 37 CURVE SMOOTH",
"69 0 LINE",
"1111 0 LINE",
"1111 85 LINE",
"206 85 LINE",
"1104 1339 LINE",
"1113.33 1353.67 OFFCURVE",
"1118 1367.33 OFFCURVE",
"1118 1380 CURVE SMOOTH"
);
}
);
width = 1195;
}
);
leftKerningGroup = Z;
rightKerningGroup = Z;
unicode = 005A;
},
{
glyphname = a;
lastChange = "2014-08-20 03:48:01 -0500";
layers = (
{
layerId = "6B32BEBF-3546-47C2-BC97-37B70AAB72D2";
name = Light;
paths = (
{
closed = 1;
nodes = (
"776 0 LINE",
"814 0 LINE",
"814 648 LINE SMOOTH",
"814 703.333 OFFCURVE",
"807.333 753.5 OFFCURVE",
"794 798.5 CURVE SMOOTH",
"780.667 843.5 OFFCURVE",
"760.833 881.833 OFFCURVE",
"734.5 913.5 CURVE SMOOTH",
"708.167 945.167 OFFCURVE",
"675 969.5 OFFCURVE",
"635 986.5 CURVE SMOOTH",
"595 1003.5 OFFCURVE",
"548.333 1012 OFFCURVE",
"495 1012 CURVE SMOOTH",
"422.333 1012 OFFCURVE",
"357.333 998.667 OFFCURVE",
"300 972 CURVE SMOOTH",
"242.667 945.333 OFFCURVE",
"188 906 OFFCURVE",
"136 854 CURVE",
"153 825 LINE SMOOTH",
"156.333 819.667 OFFCURVE",
"160.333 815.333 OFFCURVE",
"165 812 CURVE SMOOTH",
"169.667 808.667 OFFCURVE",
"175.667 807 OFFCURVE",
"183 807 CURVE SMOOTH",
"193 807 OFFCURVE",
"205.333 813.667 OFFCURVE",
"220 827 CURVE SMOOTH",
"234.667 840.333 OFFCURVE",
"253.667 855 OFFCURVE",
"277 871 CURVE SMOOTH",
"300.333 887 OFFCURVE",
"328.833 901.667 OFFCURVE",
"362.5 915 CURVE SMOOTH",
"396.167 928.333 OFFCURVE",
"437 935 OFFCURVE",
"485 935 CURVE SMOOTH",
"563 935 OFFCURVE",
"621.833 910.167 OFFCURVE",
"661.5 860.5 CURVE SMOOTH",
"701.167 810.833 OFFCURVE",
"721 740 OFFCURVE",
"721 648 CURVE SMOOTH",
"721 578 LINE",
"608 575 OFFCURVE",
"512 566 OFFCURVE",
"432 550 CURVE SMOOTH",
"351 534 OFFCURVE",
"285 513 OFFCURVE",
"234 486 CURVE SMOOTH",
"183 459 OFFCURVE",
"145 428 OFFCURVE",
"121 392 CURVE SMOOTH",
"97 356 OFFCURVE",
"85 317 OFFCURVE",
"85 241 CURVE SMOOTH",
"85 195.667 OFFCURVE",
"92.5001 156.833 OFFCURVE",
"107.5 124.5 CURVE SMOOTH",
"122.5 92.1667 OFFCURVE",
"142.5 65.6667 OFFCURVE",
"167.5 45 CURVE SMOOTH",
"192.5 24.3334 OFFCURVE",
"221 9 OFFCURVE",
"253 -1 CURVE SMOOTH",
"285 -11 OFFCURVE",
"318 -16 OFFCURVE",
"352 -16 CURVE SMOOTH",
"392.667 -16 OFFCURVE",
"430 -12 OFFCURVE",
"464 -4 CURVE SMOOTH",
"498 3.16673 OFFCURVE",
"529.667 14.3334 OFFCURVE",
"559 29 CURVE SMOOTH",
"588.333 43.6667 OFFCURVE",
"616.5 61.6667 OFFCURVE",
"643.5 83 CURVE SMOOTH",
"670.5 104.333 OFFCURVE",
"697.667 128.333 OFFCURVE",
"725 155 CURVE",
"739 28 LINE",
"743.667 9.33339 OFFCURVE",
"741 0 OFFCURVE",
"749 0 CURVE SMOOTH"
);
},
{
closed = 1;
nodes = (
"350 53 OFFCURVE",
"325 56.6667 OFFCURVE",
"301 64 CURVE SMOOTH",
"277 71.3334 OFFCURVE",
"255.833 82.8334 OFFCURVE",
"237.5 98.5001 CURVE SMOOTH",
"219.167 114.167 OFFCURVE",
"204.5 134.167 OFFCURVE",
"193.5 158.5 CURVE SMOOTH",
"182.5 182.833 OFFCURVE",
"177 211.667 OFFCURVE",
"177 245 CURVE SMOOTH",
"177 314 OFFCURVE",
"188 346 OFFCURVE",
"209 374 CURVE SMOOTH",
"230 401 OFFCURVE",
"262 425 OFFCURVE",
"307 445 CURVE SMOOTH",
"351 465 OFFCURVE",
"407 481 OFFCURVE",
"476 493 CURVE SMOOTH",
"545 504 OFFCURVE",
"626 511 OFFCURVE",
"721 514 CURVE",
"721 221 LINE",
"697.667 197 OFFCURVE",
"674 174.667 OFFCURVE",
"650 154 CURVE SMOOTH",
"626 133.333 OFFCURVE",
"600.167 115.5 OFFCURVE",
"572.5 100.5 CURVE SMOOTH",
"544.833 85.5001 OFFCURVE",
"514.833 73.8334 OFFCURVE",
"482.5 65.5001 CURVE SMOOTH",
"450.167 57.1667 OFFCURVE",
"414.667 53 OFFCURVE",
"376 53 CURVE SMOOTH"
);
}
);
width = 968;
}
);
leftKerningGroup = a;
rightKerningGroup = a;
unicode = 0061;
},
{
glyphname = aacute;
lastChange = "2014-08-20 03:48:16 -0500";
layers = (
{
layerId = "6B32BEBF-3546-47C2-BC97-37B70AAB72D2";
name = Light;
paths = (
{
closed = 1;
nodes = (
"701 1431 LINE",
"606 1431 LINE SMOOTH",
"590 1431 OFFCURVE",
"578 1428.67 OFFCURVE",
"570 1424 CURVE SMOOTH",
"562 1419.33 OFFCURVE",
"554.333 1411 OFFCURVE",
"547 1399 CURVE SMOOTH",
"390 1161 LINE",
"447 1161 LINE SMOOTH",
"455 1161 OFFCURVE",
"461.833 1162.17 OFFCURVE",
"467.5 1164.5 CURVE SMOOTH",
"473.167 1166.83 OFFCURVE",
"478.667 1171.33 OFFCURVE",
"484 1178 CURVE SMOOTH"
);
},
{
closed = 1;
nodes = (
"776 0 LINE",
"814 0 LINE",
"814 648 LINE SMOOTH",
"814 703.333 OFFCURVE",
"807.333 753.5 OFFCURVE",
"794 798.5 CURVE SMOOTH",
"780.667 843.5 OFFCURVE",
"760.833 881.833 OFFCURVE",
"734.5 913.5 CURVE SMOOTH",
"708.167 945.167 OFFCURVE",
"675 969.5 OFFCURVE",
"635 986.5 CURVE SMOOTH",
"595 1003.5 OFFCURVE",
"548.333 1012 OFFCURVE",
"495 1012 CURVE SMOOTH",
"422.333 1012 OFFCURVE",
"357.333 998.667 OFFCURVE",
"300 972 CURVE SMOOTH",
"242.667 945.333 OFFCURVE",
"188 906 OFFCURVE",
"136 854 CURVE",
"153 825 LINE SMOOTH",
"156.333 819.667 OFFCURVE",
"160.333 815.333 OFFCURVE",
"165 812 CURVE SMOOTH",
"169.667 808.667 OFFCURVE",
"175.667 807 OFFCURVE",
"183 807 CURVE SMOOTH",
"193 807 OFFCURVE",
"205.333 813.667 OFFCURVE",
"220 827 CURVE SMOOTH",
"234.667 840.333 OFFCURVE",
"253.667 855 OFFCURVE",
"277 871 CURVE SMOOTH",
"300.333 887 OFFCURVE",
"328.833 901.667 OFFCURVE",
"362.5 915 CURVE SMOOTH",
"396.167 928.333 OFFCURVE",
"437 935 OFFCURVE",
"485 935 CURVE SMOOTH",
"563 935 OFFCURVE",
"621.833 910.167 OFFCURVE",
"661.5 860.5 CURVE SMOOTH",
"701.167 810.833 OFFCURVE",
"721 740 OFFCURVE",
"721 648 CURVE SMOOTH",
"721 578 LINE",
"608 575 OFFCURVE",
"512 566 OFFCURVE",
"432 550 CURVE SMOOTH",
"351 534 OFFCURVE",
"285 513 OFFCURVE",
"234 486 CURVE SMOOTH",
"183 459 OFFCURVE",
"145 428 OFFCURVE",
"121 392 CURVE SMOOTH",
"97 356 OFFCURVE",
"85 317 OFFCURVE",
"85 241 CURVE SMOOTH",
"85 195.667 OFFCURVE",
"92.5 156.833 OFFCURVE",
"107.5 124.5 CURVE SMOOTH",
"122.5 92.167 OFFCURVE",
"142.5 65.667 OFFCURVE",
"167.5 45 CURVE SMOOTH",
"192.5 24.333 OFFCURVE",
"221 9 OFFCURVE",
"253 -1 CURVE SMOOTH",
"285 -11 OFFCURVE",
"318 -16 OFFCURVE",
"352 -16 CURVE SMOOTH",
"392.667 -16 OFFCURVE",
"430 -12 OFFCURVE",
"464 -4 CURVE SMOOTH",
"498 3.167 OFFCURVE",
"529.667 14.333 OFFCURVE",
"559 29 CURVE SMOOTH",
"588.333 43.667 OFFCURVE",
"616.5 61.667 OFFCURVE",
"643.5 83 CURVE SMOOTH",
"670.5 104.333 OFFCURVE",
"697.667 128.333 OFFCURVE",
"725 155 CURVE",
"739 28 LINE",
"743.667 9.333 OFFCURVE",
"741 0 OFFCURVE",
"749 0 CURVE SMOOTH"
);
},
{
closed = 1;
nodes = (
"350 53 OFFCURVE",
"325 56.667 OFFCURVE",
"301 64 CURVE SMOOTH",
"277 71.333 OFFCURVE",
"255.833 82.833 OFFCURVE",
"237.5 98.5 CURVE SMOOTH",
"219.167 114.167 OFFCURVE",
"204.5 134.167 OFFCURVE",
"193.5 158.5 CURVE SMOOTH",
"182.5 182.833 OFFCURVE",
"177 211.667 OFFCURVE",
"177 245 CURVE SMOOTH",
"177 314 OFFCURVE",
"188 346 OFFCURVE",
"209 374 CURVE SMOOTH",
"230 401 OFFCURVE",
"262 425 OFFCURVE",
"307 445 CURVE SMOOTH",
"351 465 OFFCURVE",
"407 481 OFFCURVE",
"476 493 CURVE SMOOTH",
"545 504 OFFCURVE",
"626 511 OFFCURVE",
"721 514 CURVE",
"721 221 LINE",
"697.667 197 OFFCURVE",
"674 174.667 OFFCURVE",
"650 154 CURVE SMOOTH",
"626 133.333 OFFCURVE",
"600.167 115.5 OFFCURVE",
"572.5 100.5 CURVE SMOOTH",
"544.833 85.5 OFFCURVE",
"514.833 73.833 OFFCURVE",
"482.5 65.5 CURVE SMOOTH",
"450.167 57.167 OFFCURVE",
"414.667 53 OFFCURVE",
"376 53 CURVE SMOOTH"
);
}
);
width = 968;
}
);
leftKerningGroup = a;
rightKerningGroup = a;
unicode = 00E1;
},
{
glyphname = acircumflex;
lastChange = "2014-08-20 03:48:24 -0500";
layers = (
{
layerId = "6B32BEBF-3546-47C2-BC97-37B70AAB72D2";
name = Light;
paths = (
{
closed = 1;
nodes = (
"736 1169 LINE",
"518 1415 LINE",
"433 1415 LINE",
"216 1169 LINE",
"283 1169 LINE SMOOTH",
"288.333 1169 OFFCURVE",
"293.5 1170.33 OFFCURVE",
"298.5 1173 CURVE SMOOTH",
"303.5 1175.67 OFFCURVE",
"308 1179 OFFCURVE",
"312 1183 CURVE",
"466 1349 LINE",
"477 1361 LINE",
"479.667 1356.33 OFFCURVE",
"483.333 1352.33 OFFCURVE",
"488 1349 CURVE",
"642 1183 LINE",
"651.333 1173.67 OFFCURVE",
"661 1169 OFFCURVE",
"671 1169 CURVE SMOOTH"
);
},
{
closed = 1;
nodes = (
"776 0 LINE",
"814 0 LINE",
"814 648 LINE SMOOTH",
"814 703.333 OFFCURVE",
"807.333 753.5 OFFCURVE",
"794 798.5 CURVE SMOOTH",
"780.667 843.5 OFFCURVE",
"760.833 881.833 OFFCURVE",
"734.5 913.5 CURVE SMOOTH",
"708.167 945.167 OFFCURVE",
"675 969.5 OFFCURVE",
"635 986.5 CURVE SMOOTH",
"595 1003.5 OFFCURVE",
"548.333 1012 OFFCURVE",
"495 1012 CURVE SMOOTH",
"422.333 1012 OFFCURVE",
"357.333 998.667 OFFCURVE",
"300 972 CURVE SMOOTH",
"242.667 945.333 OFFCURVE",
"188 906 OFFCURVE",
"136 854 CURVE",
"153 825 LINE SMOOTH",
"156.333 819.667 OFFCURVE",
"160.333 815.333 OFFCURVE",
"165 812 CURVE SMOOTH",
"169.667 808.667 OFFCURVE",
"175.667 807 OFFCURVE",
"183 807 CURVE SMOOTH",
"193 807 OFFCURVE",
"205.333 813.667 OFFCURVE",
"220 827 CURVE SMOOTH",
"234.667 840.333 OFFCURVE",
"253.667 855 OFFCURVE",
"277 871 CURVE SMOOTH",
"300.333 887 OFFCURVE",
"328.833 901.667 OFFCURVE",
"362.5 915 CURVE SMOOTH",
"396.167 928.333 OFFCURVE",
"437 935 OFFCURVE",
"485 935 CURVE SMOOTH",
"563 935 OFFCURVE",
"621.833 910.167 OFFCURVE",
"661.5 860.5 CURVE SMOOTH",
"701.167 810.833 OFFCURVE",
"721 740 OFFCURVE",
"721 648 CURVE SMOOTH",
"721 578 LINE",
"608 575 OFFCURVE",
"512 566 OFFCURVE",
"432 550 CURVE SMOOTH",
"351 534 OFFCURVE",
"285 513 OFFCURVE",
"234 486 CURVE SMOOTH",
"183 459 OFFCURVE",
"145 428 OFFCURVE",
"121 392 CURVE SMOOTH",
"97 356 OFFCURVE",
"85 317 OFFCURVE",
"85 241 CURVE SMOOTH",
"85 195.667 OFFCURVE",
"92.5 156.833 OFFCURVE",
"107.5 124.5 CURVE SMOOTH",
"122.5 92.167 OFFCURVE",
"142.5 65.667 OFFCURVE",
"167.5 45 CURVE SMOOTH",
"192.5 24.333 OFFCURVE",
"221 9 OFFCURVE",
"253 -1 CURVE SMOOTH",
"285 -11 OFFCURVE",
"318 -16 OFFCURVE",
"352 -16 CURVE SMOOTH",
"392.667 -16 OFFCURVE",
"430 -12 OFFCURVE",
"464 -4 CURVE SMOOTH",
"498 3.167 OFFCURVE",
"529.667 14.333 OFFCURVE",
"559 29 CURVE SMOOTH",
"588.333 43.667 OFFCURVE",
"616.5 61.667 OFFCURVE",
"643.5 83 CURVE SMOOTH",
"670.5 104.333 OFFCURVE",
"697.667 128.333 OFFCURVE",
"725 155 CURVE",
"739 28 LINE",
"743.667 9.333 OFFCURVE",
"741 0 OFFCURVE",
"749 0 CURVE SMOOTH"
);
},
{
closed = 1;
nodes = (
"350 53 OFFCURVE",
"325 56.667 OFFCURVE",
"301 64 CURVE SMOOTH",
"277 71.333 OFFCURVE",
"255.833 82.833 OFFCURVE",
"237.5 98.5 CURVE SMOOTH",
"219.167 114.167 OFFCURVE",
"204.5 134.167 OFFCURVE",
"193.5 158.5 CURVE SMOOTH",
"182.5 182.833 OFFCURVE",
"177 211.667 OFFCURVE",
"177 245 CURVE SMOOTH",
"177 314 OFFCURVE",
"188 346 OFFCURVE",
"209 374 CURVE SMOOTH",
"230 401 OFFCURVE",
"262 425 OFFCURVE",
"307 445 CURVE SMOOTH",
"351 465 OFFCURVE",
"407 481 OFFCURVE",
"476 493 CURVE SMOOTH",
"545 504 OFFCURVE",
"626 511 OFFCURVE",
"721 514 CURVE",
"721 221 LINE",
"697.667 197 OFFCURVE",
"674 174.667 OFFCURVE",
"650 154 CURVE SMOOTH",
"626 133.333 OFFCURVE",
"600.167 115.5 OFFCURVE",
"572.5 100.5 CURVE SMOOTH",
"544.833 85.5 OFFCURVE",
"514.833 73.833 OFFCURVE",
"482.5 65.5 CURVE SMOOTH",
"450.167 57.167 OFFCURVE",
"414.667 53 OFFCURVE",
"376 53 CURVE SMOOTH"
);
}
);
width = 968;
}
);
leftKerningGroup = a;
rightKerningGroup = a;
unicode = 00E2;
},
{
glyphname = adieresis;
lastChange = "2014-08-20 03:48:33 -0500";
layers = (
{
layerId = "6B32BEBF-3546-47C2-BC97-37B70AAB72D2";
name = Light;
paths = (
{
closed = 1;
nodes = (
"382 1295.33 OFFCURVE",
"379.667 1306 OFFCURVE",
"375 1316 CURVE SMOOTH",
"370.333 1326 OFFCURVE",
"364.167 1334.83 OFFCURVE",
"356.5 1342.5 CURVE SMOOTH",
"348.833 1350.17 OFFCURVE",
"340 1356.17 OFFCURVE",
"330 1360.5 CURVE SMOOTH",
"320 1364.83 OFFCURVE",
"309.667 1367 OFFCURVE",
"299 1367 CURVE SMOOTH",
"287.667 1367 OFFCURVE",
"277.167 1364.83 OFFCURVE",
"267.5 1360.5 CURVE SMOOTH",
"257.833 1356.17 OFFCURVE",
"249.167 1350.17 OFFCURVE",
"241.5 1342.5 CURVE SMOOTH",
"233.833 1334.83 OFFCURVE",
"227.833 1326 OFFCURVE",
"223.5 1316 CURVE SMOOTH",
"219.167 1306 OFFCURVE",
"217 1295.33 OFFCURVE",
"217 1284 CURVE SMOOTH",
"217 1273.33 OFFCURVE",
"219.167 1263.17 OFFCURVE",
"223.5 1253.5 CURVE SMOOTH",
"227.833 1243.83 OFFCURVE",
"233.833 1235.33 OFFCURVE",
"241.5 1228 CURVE SMOOTH",
"249.167 1220.67 OFFCURVE",
"257.833 1214.83 OFFCURVE",
"267.5 1210.5 CURVE SMOOTH",
"277.167 1206.17 OFFCURVE",
"287.667 1204 OFFCURVE",
"299 1204 CURVE SMOOTH",
"309.667 1204 OFFCURVE",
"320 1206.17 OFFCURVE",
"330 1210.5 CURVE SMOOTH",
"340 1214.83 OFFCURVE",
"348.833 1220.67 OFFCURVE",
"356.5 1228 CURVE SMOOTH",
"364.167 1235.33 OFFCURVE",
"370.333 1243.83 OFFCURVE",
"375 1253.5 CURVE SMOOTH",
"379.667 1263.17 OFFCURVE",
"382 1273.33 OFFCURVE",
"382 1284 CURVE SMOOTH"
);
},
{
closed = 1;
nodes = (
"734 1295.33 OFFCURVE",
"731.667 1306 OFFCURVE",
"727 1316 CURVE SMOOTH",
"722.333 1326 OFFCURVE",
"716.333 1334.83 OFFCURVE",
"709 1342.5 CURVE SMOOTH",
"701.667 1350.17 OFFCURVE",
"693 1356.17 OFFCURVE",
"683 1360.5 CURVE SMOOTH",
"673 1364.83 OFFCURVE",
"662.667 1367 OFFCURVE",
"652 1367 CURVE SMOOTH",
"629.333 1367 OFFCURVE",
"610 1358.83 OFFCURVE",
"594 1342.5 CURVE SMOOTH",
"578 1326.17 OFFCURVE",
"570 1306.67 OFFCURVE",
"570 1284 CURVE SMOOTH",
"570 1273.33 OFFCURVE",
"572.167 1263.17 OFFCURVE",
"576.5 1253.5 CURVE SMOOTH",
"580.833 1243.83 OFFCURVE",
"586.667 1235.33 OFFCURVE",
"594 1228 CURVE SMOOTH",
"601.333 1220.67 OFFCURVE",
"610 1214.83 OFFCURVE",
"620 1210.5 CURVE SMOOTH",
"630 1206.17 OFFCURVE",
"640.667 1204 OFFCURVE",
"652 1204 CURVE SMOOTH",
"662.667 1204 OFFCURVE",
"673 1206.17 OFFCURVE",
"683 1210.5 CURVE SMOOTH",
"693 1214.83 OFFCURVE",
"701.667 1220.67 OFFCURVE",
"709 1228 CURVE SMOOTH",
"716.333 1235.33 OFFCURVE",
"722.333 1243.83 OFFCURVE",
"727 1253.5 CURVE SMOOTH",
"731.667 1263.17 OFFCURVE",
"734 1273.33 OFFCURVE",
"734 1284 CURVE SMOOTH"
);
},
{
closed = 1;
nodes = (
"776 0 LINE",
"814 0 LINE",
"814 648 LINE SMOOTH",
"814 703.333 OFFCURVE",
"807.333 753.5 OFFCURVE",
"794 798.5 CURVE SMOOTH",
"780.667 843.5 OFFCURVE",
"760.833 881.833 OFFCURVE",
"734.5 913.5 CURVE SMOOTH",
"708.167 945.167 OFFCURVE",
"675 969.5 OFFCURVE",
"635 986.5 CURVE SMOOTH",
"595 1003.5 OFFCURVE",
"548.333 1012 OFFCURVE",
"495 1012 CURVE SMOOTH",
"422.333 1012 OFFCURVE",
"357.333 998.667 OFFCURVE",
"300 972 CURVE SMOOTH",
"242.667 945.333 OFFCURVE",
"188 906 OFFCURVE",
"136 854 CURVE",
"153 825 LINE SMOOTH",
"156.333 819.667 OFFCURVE",
"160.333 815.333 OFFCURVE",
"165 812 CURVE SMOOTH",
"169.667 808.667 OFFCURVE",
"175.667 807 OFFCURVE",
"183 807 CURVE SMOOTH",
"193 807 OFFCURVE",
"205.333 813.667 OFFCURVE",
"220 827 CURVE SMOOTH",
"234.667 840.333 OFFCURVE",
"253.667 855 OFFCURVE",
"277 871 CURVE SMOOTH",
"300.333 887 OFFCURVE",
"328.833 901.667 OFFCURVE",
"362.5 915 CURVE SMOOTH",
"396.167 928.333 OFFCURVE",
"437 935 OFFCURVE",
"485 935 CURVE SMOOTH",
"563 935 OFFCURVE",
"621.833 910.167 OFFCURVE",
"661.5 860.5 CURVE SMOOTH",
"701.167 810.833 OFFCURVE",
"721 740 OFFCURVE",
"721 648 CURVE SMOOTH",
"721 578 LINE",
"608 575 OFFCURVE",
"512 566 OFFCURVE",
"432 550 CURVE SMOOTH",
"351 534 OFFCURVE",
"285 513 OFFCURVE",
"234 486 CURVE SMOOTH",
"183 459 OFFCURVE",
"145 428 OFFCURVE",
"121 392 CURVE SMOOTH",
"97 356 OFFCURVE",
"85 317 OFFCURVE",
"85 241 CURVE SMOOTH",
"85 195.667 OFFCURVE",
"92.5 156.833 OFFCURVE",
"107.5 124.5 CURVE SMOOTH",
"122.5 92.167 OFFCURVE",
"142.5 65.667 OFFCURVE",
"167.5 45 CURVE SMOOTH",
"192.5 24.333 OFFCURVE",
"221 9 OFFCURVE",
"253 -1 CURVE SMOOTH",
"285 -11 OFFCURVE",
"318 -16 OFFCURVE",
"352 -16 CURVE SMOOTH",
"392.667 -16 OFFCURVE",
"430 -12 OFFCURVE",
"464 -4 CURVE SMOOTH",
"498 3.167 OFFCURVE",
"529.667 14.333 OFFCURVE",
"559 29 CURVE SMOOTH",
"588.333 43.667 OFFCURVE",
"616.5 61.667 OFFCURVE",
"643.5 83 CURVE SMOOTH",
"670.5 104.333 OFFCURVE",
"697.667 128.333 OFFCURVE",
"725 155 CURVE",
"739 28 LINE",
"743.667 9.333 OFFCURVE",
"741 0 OFFCURVE",
"749 0 CURVE SMOOTH"
);
},
{
closed = 1;
nodes = (
"350 53 OFFCURVE",
"325 56.667 OFFCURVE",
"301 64 CURVE SMOOTH",
"277 71.333 OFFCURVE",
"255.833 82.833 OFFCURVE",
"237.5 98.5 CURVE SMOOTH",
"219.167 114.167 OFFCURVE",
"204.5 134.167 OFFCURVE",
"193.5 158.5 CURVE SMOOTH",
"182.5 182.833 OFFCURVE",
"177 211.667 OFFCURVE",
"177 245 CURVE SMOOTH",
"177 314 OFFCURVE",
"188 346 OFFCURVE",
"209 374 CURVE SMOOTH",
"230 401 OFFCURVE",
"262 425 OFFCURVE",
"307 445 CURVE SMOOTH",
"351 465 OFFCURVE",
"407 481 OFFCURVE",
"476 493 CURVE SMOOTH",
"545 504 OFFCURVE",
"626 511 OFFCURVE",
"721 514 CURVE",
"721 221 LINE",
"697.667 197 OFFCURVE",
"674 174.667 OFFCURVE",
"650 154 CURVE SMOOTH",
"626 133.333 OFFCURVE",
"600.167 115.5 OFFCURVE",
"572.5 100.5 CURVE SMOOTH",
"544.833 85.5 OFFCURVE",
"514.833 73.833 OFFCURVE",
"482.5 65.5 CURVE SMOOTH",
"450.167 57.167 OFFCURVE",
"414.667 53 OFFCURVE",
"376 53 CURVE SMOOTH"
);
}
);
width = 968;
}
);
leftKerningGroup = a;
rightKerningGroup = a;
unicode = 00E4;
},
{
glyphname = agrave;
lastChange = "2014-08-20 03:48:41 -0500";
layers = (
{
layerId = "6B32BEBF-3546-47C2-BC97-37B70AAB72D2";
name = Light;
paths = (
{
closed = 1;
nodes = (
"270 1431 LINE",
"486 1178 LINE SMOOTH",
"491.333 1171.33 OFFCURVE",
"496.833 1166.83 OFFCURVE",
"502.5 1164.5 CURVE SMOOTH",
"508.167 1162.17 OFFCURVE",
"515 1161 OFFCURVE",
"523 1161 CURVE SMOOTH",
"578 1161 LINE",
"421 1399 LINE SMOOTH",
"413.667 1411 OFFCURVE",
"406 1419.33 OFFCURVE",
"398 1424 CURVE SMOOTH",
"390 1428.67 OFFCURVE",
"378 1431 OFFCURVE",
"362 1431 CURVE SMOOTH"
);
},
{
closed = 1;
nodes = (
"776 0 LINE",
"814 0 LINE",
"814 648 LINE SMOOTH",
"814 703.333 OFFCURVE",
"807.333 753.5 OFFCURVE",
"794 798.5 CURVE SMOOTH",
"780.667 843.5 OFFCURVE",
"760.833 881.833 OFFCURVE",
"734.5 913.5 CURVE SMOOTH",
"708.167 945.167 OFFCURVE",
"675 969.5 OFFCURVE",
"635 986.5 CURVE SMOOTH",
"595 1003.5 OFFCURVE",
"548.333 1012 OFFCURVE",
"495 1012 CURVE SMOOTH",
"422.333 1012 OFFCURVE",
"357.333 998.667 OFFCURVE",
"300 972 CURVE SMOOTH",
"242.667 945.333 OFFCURVE",
"188 906 OFFCURVE",
"136 854 CURVE",
"153 825 LINE SMOOTH",
"156.333 819.667 OFFCURVE",
"160.333 815.333 OFFCURVE",
"165 812 CURVE SMOOTH",
"169.667 808.667 OFFCURVE",
"175.667 807 OFFCURVE",
"183 807 CURVE SMOOTH",
"193 807 OFFCURVE",
"205.333 813.667 OFFCURVE",
"220 827 CURVE SMOOTH",
"234.667 840.333 OFFCURVE",
"253.667 855 OFFCURVE",
"277 871 CURVE SMOOTH",
"300.333 887 OFFCURVE",
"328.833 901.667 OFFCURVE",
"362.5 915 CURVE SMOOTH",
"396.167 928.333 OFFCURVE",
"437 935 OFFCURVE",
"485 935 CURVE SMOOTH",
"563 935 OFFCURVE",
"621.833 910.167 OFFCURVE",
"661.5 860.5 CURVE SMOOTH",
"701.167 810.833 OFFCURVE",
"721 740 OFFCURVE",
"721 648 CURVE SMOOTH",
"721 578 LINE",
"608 575 OFFCURVE",
"512 566 OFFCURVE",
"432 550 CURVE SMOOTH",
"351 534 OFFCURVE",
"285 513 OFFCURVE",
"234 486 CURVE SMOOTH",
"183 459 OFFCURVE",
"145 428 OFFCURVE",
"121 392 CURVE SMOOTH",
"97 356 OFFCURVE",
"85 317 OFFCURVE",
"85 241 CURVE SMOOTH",
"85 195.667 OFFCURVE",
"92.5 156.833 OFFCURVE",
"107.5 124.5 CURVE SMOOTH",
"122.5 92.167 OFFCURVE",
"142.5 65.667 OFFCURVE",
"167.5 45 CURVE SMOOTH",
"192.5 24.333 OFFCURVE",
"221 9 OFFCURVE",
"253 -1 CURVE SMOOTH",
"285 -11 OFFCURVE",
"318 -16 OFFCURVE",
"352 -16 CURVE SMOOTH",
"392.667 -16 OFFCURVE",
"430 -12 OFFCURVE",
"464 -4 CURVE SMOOTH",
"498 3.167 OFFCURVE",
"529.667 14.333 OFFCURVE",
"559 29 CURVE SMOOTH",
"588.333 43.667 OFFCURVE",
"616.5 61.667 OFFCURVE",
"643.5 83 CURVE SMOOTH",
"670.5 104.333 OFFCURVE",
"697.667 128.333 OFFCURVE",
"725 155 CURVE",
"739 28 LINE",
"743.667 9.333 OFFCURVE",
"741 0 OFFCURVE",
"749 0 CURVE SMOOTH"
);
},
{
closed = 1;
nodes = (
"350 53 OFFCURVE",
"325 56.667 OFFCURVE",
"301 64 CURVE SMOOTH",
"277 71.333 OFFCURVE",
"255.833 82.833 OFFCURVE",
"237.5 98.5 CURVE SMOOTH",
"219.167 114.167 OFFCURVE",
"204.5 134.167 OFFCURVE",
"193.5 158.5 CURVE SMOOTH",
"182.5 182.833 OFFCURVE",
"177 211.667 OFFCURVE",
"177 245 CURVE SMOOTH",
"177 314 OFFCURVE",
"188 346 OFFCURVE",
"209 374 CURVE SMOOTH",
"230 401 OFFCURVE",
"262 425 OFFCURVE",
"307 445 CURVE SMOOTH",
"351 465 OFFCURVE",
"407 481 OFFCURVE",
"476 493 CURVE SMOOTH",
"545 504 OFFCURVE",
"626 511 OFFCURVE",
"721 514 CURVE",
"721 221 LINE",
"697.667 197 OFFCURVE",
"674 174.667 OFFCURVE",
"650 154 CURVE SMOOTH",
"626 133.333 OFFCURVE",
"600.167 115.5 OFFCURVE",
"572.5 100.5 CURVE SMOOTH",
"544.833 85.5 OFFCURVE",
"514.833 73.833 OFFCURVE",
"482.5 65.5 CURVE SMOOTH",
"450.167 57.167 OFFCURVE",
"414.667 53 OFFCURVE",
"376 53 CURVE SMOOTH"
);
}
);
width = 968;
}
);
leftKerningGroup = a;
rightKerningGroup = a;
unicode = 00E0;
},
{
glyphname = aring;
lastChange = "2014-08-20 03:48:47 -0500";
layers = (
{
layerId = "6B32BEBF-3546-47C2-BC97-37B70AAB72D2";
name = Light;
paths = (
{
closed = 1;
nodes = (
"304 1278 OFFCURVE",
"308.5 1256.17 OFFCURVE",
"317.5 1236.5 CURVE SMOOTH",
"326.5 1216.83 OFFCURVE",
"338.833 1199.67 OFFCURVE",
"354.5 1185 CURVE SMOOTH",
"370.167 1170.33 OFFCURVE",
"388.333 1159 OFFCURVE",
"409 1151 CURVE SMOOTH",
"429.667 1143 OFFCURVE",
"451.667 1139 OFFCURVE",
"475 1139 CURVE SMOOTH",
"499 1139 OFFCURVE",
"521.5 1143 OFFCURVE",
"542.5 1151 CURVE SMOOTH",
"563.5 1159 OFFCURVE",
"581.833 1170.33 OFFCURVE",
"597.5 1185 CURVE SMOOTH",
"613.167 1199.67 OFFCURVE",
"625.5 1216.83 OFFCURVE",
"634.5 1236.5 CURVE SMOOTH",
"643.5 1256.17 OFFCURVE",
"648 1278 OFFCURVE",
"648 1302 CURVE SMOOTH",
"648 1326 OFFCURVE",
"643.5 1348 OFFCURVE",
"634.5 1368 CURVE SMOOTH",
"625.5 1388 OFFCURVE",
"613.167 1405.17 OFFCURVE",
"597.5 1419.5 CURVE SMOOTH",
"581.833 1433.83 OFFCURVE",
"563.5 1445.17 OFFCURVE",
"542.5 1453.5 CURVE SMOOTH",
"521.5 1461.83 OFFCURVE",
"499 1466 OFFCURVE",
"475 1466 CURVE SMOOTH",
"451.667 1466 OFFCURVE",
"429.667 1461.83 OFFCURVE",
"409 1453.5 CURVE SMOOTH",
"388.333 1445.17 OFFCURVE",
"370.167 1433.83 OFFCURVE",
"354.5 1419.5 CURVE SMOOTH",
"338.833 1405.17 OFFCURVE",
"326.5 1388 OFFCURVE",
"317.5 1368 CURVE SMOOTH",
"308.5 1348 OFFCURVE",
"304 1326 OFFCURVE",
"304 1302 CURVE SMOOTH"
);
},
{
closed = 1;
nodes = (
"362 1335.33 OFFCURVE",
"372.5 1362.67 OFFCURVE",
"393.5 1384 CURVE SMOOTH",
"414.5 1405.33 OFFCURVE",
"442 1416 OFFCURVE",
"476 1416 CURVE SMOOTH",
"509.333 1416 OFFCURVE",
"536.667 1405.33 OFFCURVE",
"558 1384 CURVE SMOOTH",
"579.333 1362.67 OFFCURVE",
"590 1335.33 OFFCURVE",
"590 1302 CURVE SMOOTH",
"590 1268.67 OFFCURVE",
"579.333 1241.33 OFFCURVE",
"558 1220 CURVE SMOOTH",
"536.667 1198.67 OFFCURVE",
"509.333 1188 OFFCURVE",
"476 1188 CURVE SMOOTH",
"442 1188 OFFCURVE",
"414.5 1198.67 OFFCURVE",
"393.5 1220 CURVE SMOOTH",
"372.5 1241.33 OFFCURVE",
"362 1268.67 OFFCURVE",
"362 1302 CURVE SMOOTH"
);
},
{
closed = 1;
nodes = (
"776 0 LINE",
"814 0 LINE",
"814 648 LINE SMOOTH",
"814 703.333 OFFCURVE",
"807.333 753.5 OFFCURVE",
"794 798.5 CURVE SMOOTH",
"780.667 843.5 OFFCURVE",
"760.833 881.833 OFFCURVE",
"734.5 913.5 CURVE SMOOTH",
"708.167 945.167 OFFCURVE",
"675 969.5 OFFCURVE",
"635 986.5 CURVE SMOOTH",
"595 1003.5 OFFCURVE",
"548.333 1012 OFFCURVE",
"495 1012 CURVE SMOOTH",
"422.333 1012 OFFCURVE",
"357.333 998.667 OFFCURVE",
"300 972 CURVE SMOOTH",
"242.667 945.333 OFFCURVE",
"188 906 OFFCURVE",
"136 854 CURVE",
"153 825 LINE SMOOTH",
"156.333 819.667 OFFCURVE",
"160.333 815.333 OFFCURVE",
"165 812 CURVE SMOOTH",
"169.667 808.667 OFFCURVE",
"175.667 807 OFFCURVE",
"183 807 CURVE SMOOTH",
"193 807 OFFCURVE",
"205.333 813.667 OFFCURVE",
"220 827 CURVE SMOOTH",
"234.667 840.333 OFFCURVE",
"253.667 855 OFFCURVE",
"277 871 CURVE SMOOTH",
"300.333 887 OFFCURVE",
"328.833 901.667 OFFCURVE",
"362.5 915 CURVE SMOOTH",
"396.167 928.333 OFFCURVE",
"437 935 OFFCURVE",
"485 935 CURVE SMOOTH",
"563 935 OFFCURVE",
"621.833 910.167 OFFCURVE",
"661.5 860.5 CURVE SMOOTH",
"701.167 810.833 OFFCURVE",
"721 740 OFFCURVE",
"721 648 CURVE SMOOTH",
"721 578 LINE",
"608 575 OFFCURVE",
"512 566 OFFCURVE",
"432 550 CURVE SMOOTH",
"351 534 OFFCURVE",
"285 513 OFFCURVE",
"234 486 CURVE SMOOTH",
"183 459 OFFCURVE",
"145 428 OFFCURVE",
"121 392 CURVE SMOOTH",
"97 356 OFFCURVE",
"85 317 OFFCURVE",
"85 241 CURVE SMOOTH",
"85 195.667 OFFCURVE",
"92.5 156.833 OFFCURVE",
"107.5 124.5 CURVE SMOOTH",
"122.5 92.167 OFFCURVE",
"142.5 65.667 OFFCURVE",
"167.5 45 CURVE SMOOTH",
"192.5 24.333 OFFCURVE",
"221 9 OFFCURVE",
"253 -1 CURVE SMOOTH",
"285 -11 OFFCURVE",
"318 -16 OFFCURVE",
"352 -16 CURVE SMOOTH",
"392.667 -16 OFFCURVE",
"430 -12 OFFCURVE",
"464 -4 CURVE SMOOTH",
"498 3.167 OFFCURVE",
"529.667 14.333 OFFCURVE",
"559 29 CURVE SMOOTH",
"588.333 43.667 OFFCURVE",
"616.5 61.667 OFFCURVE",
"643.5 83 CURVE SMOOTH",
"670.5 104.333 OFFCURVE",
"697.667 128.333 OFFCURVE",
"725 155 CURVE",
"739 28 LINE",
"743.667 9.333 OFFCURVE",
"741 0 OFFCURVE",
"749 0 CURVE SMOOTH"
);
},
{
closed = 1;
nodes = (
"350 53 OFFCURVE",
"325 56.667 OFFCURVE",
"301 64 CURVE SMOOTH",
"277 71.333 OFFCURVE",
"255.833 82.833 OFFCURVE",
"237.5 98.5 CURVE SMOOTH",
"219.167 114.167 OFFCURVE",
"204.5 134.167 OFFCURVE",
"193.5 158.5 CURVE SMOOTH",
"182.5 182.833 OFFCURVE",
"177 211.667 OFFCURVE",
"177 245 CURVE SMOOTH",
"177 314 OFFCURVE",
"188 346 OFFCURVE",
"209 374 CURVE SMOOTH",
"230 401 OFFCURVE",
"262 425 OFFCURVE",
"307 445 CURVE SMOOTH",
"351 465 OFFCURVE",
"407 481 OFFCURVE",
"476 493 CURVE SMOOTH",
"545 504 OFFCURVE",
"626 511 OFFCURVE",
"721 514 CURVE",
"721 221 LINE",
"697.667 197 OFFCURVE",
"674 174.667 OFFCURVE",
"650 154 CURVE SMOOTH",
"626 133.333 OFFCURVE",
"600.167 115.5 OFFCURVE",
"572.5 100.5 CURVE SMOOTH",
"544.833 85.5 OFFCURVE",
"514.833 73.833 OFFCURVE",
"482.5 65.5 CURVE SMOOTH",
"450.167 57.167 OFFCURVE",
"414.667 53 OFFCURVE",
"376 53 CURVE SMOOTH"
);
}
);
width = 968;
}
);
leftKerningGroup = a;
rightKerningGroup = a;
unicode = 00E5;
},
{
glyphname = atilde;
lastChange = "2014-08-20 03:48:56 -0500";
layers = (
{
layerId = "6B32BEBF-3546-47C2-BC97-37B70AAB72D2";
name = Light;
paths = (
{
closed = 1;
nodes = (
"572.667 1280 OFFCURVE",
"555.5 1285.5 OFFCURVE",
"538.5 1296.5 CURVE SMOOTH",
"521.5 1307.5 OFFCURVE",
"504.167 1319.5 OFFCURVE",
"486.5 1332.5 CURVE SMOOTH",
"468.833 1345.5 OFFCURVE",
"450.333 1357.5 OFFCURVE",
"431 1368.5 CURVE SMOOTH",
"411.667 1379.5 OFFCURVE",
"390.667 1385 OFFCURVE",
"368 1385 CURVE SMOOTH",
"345.333 1385 OFFCURVE",
"325 1380.67 OFFCURVE",
"307 1372 CURVE SMOOTH",
"289 1363.33 OFFCURVE",
"273.667 1351.33 OFFCURVE",
"261 1336 CURVE SMOOTH",
"248.333 1320.67 OFFCURVE",
"238.667 1302.5 OFFCURVE",
"232 1281.5 CURVE SMOOTH",
"225.333 1260.5 OFFCURVE",
"222 1238 OFFCURVE",
"222 1214 CURVE",
"283 1214 LINE",
"283.667 1244 OFFCURVE",
"291.5 1268.5 OFFCURVE",
"306.5 1287.5 CURVE SMOOTH",
"321.5 1306.5 OFFCURVE",
"343 1316 OFFCURVE",
"371 1316 CURVE SMOOTH",
"388.333 1316 OFFCURVE",
"405.5 1310.5 OFFCURVE",
"422.5 1299.5 CURVE SMOOTH",
"439.5 1288.5 OFFCURVE",
"457 1276.5 OFFCURVE",
"475 1263.5 CURVE SMOOTH",
"493 1250.5 OFFCURVE",
"511.667 1238.5 OFFCURVE",
"531 1227.5 CURVE SMOOTH",
"550.333 1216.5 OFFCURVE",
"571 1211 OFFCURVE",
"593 1211 CURVE SMOOTH",
"616.333 1211 OFFCURVE",
"637 1215.33 OFFCURVE",
"655 1224 CURVE SMOOTH",
"673 1232.67 OFFCURVE",
"688.167 1244.67 OFFCURVE",
"700.5 1260 CURVE SMOOTH",
"712.833 1275.33 OFFCURVE",
"722.167 1293.5 OFFCURVE",
"728.5 1314.5 CURVE SMOOTH",
"734.833 1335.5 OFFCURVE",
"738 1358 OFFCURVE",
"738 1382 CURVE",
"679 1382 LINE",
"677.667 1350.67 OFFCURVE",
"669.833 1325.83 OFFCURVE",
"655.5 1307.5 CURVE SMOOTH",
"641.167 1289.17 OFFCURVE",
"619.333 1280 OFFCURVE",
"590 1280 CURVE SMOOTH"
);
},
{
closed = 1;
nodes = (
"776 0 LINE",
"814 0 LINE",
"814 648 LINE SMOOTH",
"814 703.333 OFFCURVE",
"807.333 753.5 OFFCURVE",
"794 798.5 CURVE SMOOTH",
"780.667 843.5 OFFCURVE",
"760.833 881.833 OFFCURVE",
"734.5 913.5 CURVE SMOOTH",
"708.167 945.167 OFFCURVE",
"675 969.5 OFFCURVE",
"635 986.5 CURVE SMOOTH",
"595 1003.5 OFFCURVE",
"548.333 1012 OFFCURVE",
"495 1012 CURVE SMOOTH",
"422.333 1012 OFFCURVE",
"357.333 998.667 OFFCURVE",
"300 972 CURVE SMOOTH",
"242.667 945.333 OFFCURVE",
"188 906 OFFCURVE",
"136 854 CURVE",
"153 825 LINE SMOOTH",
"156.333 819.667 OFFCURVE",
"160.333 815.333 OFFCURVE",
"165 812 CURVE SMOOTH",
"169.667 808.667 OFFCURVE",
"175.667 807 OFFCURVE",
"183 807 CURVE SMOOTH",
"193 807 OFFCURVE",
"205.333 813.667 OFFCURVE",
"220 827 CURVE SMOOTH",
"234.667 840.333 OFFCURVE",
"253.667 855 OFFCURVE",
"277 871 CURVE SMOOTH",
"300.333 887 OFFCURVE",
"328.833 901.667 OFFCURVE",
"362.5 915 CURVE SMOOTH",
"396.167 928.333 OFFCURVE",
"437 935 OFFCURVE",
"485 935 CURVE SMOOTH",
"563 935 OFFCURVE",
"621.833 910.167 OFFCURVE",
"661.5 860.5 CURVE SMOOTH",
"701.167 810.833 OFFCURVE",
"721 740 OFFCURVE",
"721 648 CURVE SMOOTH",
"721 578 LINE",
"608 575 OFFCURVE",
"512 566 OFFCURVE",
"432 550 CURVE SMOOTH",
"351 534 OFFCURVE",
"285 513 OFFCURVE",
"234 486 CURVE SMOOTH",
"183 459 OFFCURVE",
"145 428 OFFCURVE",
"121 392 CURVE SMOOTH",
"97 356 OFFCURVE",
"85 317 OFFCURVE",
"85 241 CURVE SMOOTH",
"85 195.667 OFFCURVE",
"92.5 156.833 OFFCURVE",
"107.5 124.5 CURVE SMOOTH",
"122.5 92.167 OFFCURVE",
"142.5 65.667 OFFCURVE",
"167.5 45 CURVE SMOOTH",
"192.5 24.333 OFFCURVE",
"221 9 OFFCURVE",
"253 -1 CURVE SMOOTH",
"285 -11 OFFCURVE",
"318 -16 OFFCURVE",
"352 -16 CURVE SMOOTH",
"392.667 -16 OFFCURVE",
"430 -12 OFFCURVE",
"464 -4 CURVE SMOOTH",
"498 3.167 OFFCURVE",
"529.667 14.333 OFFCURVE",
"559 29 CURVE SMOOTH",
"588.333 43.667 OFFCURVE",
"616.5 61.667 OFFCURVE",
"643.5 83 CURVE SMOOTH",
"670.5 104.333 OFFCURVE",
"697.667 128.333 OFFCURVE",
"725 155 CURVE",
"739 28 LINE",
"743.667 9.333 OFFCURVE",
"741 0 OFFCURVE",
"749 0 CURVE SMOOTH"
);
},
{
closed = 1;
nodes = (
"350 53 OFFCURVE",
"325 56.667 OFFCURVE",
"301 64 CURVE SMOOTH",
"277 71.333 OFFCURVE",
"255.833 82.833 OFFCURVE",
"237.5 98.5 CURVE SMOOTH",
"219.167 114.167 OFFCURVE",
"204.5 134.167 OFFCURVE",
"193.5 158.5 CURVE SMOOTH",
"182.5 182.833 OFFCURVE",
"177 211.667 OFFCURVE",
"177 245 CURVE SMOOTH",
"177 314 OFFCURVE",
"188 346 OFFCURVE",
"209 374 CURVE SMOOTH",
"230 401 OFFCURVE",
"262 425 OFFCURVE",
"307 445 CURVE SMOOTH",
"351 465 OFFCURVE",
"407 481 OFFCURVE",
"476 493 CURVE SMOOTH",
"545 504 OFFCURVE",
"626 511 OFFCURVE",
"721 514 CURVE",
"721 221 LINE",
"697.667 197 OFFCURVE",
"674 174.667 OFFCURVE",
"650 154 CURVE SMOOTH",
"626 133.333 OFFCURVE",
"600.167 115.5 OFFCURVE",
"572.5 100.5 CURVE SMOOTH",
"544.833 85.5 OFFCURVE",
"514.833 73.833 OFFCURVE",
"482.5 65.5 CURVE SMOOTH",
"450.167 57.167 OFFCURVE",
"414.667 53 OFFCURVE",
"376 53 CURVE SMOOTH"
);
}
);
width = 968;
}
);
leftKerningGroup = a;
rightKerningGroup = a;
unicode = 00E3;
},
{
glyphname = ae;
layers = (
{
layerId = "6B32BEBF-3546-47C2-BC97-37B70AAB72D2";
name = Light;
paths = (
{
closed = 1;
nodes = (
"1052.67 1011 OFFCURVE",
"979 989.5 OFFCURVE",
"919 946.5 CURVE SMOOTH",
"859 903.5 OFFCURVE",
"813.333 845 OFFCURVE",
"782 771 CURVE",
"766.667 845.667 OFFCURVE",
"735 904.5 OFFCURVE",
"687 947.5 CURVE SMOOTH",
"639 990.5 OFFCURVE",
"573 1012 OFFCURVE",
"489 1012 CURVE SMOOTH",
"417.667 1012 OFFCURVE",
"354.167 998.667 OFFCURVE",
"298.5 972 CURVE SMOOTH",
"242.833 945.333 OFFCURVE",
"189.333 906 OFFCURVE",
"138 854 CURVE",
"155 825 LINE SMOOTH",
"158.333 819.667 OFFCURVE",
"162.333 815.333 OFFCURVE",
"167 812 CURVE SMOOTH",
"171.667 808.667 OFFCURVE",
"177.667 807 OFFCURVE",
"185 807 CURVE SMOOTH",
"195 807 OFFCURVE",
"207.333 813.833 OFFCURVE",
"222 827.5 CURVE SMOOTH",
"236.667 841.167 OFFCURVE",
"255.667 856 OFFCURVE",
"279 872 CURVE SMOOTH",
"302.333 888 OFFCURVE",
"330.833 902.833 OFFCURVE",
"364.5 916.5 CURVE SMOOTH",
"398.167 930.167 OFFCURVE",
"439 937 OFFCURVE",
"487 937 CURVE SMOOTH",
"565 937 OFFCURVE",
"623.833 911.833 OFFCURVE",
"663.5 861.5 CURVE SMOOTH",
"703.167 811.167 OFFCURVE",
"723 740 OFFCURVE",
"723 648 CURVE SMOOTH",
"723 579 LINE",
"610.333 576.333 OFFCURVE",
"513.833 566 OFFCURVE",
"433.5 548 CURVE SMOOTH",
"353.167 530 OFFCURVE",
"287.5 506.667 OFFCURVE",
"236.5 478 CURVE SMOOTH",
"185.5 449.333 OFFCURVE",
"148 416.167 OFFCURVE",
"124 378.5 CURVE SMOOTH",
"99.9999 340.833 OFFCURVE",
"87.9999 300.667 OFFCURVE",
"87.9999 258 CURVE SMOOTH",
"87.9999 209.333 OFFCURVE",
"95.6666 167.667 OFFCURVE",
"111 133 CURVE SMOOTH",
"126.333 98.3334 OFFCURVE",
"147.333 70 OFFCURVE",
"174 48 CURVE SMOOTH",
"200.667 26 OFFCURVE",
"232 9.83339 OFFCURVE",
"268 0 CURVE SMOOTH",
"304 -11 OFFCURVE",
"343 -16 OFFCURVE",
"385 -16 CURVE SMOOTH",
"421.667 -16 OFFCURVE",
"460.167 -11 OFFCURVE",
"500.5 -1 CURVE SMOOTH",
"540.833 8.16673 OFFCURVE",
"579 24 OFFCURVE",
"615 46 CURVE SMOOTH",
"651 68 OFFCURVE",
"683.167 96.6667 OFFCURVE",
"711.5 132 CURVE SMOOTH",
"739.833 167.333 OFFCURVE",
"760.667 210.667 OFFCURVE",
"774 262 CURVE",
"805.333 170.667 OFFCURVE",
"852.5 102 OFFCURVE",
"915.5 56 CURVE SMOOTH",
"978.5 10 OFFCURVE",
"1053.67 -13 OFFCURVE",
"1141 -13 CURVE SMOOTH",
"1175.67 -13 OFFCURVE",
"1209.83 -9 OFFCURVE",
"1243.5 -2 CURVE SMOOTH",
"1277.17 5.33339 OFFCURVE",
"1309 15.1667 OFFCURVE",
"1339 27.5001 CURVE SMOOTH",
"1369 39.8334 OFFCURVE",
"1396.33 54.6667 OFFCURVE",
"1421 72 CURVE SMOOTH",
"1445.67 89.3334 OFFCURVE",
"1465.67 108 OFFCURVE",
"1481 128 CURVE",
"1457 158 LINE SMOOTH",
"1451.67 164.667 OFFCURVE",
"1444.33 168 OFFCURVE",
"1435 168 CURVE SMOOTH",
"1428.33 168 OFFCURVE",
"1418.67 162.5 OFFCURVE",
"1406 151.5 CURVE SMOOTH",
"1393.33 140.5 OFFCURVE",
"1375.67 128.5 OFFCURVE",
"1353 115.5 CURVE SMOOTH",
"1330.33 102.5 OFFCURVE",
"1302.33 90.5001 OFFCURVE",
"1269 79.5001 CURVE SMOOTH",
"1235.67 68.5001 OFFCURVE",
"1195.33 63 OFFCURVE",
"1148 63 CURVE SMOOTH",
"1097.33 63 OFFCURVE",
"1051.33 72.6667 OFFCURVE",
"1010 92 CURVE SMOOTH",
"968.667 111.333 OFFCURVE",
"933.333 140 OFFCURVE",
"904 178 CURVE SMOOTH",
"874.667 216 OFFCURVE",
"852 263.333 OFFCURVE",
"836 320 CURVE SMOOTH",
"820 376.667 OFFCURVE",
"812 442.333 OFFCURVE",
"812 517 CURVE",
"1476 517 LINE SMOOTH",
"1485.33 517 OFFCURVE",
"1491.83 519.667 OFFCURVE",
"1495.5 525 CURVE SMOOTH",
"1499.17 530.333 OFFCURVE",
"1501 540.333 OFFCURVE",
"1501 555 CURVE SMOOTH",
"1501 629 OFFCURVE",
"1491.67 694.333 OFFCURVE",
"1473 751 CURVE SMOOTH",
"1454.33 807.667 OFFCURVE",
"1428.67 855.167 OFFCURVE",
"1396 893.5 CURVE SMOOTH",
"1363.33 931.833 OFFCURVE",
"1325 961 OFFCURVE",
"1281 981 CURVE SMOOTH",
"1237 1001 OFFCURVE",
"1190 1011 OFFCURVE",
"1140 1011 CURVE SMOOTH"
);
},
{
closed = 1;
nodes = (
"723 385 LINE SMOOTH",
"723 332.333 OFFCURVE",
"714.667 285.333 OFFCURVE",
"698 244 CURVE SMOOTH",
"681.333 202.667 OFFCURVE",
"658.5 167.833 OFFCURVE",
"629.5 139.5 CURVE SMOOTH",
"600.5 111.167 OFFCURVE",
"566.667 89.6667 OFFCURVE",
"528 75 CURVE SMOOTH",
"489.333 60.3334 OFFCURVE",
"448 53 OFFCURVE",
"404 53 CURVE SMOOTH",
"371.333 53 OFFCURVE",
"341.333 57 OFFCURVE",
"314 65 CURVE SMOOTH",
"286.667 73 OFFCURVE",
"263 85.3334 OFFCURVE",
"243 102 CURVE SMOOTH",
"223 118.667 OFFCURVE",
"207.5 140.167 OFFCURVE",
"196.5 166.5 CURVE SMOOTH",
"185.5 192.833 OFFCURVE",
"180 224.667 OFFCURVE",
"180 262 CURVE SMOOTH",
"180 297.333 OFFCURVE",
"190.5 329.833 OFFCURVE",
"211.5 359.5 CURVE SMOOTH",
"232.5 389.167 OFFCURVE",
"265.167 415 OFFCURVE",
"309.5 437 CURVE SMOOTH",
"353.833 459 OFFCURVE",
"410.167 476.667 OFFCURVE",
"478.5 490 CURVE SMOOTH",
"546.833 503.333 OFFCURVE",
"628.333 511.667 OFFCURVE",
"723 515 CURVE"
);
},
{
closed = 1;
nodes = (
"1178.67 940 OFFCURVE",
"1216 931.833 OFFCURVE",
"1250 915.5 CURVE SMOOTH",
"1284 899.167 OFFCURVE",
"1313.33 875.5 OFFCURVE",
"1338 844.5 CURVE SMOOTH",
"1362.67 813.5 OFFCURVE",
"1382 775.5 OFFCURVE",
"1396 730.5 CURVE SMOOTH",
"1410 685.5 OFFCURVE",
"1417 634.667 OFFCURVE",
"1417 578 CURVE",
"814 578 LINE",
"818 632.667 OFFCURVE",
"828.167 682.333 OFFCURVE",
"844.5 727 CURVE SMOOTH",
"860.833 771.667 OFFCURVE",
"882.667 809.667 OFFCURVE",
"910 841 CURVE SMOOTH",
"937.333 872.333 OFFCURVE",
"970.167 896.667 OFFCURVE",
"1008.5 914 CURVE SMOOTH",
"1046.83 931.333 OFFCURVE",
"1090 940 OFFCURVE",
"1138 940 CURVE SMOOTH"
);
}
);
width = 1599;
}
);
leftKerningGroup = a;
rightKerningGroup = e;
unicode = 00E6;
},
{
glyphname = b;
layers = (
{
layerId = "6B32BEBF-3546-47C2-BC97-37B70AAB72D2";
name = Light;
paths = (
{
closed = 1;
nodes = (
"164 0 LINE",
"222 0 LINE SMOOTH",
"238 0 OFFCURVE",
"247 8.33333 OFFCURVE",
"249 25 CURVE",
"255 147 LINE",
"291 94.3333 OFFCURVE",
"334 54.5 OFFCURVE",
"384 27.5 CURVE SMOOTH",
"434 0.5 OFFCURVE",
"494.333 -13 OFFCURVE",
"565 -13 CURVE SMOOTH",
"633.667 -13 OFFCURVE",
"694.667 0 OFFCURVE",
"748 25.5 CURVE SMOOTH",
"801.333 51.1667 OFFCURVE",
"846.5 87.5 OFFCURVE",
"883.5 134.5 CURVE SMOOTH",
"920.5 181.5 OFFCURVE",
"948.667 238.167 OFFCURVE",
"968 304.5 CURVE SMOOTH",
"987.333 370.833 OFFCURVE",
"997 444.333 OFFCURVE",
"997 525 CURVE SMOOTH",
"997 601.667 OFFCURVE",
"988.333 670.167 OFFCURVE",
"971 730.5 CURVE SMOOTH",
"953.667 790.833 OFFCURVE",
"928.5 841.667 OFFCURVE",
"895.5 883 CURVE SMOOTH",
"862.5 924.333 OFFCURVE",
"822.333 956 OFFCURVE",
"775 978 CURVE SMOOTH",
"727.667 1000 OFFCURVE",
"674 1011 OFFCURVE",
"614 1011 CURVE SMOOTH",
"537.333 1011 OFFCURVE",
"470 994.167 OFFCURVE",
"412 960.5 CURVE SMOOTH",
"354 926.833 OFFCURVE",
"303.333 880.667 OFFCURVE",
"260 822 CURVE",
"260 1455 LINE",
"164 1455 LINE"
);
},
{
closed = 1;
nodes = (
"685.667 935 OFFCURVE",
"762.333 900.333 OFFCURVE",
"817 831 CURVE SMOOTH",
"871.667 761.667 OFFCURVE",
"899 658.333 OFFCURVE",
"899 521 CURVE SMOOTH",
"899 450.333 OFFCURVE",
"891.667 386.667 OFFCURVE",
"877 330 CURVE SMOOTH",
"862.333 273.333 OFFCURVE",
"840.167 225.167 OFFCURVE",
"810.5 185.5 CURVE SMOOTH",
"780.833 145.833 OFFCURVE",
"743.833 115.333 OFFCURVE",
"699.5 94 CURVE SMOOTH",
"655.167 72.6667 OFFCURVE",
"603.333 62 OFFCURVE",
"544 62 CURVE SMOOTH",
"485.333 62 OFFCURVE",
"433 73.5 OFFCURVE",
"387 96.5 CURVE SMOOTH",
"341 119.5 OFFCURVE",
"298.667 159.667 OFFCURVE",
"260 217 CURVE",
"260 742 LINE",
"301.333 802.667 OFFCURVE",
"348.333 850 OFFCURVE",
"401 884 CURVE SMOOTH",
"453.667 918 OFFCURVE",
"515.667 935 OFFCURVE",
"587 935 CURVE SMOOTH"
);
}
);
width = 1102;
}
);
leftKerningGroup = b;
rightKerningGroup = b;
unicode = 0062;
},
{
glyphname = c;
layers = (
{
layerId = "6B32BEBF-3546-47C2-BC97-37B70AAB72D2";
name = Light;
paths = (
{
closed = 1;
nodes = (
"858 896 LINE",
"820.667 931.333 OFFCURVE",
"777 959.333 OFFCURVE",
"727 980 CURVE SMOOTH",
"677 1000.67 OFFCURVE",
"619.667 1011 OFFCURVE",
"555 1011 CURVE SMOOTH",
"483 1011 OFFCURVE",
"419.167 998.5 OFFCURVE",
"363.5 973.5 CURVE SMOOTH",
"307.833 948.5 OFFCURVE",
"260.667 913.333 OFFCURVE",
"222 868 CURVE SMOOTH",
"183.333 822.667 OFFCURVE",
"154 768.667 OFFCURVE",
"134 706 CURVE SMOOTH",
"114 643.333 OFFCURVE",
"104 574 OFFCURVE",
"104 498 CURVE SMOOTH",
"104 417.333 OFFCURVE",
"114.5 345.333 OFFCURVE",
"135.5 282 CURVE SMOOTH",
"156.5 218.667 OFFCURVE",
"185.833 165.167 OFFCURVE",
"223.5 121.5 CURVE SMOOTH",
"261.167 77.8333 OFFCURVE",
"306.167 44.5 OFFCURVE",
"358.5 21.5 CURVE SMOOTH",
"410.833 -2 OFFCURVE",
"468.667 -13 OFFCURVE",
"532 -13 CURVE SMOOTH",
"569.333 -13 OFFCURVE",
"605.167 -10 OFFCURVE",
"639.5 -3 CURVE SMOOTH",
"673.833 4.5 OFFCURVE",
"705.667 14.3333 OFFCURVE",
"735 27 CURVE SMOOTH",
"764.333 39.6667 OFFCURVE",
"790.667 54.6667 OFFCURVE",
"814 72 CURVE SMOOTH",
"837.333 89.3333 OFFCURVE",
"856.667 108 OFFCURVE",
"872 128 CURVE",
"847 160 LINE SMOOTH",
"841.667 166.667 OFFCURVE",
"835 170 OFFCURVE",
"827 170 CURVE SMOOTH",
"819 170 OFFCURVE",
"809 164.333 OFFCURVE",
"797 153 CURVE SMOOTH",
"785 141.667 OFFCURVE",
"768.5 129.333 OFFCURVE",
"747.5 116 CURVE SMOOTH",
"726.5 102.667 OFFCURVE",
"699.833 90.3333 OFFCURVE",
"667.5 79 CURVE SMOOTH",
"635.167 67.6667 OFFCURVE",
"595 62 OFFCURVE",
"547 62 CURVE SMOOTH",
"495 62 OFFCURVE",
"447.667 71.6667 OFFCURVE",
"405 91 CURVE SMOOTH",
"362.333 110.333 OFFCURVE",
"326 138.5 OFFCURVE",
"296 175.5 CURVE SMOOTH",
"266 212.5 OFFCURVE",
"242.833 258 OFFCURVE",
"226.5 312 CURVE SMOOTH",
"210.167 366 OFFCURVE",
"202 428 OFFCURVE",
"202 498 CURVE SMOOTH",
"202 565.333 OFFCURVE",
"209.833 626 OFFCURVE",
"225.5 680 CURVE SMOOTH",
"241.167 734 OFFCURVE",
"264.333 780 OFFCURVE",
"295 818 CURVE SMOOTH",
"325.667 856 OFFCURVE",
"363.167 885.167 OFFCURVE",
"407.5 905.5 CURVE SMOOTH",
"451.833 925.833 OFFCURVE",
"502.667 936 OFFCURVE",
"560 936 CURVE SMOOTH",
"601.333 936 OFFCURVE",
"636.5 931.5 OFFCURVE",
"665.5 922.5 CURVE SMOOTH",
"694.5 913.5 OFFCURVE",
"718.667 903.667 OFFCURVE",
"738 893 CURVE SMOOTH",
"757.333 882.333 OFFCURVE",
"772.667 872.5 OFFCURVE",
"784 863.5 CURVE SMOOTH",
"795.333 854.5 OFFCURVE",
"804.333 850 OFFCURVE",
"811 850 CURVE SMOOTH",
"816.333 850 OFFCURVE",
"820.5 851.167 OFFCURVE",
"823.5 853.5 CURVE SMOOTH",
"826.5 855.833 OFFCURVE",
"829.667 858.667 OFFCURVE",
"833 862 CURVE"
);
}
);
width = 943;
}
);
leftKerningGroup = c;
rightKerningGroup = c;
unicode = 0063;
},
{
glyphname = ccedilla;
layers = (
{
layerId = "6B32BEBF-3546-47C2-BC97-37B70AAB72D2";
name = Light;
paths = (
{
closed = 1;
nodes = (
"419.333 -276 OFFCURVE",
"414 -280 OFFCURVE",
"410 -287 CURVE",
"400 -315 LINE",
"417.333 -328 OFFCURVE",
"439 -338 OFFCURVE",
"465 -346 CURVE SMOOTH",
"491 -353 OFFCURVE",
"517.667 -357 OFFCURVE",
"545 -357 CURVE SMOOTH",
"571.667 -357 OFFCURVE",
"596.333 -354 OFFCURVE",
"619 -349 CURVE SMOOTH",
"641.667 -343 OFFCURVE",
"661.167 -335 OFFCURVE",
"677.5 -324 CURVE SMOOTH",
"693.833 -313 OFFCURVE",
"706.5 -299 OFFCURVE",
"715.5 -283 CURVE SMOOTH",
"724.5 -267 OFFCURVE",
"729 -249 OFFCURVE",
"729 -229 CURVE SMOOTH",
"729 -190 OFFCURVE",
"713.5 -160 OFFCURVE",
"682.5 -140 CURVE SMOOTH",
"651.5 -119 OFFCURVE",
"605.667 -104 OFFCURVE",
"545 -93 CURVE",
"570 -11 LINE",
"636.667 -6 OFFCURVE",
"696.5 8.66667 OFFCURVE",
"749.5 34 CURVE SMOOTH",
"802.5 59.3333 OFFCURVE",
"843.333 90.6667 OFFCURVE",
"872 128 CURVE",
"847 160 LINE SMOOTH",
"841.667 166.667 OFFCURVE",
"835 170 OFFCURVE",
"827 170 CURVE SMOOTH",
"819 170 OFFCURVE",
"809 164.333 OFFCURVE",
"797 153 CURVE SMOOTH",
"785 141.667 OFFCURVE",
"768.5 129.333 OFFCURVE",
"747.5 116 CURVE SMOOTH",
"726.5 102.667 OFFCURVE",
"699.833 90.3333 OFFCURVE",
"667.5 79 CURVE SMOOTH",
"635.167 67.6667 OFFCURVE",
"595 62 OFFCURVE",
"547 62 CURVE SMOOTH",
"495 62 OFFCURVE",
"447.667 71.6667 OFFCURVE",
"405 91 CURVE SMOOTH",
"362.333 110.333 OFFCURVE",
"326 138.5 OFFCURVE",
"296 175.5 CURVE SMOOTH",
"266 212.5 OFFCURVE",
"242.833 258 OFFCURVE",
"226.5 312 CURVE SMOOTH",
"210.167 366 OFFCURVE",
"202 428 OFFCURVE",
"202 498 CURVE SMOOTH",
"202 565.333 OFFCURVE",
"209.833 626 OFFCURVE",
"225.5 680 CURVE SMOOTH",
"241.167 734 OFFCURVE",
"264.333 780 OFFCURVE",
"295 818 CURVE SMOOTH",
"325.667 856 OFFCURVE",
"363.167 885.167 OFFCURVE",
"407.5 905.5 CURVE SMOOTH",
"451.833 925.833 OFFCURVE",
"502.667 936 OFFCURVE",
"560 936 CURVE SMOOTH",
"601.333 936 OFFCURVE",
"636.5 931.5 OFFCURVE",
"665.5 922.5 CURVE SMOOTH",
"694.5 913.5 OFFCURVE",
"718.667 903.667 OFFCURVE",
"738 893 CURVE SMOOTH",
"757.333 882.333 OFFCURVE",
"772.667 872.5 OFFCURVE",
"784 863.5 CURVE SMOOTH",
"795.333 854.5 OFFCURVE",
"804.333 850 OFFCURVE",
"811 850 CURVE SMOOTH",
"816.333 850 OFFCURVE",
"820.5 851.167 OFFCURVE",
"823.5 853.5 CURVE SMOOTH",
"826.5 855.833 OFFCURVE",
"829.667 858.667 OFFCURVE",
"833 862 CURVE",
"858 896 LINE",
"820.667 931.333 OFFCURVE",
"777 959.333 OFFCURVE",
"727 980 CURVE SMOOTH",
"677 1000.67 OFFCURVE",
"619.667 1011 OFFCURVE",
"555 1011 CURVE SMOOTH",
"483 1011 OFFCURVE",
"419.167 998.5 OFFCURVE",
"363.5 973.5 CURVE SMOOTH",
"307.833 948.5 OFFCURVE",
"260.667 913.333 OFFCURVE",
"222 868 CURVE SMOOTH",
"183.333 822.667 OFFCURVE",
"154 768.667 OFFCURVE",
"134 706 CURVE SMOOTH",
"114 643.333 OFFCURVE",
"104 574 OFFCURVE",
"104 498 CURVE SMOOTH",
"104 419.333 OFFCURVE",
"114 349 OFFCURVE",
"134 287 CURVE SMOOTH",
"154 225 OFFCURVE",
"182 172.167 OFFCURVE",
"218 128.5 CURVE SMOOTH",
"254 84.8333 OFFCURVE",
"297 50.9999 OFFCURVE",
"347 26.9999 CURVE SMOOTH",
"397 2.99994 OFFCURVE",
"452.333 -10 OFFCURVE",
"513 -12 CURVE",
"475 -131 LINE",
"501 -134 OFFCURVE",
"524.833 -138 OFFCURVE",
"546.5 -143 CURVE SMOOTH",
"568.167 -147 OFFCURVE",
"586.833 -153 OFFCURVE",
"602.5 -160 CURVE SMOOTH",
"618.167 -167 OFFCURVE",
"630.333 -176 OFFCURVE",
"639 -187 CURVE SMOOTH",
"647.667 -198 OFFCURVE",
"652 -212 OFFCURVE",
"652 -229 CURVE SMOOTH",
"652 -254 OFFCURVE",
"642.667 -273 OFFCURVE",
"624 -288 CURVE SMOOTH",
"605.333 -303 OFFCURVE",
"578.667 -310 OFFCURVE",
"544 -310 CURVE SMOOTH",
"524.667 -310 OFFCURVE",
"508.333 -308 OFFCURVE",
"495 -305 CURVE SMOOTH",
"481.667 -301 OFFCURVE",
"470.5 -297 OFFCURVE",
"461.5 -293 CURVE SMOOTH",
"452.5 -289 OFFCURVE",
"445.167 -285 OFFCURVE",
"439.5 -282 CURVE SMOOTH",
"433.833 -278 OFFCURVE",
"429.333 -276 OFFCURVE",
"426 -276 CURVE SMOOTH"
);
}
);
width = 943;
}
);
leftKerningGroup = c;
rightKerningGroup = c;
unicode = 00E7;
},
{
glyphname = d;
lastChange = "2014-08-20 04:16:16 -0500";
layers = (
{
layerId = "6B32BEBF-3546-47C2-BC97-37B70AAB72D2";
name = Light;
paths = (
{
closed = 1;
nodes = (
"897 0 LINE",
"938 0 LINE",
"938 1455 LINE",
"843 1455 LINE",
"843 865 LINE",
"806.333 913 OFFCURVE",
"763.333 949.5 OFFCURVE",
"714 974.5 CURVE SMOOTH",
"664.667 999.5 OFFCURVE",
"606.333 1012 OFFCURVE",
"539 1012 CURVE SMOOTH",
"469 1012 OFFCURVE",
"407.167 998.667 OFFCURVE",
"353.5 972 CURVE SMOOTH",
"299.833 945.333 OFFCURVE",
"254.667 908.833 OFFCURVE",
"218 862.5 CURVE SMOOTH",
"181.333 816.167 OFFCURVE",
"153.5 761.5 OFFCURVE",
"134.5 698.5 CURVE SMOOTH",
"115.5 635.5 OFFCURVE",
"106 567.667 OFFCURVE",
"106 495 CURVE SMOOTH",
"106 325.667 OFFCURVE",
"140 198.667 OFFCURVE",
"208 114 CURVE SMOOTH",
"276 29.3333 OFFCURVE",
"371.333 -13 OFFCURVE",
"494 -13 CURVE SMOOTH",
"567.333 -13 OFFCURVE",
"633.333 4.66669 OFFCURVE",
"692 40 CURVE SMOOTH",
"750.667 75.3333 OFFCURVE",
"802 123 OFFCURVE",
"846 183 CURVE",
"856 26 LINE",
"858.667 8.66669 OFFCURVE",
"855 2 OFFCURVE",
"871 0 CURVE"
);
},
{
closed = 1;
nodes = (
"418.333 64 OFFCURVE",
"339.833 98.8333 OFFCURVE",
"285.5 168.5 CURVE SMOOTH",
"231.167 238.167 OFFCURVE",
"204 347 OFFCURVE",
"204 495 CURVE SMOOTH",
"204 560.333 OFFCURVE",
"211.5 620.167 OFFCURVE",
"226.5 674.5 CURVE SMOOTH",
"241.5 728.833 OFFCURVE",
"263.833 775.5 OFFCURVE",
"293.5 814.5 CURVE SMOOTH",
"323.167 853.5 OFFCURVE",
"360 883.667 OFFCURVE",
"404 905 CURVE SMOOTH",
"448 926.333 OFFCURVE",
"499.333 937 OFFCURVE",
"558 937 CURVE SMOOTH",
"617.333 937 OFFCURVE",
"670.167 925.167 OFFCURVE",
"716.5 901.5 CURVE SMOOTH",
"762.833 877.833 OFFCURVE",
"805 837.333 OFFCURVE",
"843 780 CURVE",
"843 258 LINE",
"801 196.667 OFFCURVE",
"753.167 149 OFFCURVE",
"699.5 115 CURVE SMOOTH",
"645.833 80.9999 OFFCURVE",
"586.333 63.9999 OFFCURVE",
"521 63.9999 CURVE SMOOTH"
);
}
);
width = 1102;
}
);
leftKerningGroup = d;
rightKerningGroup = d;
unicode = 0064;
},
{
glyphname = eth;
layers = (
{
layerId = "6B32BEBF-3546-47C2-BC97-37B70AAB72D2";
name = Light;
paths = (
{
closed = 1;
nodes = (
"487 1042 LINE",
"651 1187 LINE",
"724.333 1137 OFFCURVE",
"784.333 1071.67 OFFCURVE",
"831 991 CURVE SMOOTH",
"877.667 910.333 OFFCURVE",
"906 809.667 OFFCURVE",
"916 689 CURVE",
"894.667 729 OFFCURVE",
"869.667 763.667 OFFCURVE",
"841 793 CURVE SMOOTH",
"812.333 822.333 OFFCURVE",
"781.5 846.5 OFFCURVE",
"748.5 865.5 CURVE SMOOTH",
"715.5 884.5 OFFCURVE",
"681.167 898.5 OFFCURVE",
"645.5 907.5 CURVE SMOOTH",
"609.833 916.5 OFFCURVE",
"574.333 921 OFFCURVE",
"539 921 CURVE SMOOTH",
"470.333 921 OFFCURVE",
"409 908.833 OFFCURVE",
"355 884.5 CURVE SMOOTH",
"301 860.167 OFFCURVE",
"255.5 826.833 OFFCURVE",
"218.5 784.5 CURVE SMOOTH",
"181.5 742.167 OFFCURVE",
"153.333 692.667 OFFCURVE",
"134 636 CURVE SMOOTH",
"114.667 579.333 OFFCURVE",
"105 519 OFFCURVE",
"105 455 CURVE SMOOTH",
"105 383 OFFCURVE",
"116.333 318.167 OFFCURVE",
"139 260.5 CURVE SMOOTH",
"161.667 202.833 OFFCURVE",
"192.833 153.833 OFFCURVE",
"232.5 113.5 CURVE SMOOTH",
"272.167 73.1666 OFFCURVE",
"318.5 42.1666 OFFCURVE",
"371.5 20.4999 CURVE SMOOTH",
"424.5 -1 OFFCURVE",
"481.333 -12 OFFCURVE",
"542 -12 CURVE SMOOTH",
"618.667 -12 OFFCURVE",
"685.667 2.49994 OFFCURVE",
"743 31.4999 CURVE SMOOTH",
"800.333 60.4999 OFFCURVE",
"848 101.833 OFFCURVE",
"886 155.5 CURVE SMOOTH",
"924 209.167 OFFCURVE",
"952.5 273.5 OFFCURVE",
"971.5 348.5 CURVE SMOOTH",
"990.5 423.5 OFFCURVE",
"1000 507 OFFCURVE",
"1000 599 CURVE SMOOTH",
"1000 677 OFFCURVE",
"993 748.333 OFFCURVE",
"979 813 CURVE SMOOTH",
"965 877.667 OFFCURVE",
"945.167 936.333 OFFCURVE",
"919.5 989 CURVE SMOOTH",
"893.833 1041.67 OFFCURVE",
"863.5 1088.33 OFFCURVE",
"828.5 1129 CURVE SMOOTH",
"793.5 1169.67 OFFCURVE",
"755 1205.67 OFFCURVE",
"713 1237 CURVE",
"827 1337 LINE",
"841.667 1348.33 OFFCURVE",
"844.333 1361.33 OFFCURVE",
"835 1376 CURVE SMOOTH",
"817 1405 LINE",
"664 1270 LINE",
"612 1302 OFFCURVE",
"556.833 1328 OFFCURVE",
"498.5 1348 CURVE SMOOTH",
"440.167 1368 OFFCURVE",
"381 1382.67 OFFCURVE",
"321 1392 CURVE",
"310 1358 LINE SMOOTH",
"305.333 1344.67 OFFCURVE",
"306.167 1334.33 OFFCURVE",
"312.5 1327 CURVE SMOOTH",
"318.833 1319.67 OFFCURVE",
"326 1315 OFFCURVE",
"334 1313 CURVE",
"383.333 1303 OFFCURVE",
"430.167 1290.17 OFFCURVE",
"474.5 1274.5 CURVE SMOOTH",
"518.833 1258.83 OFFCURVE",
"561 1240 OFFCURVE",
"601 1218 CURVE",
"475 1109 LINE",
"467.667 1103.67 OFFCURVE",
"463.667 1097.5 OFFCURVE",
"463 1090.5 CURVE SMOOTH",
"462.333 1083.5 OFFCURVE",
"464.667 1076.67 OFFCURVE",
"470 1070 CURVE"
);
},
{
closed = 1;
nodes = (
"498 62.9998 OFFCURVE",
"454.167 71.8331 OFFCURVE",
"412.5 89.4998 CURVE SMOOTH",
"370.833 107.166 OFFCURVE",
"334.167 132.666 OFFCURVE",
"302.5 166 CURVE SMOOTH",
"270.833 199.333 OFFCURVE",
"245.833 240.333 OFFCURVE",
"227.5 289 CURVE SMOOTH",
"209.167 337.666 OFFCURVE",
"200 393 OFFCURVE",
"200 455 CURVE SMOOTH",
"200 509.666 OFFCURVE",
"207.5 560.833 OFFCURVE",
"222.5 608.5 CURVE SMOOTH",
"237.5 656.167 OFFCURVE",
"259.833 697.667 OFFCURVE",
"289.5 733 CURVE SMOOTH",
"319.167 768.333 OFFCURVE",
"356.167 796 OFFCURVE",
"400.5 816 CURVE SMOOTH",
"444.833 836 OFFCURVE",
"496.333 846 OFFCURVE",
"555 846 CURVE SMOOTH",
"605.667 846 OFFCURVE",
"650.667 837.667 OFFCURVE",
"690 821 CURVE SMOOTH",
"729.333 804.333 OFFCURVE",
"763.667 782.667 OFFCURVE",
"793 756 CURVE SMOOTH",
"822.333 729.333 OFFCURVE",
"846.833 699 OFFCURVE",
"866.5 665 CURVE SMOOTH",
"886.167 631 OFFCURVE",
"901 597 OFFCURVE",
"911 563 CURVE",
"909 485.667 OFFCURVE",
"899.667 416 OFFCURVE",
"883 354 CURVE SMOOTH",
"866.333 292 OFFCURVE",
"842.667 239.5 OFFCURVE",
"812 196.5 CURVE SMOOTH",
"781.333 153.5 OFFCURVE",
"743.667 120.5 OFFCURVE",
"699 97.4998 CURVE SMOOTH",
"654.333 74.4998 OFFCURVE",
"602.667 62.9998 OFFCURVE",
"544 62.9998 CURVE SMOOTH"
);
}
);
width = 1121;
}
);
leftKerningGroup = eth;
rightKerningGroup = eth;
unicode = 00F0;
},
{
glyphname = e;
lastChange = "2014-08-20 03:49:54 -0500";
layers = (
{
layerId = "6B32BEBF-3546-47C2-BC97-37B70AAB72D2";
name = Light;
paths = (
{
closed = 1;
nodes = (
"482.333 1011 OFFCURVE",
"419.167 998.667 OFFCURVE",
"363.5 974 CURVE SMOOTH",
"307.833 949.333 OFFCURVE",
"260.833 915.167 OFFCURVE",
"222.5 871.5 CURVE SMOOTH",
"184.167 827.833 OFFCURVE",
"154.833 775.833 OFFCURVE",
"134.5 715.5 CURVE SMOOTH",
"114.167 655.167 OFFCURVE",
"104 589.333 OFFCURVE",
"104 518 CURVE SMOOTH",
"104 433.333 OFFCURVE",
"114.833 358.167 OFFCURVE",
"136.5 292.5 CURVE SMOOTH",
"158.167 226.833 OFFCURVE",
"189 171.333 OFFCURVE",
"229 126 CURVE SMOOTH",
"269 80.6666 OFFCURVE",
"317 46.1666 OFFCURVE",
"373 22.4999 CURVE SMOOTH",
"429 -1 OFFCURVE",
"491 -13 OFFCURVE",
"559 -13 CURVE SMOOTH",
"596.333 -13 OFFCURVE",
"633.5 -9 OFFCURVE",
"670.5 -2 CURVE SMOOTH",
"707.5 5.33327 OFFCURVE",
"742.167 15.1666 OFFCURVE",
"774.5 27.4999 CURVE SMOOTH",
"806.833 39.8333 OFFCURVE",
"836.167 54.6666 OFFCURVE",
"862.5 71.9999 CURVE SMOOTH",
"888.833 89.3333 OFFCURVE",
"910 108 OFFCURVE",
"926 128 CURVE",
"900 160 LINE",
"895.333 166.667 OFFCURVE",
"888.667 170 OFFCURVE",
"880 170 CURVE SMOOTH",
"873.333 170 OFFCURVE",
"862.667 164.5 OFFCURVE",
"848 153.5 CURVE SMOOTH",
"833.333 142.5 OFFCURVE",
"813.5 130.167 OFFCURVE",
"788.5 116.5 CURVE SMOOTH",
"763.5 102.833 OFFCURVE",
"732.667 90.4999 OFFCURVE",
"696 79.4999 CURVE SMOOTH",
"659.333 68.4999 OFFCURVE",
"616 62.9999 OFFCURVE",
"566 62.9999 CURVE SMOOTH",
"510 62.9999 OFFCURVE",
"459.333 72.6666 OFFCURVE",
"414 91.9999 CURVE SMOOTH",
"368.667 111.333 OFFCURVE",
"330 140.167 OFFCURVE",
"298 178.5 CURVE SMOOTH",
"266 216.833 OFFCURVE",
"241.333 264.333 OFFCURVE",
"224 321 CURVE SMOOTH",
"206.667 377.667 OFFCURVE",
"198 411 OFFCURVE",
"198 486 CURVE SMOOTH",
"198 505 LINE",
"922 505 LINE SMOOTH",
"931 505 OFFCURVE",
"938 508 OFFCURVE",
"942 513 CURVE SMOOTH",
"946 518 OFFCURVE",
"948 528 OFFCURVE",
"948 543 CURVE SMOOTH",
"948 613 OFFCURVE",
"938 697 OFFCURVE",
"917.5 761 CURVE SMOOTH",
"900 815 OFFCURVE",
"869.333 860.5 OFFCURVE",
"834 897.5 CURVE SMOOTH",
"798.667 934.5 OFFCURVE",
"757 962.667 OFFCURVE",
"709 982 CURVE SMOOTH",
"661 1001.33 OFFCURVE",
"609 1011 OFFCURVE",
"553 1011 CURVE SMOOTH"
);
},
{
closed = 1;
nodes = (
"599.333 940 OFFCURVE",
"640.833 932.167 OFFCURVE",
"678.5 916.5 CURVE SMOOTH",
"716.167 900.833 OFFCURVE",
"748.667 878.333 OFFCURVE",
"776 849 CURVE SMOOTH",
"803.333 819.667 OFFCURVE",
"827 784 OFFCURVE",
"839.5 741.5 CURVE SMOOTH",
"855 689 OFFCURVE",
"862 619 OFFCURVE",
"862 566 CURVE",
"202 566 LINE",
"208 618 OFFCURVE",
"220 687 OFFCURVE",
"238.5 739 CURVE SMOOTH",
"253 781 OFFCURVE",
"280.833 817 OFFCURVE",
"310.5 847 CURVE SMOOTH",
"340.167 877 OFFCURVE",
"375.333 900 OFFCURVE",
"416 916 CURVE SMOOTH",
"456.667 932 OFFCURVE",
"502.667 940 OFFCURVE",
"554 940 CURVE SMOOTH"
);
}
);
width = 1043;
}
);
leftKerningGroup = c;
rightKerningGroup = e;
unicode = 0065;
},
{
glyphname = eacute;
lastChange = "2014-08-20 03:50:09 -0500";
layers = (
{
layerId = "6B32BEBF-3546-47C2-BC97-37B70AAB72D2";
name = Light;
paths = (
{
closed = 1;
nodes = (
"778 1431 LINE",
"683 1431 LINE SMOOTH",
"667 1431 OFFCURVE",
"655 1428.67 OFFCURVE",
"647 1424 CURVE SMOOTH",
"639 1419.33 OFFCURVE",
"631.333 1411 OFFCURVE",
"624 1399 CURVE SMOOTH",
"467 1161 LINE",
"524 1161 LINE SMOOTH",
"532 1161 OFFCURVE",
"538.833 1162.17 OFFCURVE",
"544.5 1164.5 CURVE SMOOTH",
"550.167 1166.83 OFFCURVE",
"555.667 1171.33 OFFCURVE",
"561 1178 CURVE SMOOTH"
);
},
{
closed = 1;
nodes = (
"482.333 1011 OFFCURVE",
"419.167 998.667 OFFCURVE",
"363.5 974 CURVE SMOOTH",
"307.833 949.333 OFFCURVE",
"260.833 915.167 OFFCURVE",
"222.5 871.5 CURVE SMOOTH",
"184.167 827.833 OFFCURVE",
"154.833 775.833 OFFCURVE",
"134.5 715.5 CURVE SMOOTH",
"114.167 655.167 OFFCURVE",
"104 589.333 OFFCURVE",
"104 518 CURVE SMOOTH",
"104 433.333 OFFCURVE",
"114.833 358.167 OFFCURVE",
"136.5 292.5 CURVE SMOOTH",
"158.167 226.833 OFFCURVE",
"189 171.333 OFFCURVE",
"229 126 CURVE SMOOTH",
"269 80.667 OFFCURVE",
"317 46.167 OFFCURVE",
"373 22.5 CURVE SMOOTH",
"429 -1 OFFCURVE",
"491 -13 OFFCURVE",
"559 -13 CURVE SMOOTH",
"596.333 -13 OFFCURVE",
"633.5 -9 OFFCURVE",
"670.5 -2 CURVE SMOOTH",
"707.5 5.333 OFFCURVE",
"742.167 15.167 OFFCURVE",
"774.5 27.5 CURVE SMOOTH",
"806.833 39.833 OFFCURVE",
"836.167 54.667 OFFCURVE",
"862.5 72 CURVE SMOOTH",
"888.833 89.333 OFFCURVE",
"910 108 OFFCURVE",
"926 128 CURVE",
"900 160 LINE",
"895.333 166.667 OFFCURVE",
"888.667 170 OFFCURVE",
"880 170 CURVE SMOOTH",
"873.333 170 OFFCURVE",
"862.667 164.5 OFFCURVE",
"848 153.5 CURVE SMOOTH",
"833.333 142.5 OFFCURVE",
"813.5 130.167 OFFCURVE",
"788.5 116.5 CURVE SMOOTH",
"763.5 102.833 OFFCURVE",
"732.667 90.5 OFFCURVE",
"696 79.5 CURVE SMOOTH",
"659.333 68.5 OFFCURVE",
"616 63 OFFCURVE",
"566 63 CURVE SMOOTH",
"510 63 OFFCURVE",
"459.333 72.667 OFFCURVE",
"414 92 CURVE SMOOTH",
"368.667 111.333 OFFCURVE",
"330 140.167 OFFCURVE",
"298 178.5 CURVE SMOOTH",
"266 216.833 OFFCURVE",
"241.333 264.333 OFFCURVE",
"224 321 CURVE SMOOTH",
"206.667 377.667 OFFCURVE",
"198 411 OFFCURVE",
"198 486 CURVE SMOOTH",
"198 505 LINE",
"922 505 LINE SMOOTH",
"931 505 OFFCURVE",
"938 508 OFFCURVE",
"942 513 CURVE SMOOTH",
"946 518 OFFCURVE",
"948 528 OFFCURVE",
"948 543 CURVE SMOOTH",
"948 613 OFFCURVE",
"938 697 OFFCURVE",
"917.5 761 CURVE SMOOTH",
"900 815 OFFCURVE",
"869.333 860.5 OFFCURVE",
"834 897.5 CURVE SMOOTH",
"798.667 934.5 OFFCURVE",
"757 962.667 OFFCURVE",
"709 982 CURVE SMOOTH",
"661 1001.33 OFFCURVE",
"609 1011 OFFCURVE",
"553 1011 CURVE SMOOTH"
);
},
{
closed = 1;
nodes = (
"599.333 940 OFFCURVE",
"640.833 932.167 OFFCURVE",
"678.5 916.5 CURVE SMOOTH",
"716.167 900.833 OFFCURVE",
"748.667 878.333 OFFCURVE",
"776 849 CURVE SMOOTH",
"803.333 819.667 OFFCURVE",
"827 784 OFFCURVE",
"839.5 741.5 CURVE SMOOTH",
"855 689 OFFCURVE",
"862 619 OFFCURVE",
"862 566 CURVE",
"202 566 LINE",
"208 618 OFFCURVE",
"220 687 OFFCURVE",
"238.5 739 CURVE SMOOTH",
"253 781 OFFCURVE",
"280.833 817 OFFCURVE",
"310.5 847 CURVE SMOOTH",
"340.167 877 OFFCURVE",
"375.333 900 OFFCURVE",
"416 916 CURVE SMOOTH",
"456.667 932 OFFCURVE",
"502.667 940 OFFCURVE",
"554 940 CURVE SMOOTH"
);
}
);
width = 1043;
}
);
leftKerningGroup = c;
rightKerningGroup = e;
unicode = 00E9;
},
{
glyphname = ecircumflex;
lastChange = "2014-08-20 03:50:21 -0500";
layers = (
{
layerId = "6B32BEBF-3546-47C2-BC97-37B70AAB72D2";
name = Light;
paths = (
{
closed = 1;
nodes = (
"813 1169 LINE",
"595 1415 LINE",
"510 1415 LINE",
"293 1169 LINE",
"360 1169 LINE SMOOTH",
"365.333 1169 OFFCURVE",
"370.5 1170.33 OFFCURVE",
"375.5 1173 CURVE SMOOTH",
"380.5 1175.67 OFFCURVE",
"385 1179 OFFCURVE",
"389 1183 CURVE",
"543 1349 LINE",
"554 1361 LINE",
"556.667 1356.33 OFFCURVE",
"560.333 1352.33 OFFCURVE",
"565 1349 CURVE",
"719 1183 LINE",
"728.333 1173.67 OFFCURVE",
"738 1169 OFFCURVE",
"748 1169 CURVE SMOOTH"
);
},
{
closed = 1;
nodes = (
"482.333 1011 OFFCURVE",
"419.167 998.667 OFFCURVE",
"363.5 974 CURVE SMOOTH",
"307.833 949.333 OFFCURVE",
"260.833 915.167 OFFCURVE",
"222.5 871.5 CURVE SMOOTH",
"184.167 827.833 OFFCURVE",
"154.833 775.833 OFFCURVE",
"134.5 715.5 CURVE SMOOTH",
"114.167 655.167 OFFCURVE",
"104 589.333 OFFCURVE",
"104 518 CURVE SMOOTH",
"104 433.333 OFFCURVE",
"114.833 358.167 OFFCURVE",
"136.5 292.5 CURVE SMOOTH",
"158.167 226.833 OFFCURVE",
"189 171.333 OFFCURVE",
"229 126 CURVE SMOOTH",
"269 80.667 OFFCURVE",
"317 46.167 OFFCURVE",
"373 22.5 CURVE SMOOTH",
"429 -1 OFFCURVE",
"491 -13 OFFCURVE",
"559 -13 CURVE SMOOTH",
"596.333 -13 OFFCURVE",
"633.5 -9 OFFCURVE",
"670.5 -2 CURVE SMOOTH",
"707.5 5.333 OFFCURVE",
"742.167 15.167 OFFCURVE",
"774.5 27.5 CURVE SMOOTH",
"806.833 39.833 OFFCURVE",
"836.167 54.667 OFFCURVE",
"862.5 72 CURVE SMOOTH",
"888.833 89.333 OFFCURVE",
"910 108 OFFCURVE",
"926 128 CURVE",
"900 160 LINE",
"895.333 166.667 OFFCURVE",
"888.667 170 OFFCURVE",
"880 170 CURVE SMOOTH",
"873.333 170 OFFCURVE",
"862.667 164.5 OFFCURVE",
"848 153.5 CURVE SMOOTH",
"833.333 142.5 OFFCURVE",
"813.5 130.167 OFFCURVE",
"788.5 116.5 CURVE SMOOTH",
"763.5 102.833 OFFCURVE",
"732.667 90.5 OFFCURVE",
"696 79.5 CURVE SMOOTH",
"659.333 68.5 OFFCURVE",
"616 63 OFFCURVE",
"566 63 CURVE SMOOTH",
"510 63 OFFCURVE",
"459.333 72.667 OFFCURVE",
"414 92 CURVE SMOOTH",
"368.667 111.333 OFFCURVE",
"330 140.167 OFFCURVE",
"298 178.5 CURVE SMOOTH",
"266 216.833 OFFCURVE",
"241.333 264.333 OFFCURVE",
"224 321 CURVE SMOOTH",
"206.667 377.667 OFFCURVE",
"198 411 OFFCURVE",
"198 486 CURVE SMOOTH",
"198 505 LINE",
"922 505 LINE SMOOTH",
"931 505 OFFCURVE",
"938 508 OFFCURVE",
"942 513 CURVE SMOOTH",
"946 518 OFFCURVE",
"948 528 OFFCURVE",
"948 543 CURVE SMOOTH",
"948 613 OFFCURVE",
"938 697 OFFCURVE",
"917.5 761 CURVE SMOOTH",
"900 815 OFFCURVE",
"869.333 860.5 OFFCURVE",
"834 897.5 CURVE SMOOTH",
"798.667 934.5 OFFCURVE",
"757 962.667 OFFCURVE",
"709 982 CURVE SMOOTH",
"661 1001.33 OFFCURVE",
"609 1011 OFFCURVE",
"553 1011 CURVE SMOOTH"
);
},
{
closed = 1;
nodes = (
"599.333 940 OFFCURVE",
"640.833 932.167 OFFCURVE",
"678.5 916.5 CURVE SMOOTH",
"716.167 900.833 OFFCURVE",
"748.667 878.333 OFFCURVE",
"776 849 CURVE SMOOTH",
"803.333 819.667 OFFCURVE",
"827 784 OFFCURVE",
"839.5 741.5 CURVE SMOOTH",
"855 689 OFFCURVE",
"862 619 OFFCURVE",
"862 566 CURVE",
"202 566 LINE",
"208 618 OFFCURVE",
"220 687 OFFCURVE",
"238.5 739 CURVE SMOOTH",
"253 781 OFFCURVE",
"280.833 817 OFFCURVE",
"310.5 847 CURVE SMOOTH",
"340.167 877 OFFCURVE",
"375.333 900 OFFCURVE",
"416 916 CURVE SMOOTH",
"456.667 932 OFFCURVE",
"502.667 940 OFFCURVE",
"554 940 CURVE SMOOTH"
);
}
);
width = 1043;
}
);
leftKerningGroup = c;
rightKerningGroup = e;
unicode = 00EA;
},
{
glyphname = edieresis;
lastChange = "2014-08-20 03:50:28 -0500";
layers = (
{
layerId = "6B32BEBF-3546-47C2-BC97-37B70AAB72D2";
name = Light;
paths = (
{
closed = 1;
nodes = (
"459 1295.33 OFFCURVE",
"456.667 1306 OFFCURVE",
"452 1316 CURVE SMOOTH",
"447.333 1326 OFFCURVE",
"441.167 1334.83 OFFCURVE",
"433.5 1342.5 CURVE SMOOTH",
"425.833 1350.17 OFFCURVE",
"417 1356.17 OFFCURVE",
"407 1360.5 CURVE SMOOTH",
"397 1364.83 OFFCURVE",
"386.667 1367 OFFCURVE",
"376 1367 CURVE SMOOTH",
"364.667 1367 OFFCURVE",
"354.167 1364.83 OFFCURVE",
"344.5 1360.5 CURVE SMOOTH",
"334.833 1356.17 OFFCURVE",
"326.167 1350.17 OFFCURVE",
"318.5 1342.5 CURVE SMOOTH",
"310.833 1334.83 OFFCURVE",
"304.833 1326 OFFCURVE",
"300.5 1316 CURVE SMOOTH",
"296.167 1306 OFFCURVE",
"294 1295.33 OFFCURVE",
"294 1284 CURVE SMOOTH",
"294 1273.33 OFFCURVE",
"296.167 1263.17 OFFCURVE",
"300.5 1253.5 CURVE SMOOTH",
"304.833 1243.83 OFFCURVE",
"310.833 1235.33 OFFCURVE",
"318.5 1228 CURVE SMOOTH",
"326.167 1220.67 OFFCURVE",
"334.833 1214.83 OFFCURVE",
"344.5 1210.5 CURVE SMOOTH",
"354.167 1206.17 OFFCURVE",
"364.667 1204 OFFCURVE",
"376 1204 CURVE SMOOTH",
"386.667 1204 OFFCURVE",
"397 1206.17 OFFCURVE",
"407 1210.5 CURVE SMOOTH",
"417 1214.83 OFFCURVE",
"425.833 1220.67 OFFCURVE",
"433.5 1228 CURVE SMOOTH",
"441.167 1235.33 OFFCURVE",
"447.333 1243.83 OFFCURVE",
"452 1253.5 CURVE SMOOTH",
"456.667 1263.17 OFFCURVE",
"459 1273.33 OFFCURVE",
"459 1284 CURVE SMOOTH"
);
},
{
closed = 1;
nodes = (
"811 1295.33 OFFCURVE",
"808.667 1306 OFFCURVE",
"804 1316 CURVE SMOOTH",
"799.333 1326 OFFCURVE",
"793.333 1334.83 OFFCURVE",
"786 1342.5 CURVE SMOOTH",
"778.667 1350.17 OFFCURVE",
"770 1356.17 OFFCURVE",
"760 1360.5 CURVE SMOOTH",
"750 1364.83 OFFCURVE",
"739.667 1367 OFFCURVE",
"729 1367 CURVE SMOOTH",
"706.333 1367 OFFCURVE",
"687 1358.83 OFFCURVE",
"671 1342.5 CURVE SMOOTH",
"655 1326.17 OFFCURVE",
"647 1306.67 OFFCURVE",
"647 1284 CURVE SMOOTH",
"647 1273.33 OFFCURVE",
"649.167 1263.17 OFFCURVE",
"653.5 1253.5 CURVE SMOOTH",
"657.833 1243.83 OFFCURVE",
"663.667 1235.33 OFFCURVE",
"671 1228 CURVE SMOOTH",
"678.333 1220.67 OFFCURVE",
"687 1214.83 OFFCURVE",
"697 1210.5 CURVE SMOOTH",
"707 1206.17 OFFCURVE",
"717.667 1204 OFFCURVE",
"729 1204 CURVE SMOOTH",
"739.667 1204 OFFCURVE",
"750 1206.17 OFFCURVE",
"760 1210.5 CURVE SMOOTH",
"770 1214.83 OFFCURVE",
"778.667 1220.67 OFFCURVE",
"786 1228 CURVE SMOOTH",
"793.333 1235.33 OFFCURVE",
"799.333 1243.83 OFFCURVE",
"804 1253.5 CURVE SMOOTH",
"808.667 1263.17 OFFCURVE",
"811 1273.33 OFFCURVE",
"811 1284 CURVE SMOOTH"
);
},
{
closed = 1;
nodes = (
"482.333 1011 OFFCURVE",
"419.167 998.667 OFFCURVE",
"363.5 974 CURVE SMOOTH",
"307.833 949.333 OFFCURVE",
"260.833 915.167 OFFCURVE",
"222.5 871.5 CURVE SMOOTH",
"184.167 827.833 OFFCURVE",
"154.833 775.833 OFFCURVE",
"134.5 715.5 CURVE SMOOTH",
"114.167 655.167 OFFCURVE",
"104 589.333 OFFCURVE",
"104 518 CURVE SMOOTH",
"104 433.333 OFFCURVE",
"114.833 358.167 OFFCURVE",
"136.5 292.5 CURVE SMOOTH",
"158.167 226.833 OFFCURVE",
"189 171.333 OFFCURVE",
"229 126 CURVE SMOOTH",
"269 80.667 OFFCURVE",
"317 46.167 OFFCURVE",
"373 22.5 CURVE SMOOTH",
"429 -1 OFFCURVE",
"491 -13 OFFCURVE",
"559 -13 CURVE SMOOTH",
"596.333 -13 OFFCURVE",
"633.5 -9 OFFCURVE",
"670.5 -2 CURVE SMOOTH",
"707.5 5.333 OFFCURVE",
"742.167 15.167 OFFCURVE",
"774.5 27.5 CURVE SMOOTH",
"806.833 39.833 OFFCURVE",
"836.167 54.667 OFFCURVE",
"862.5 72 CURVE SMOOTH",
"888.833 89.333 OFFCURVE",
"910 108 OFFCURVE",
"926 128 CURVE",
"900 160 LINE",
"895.333 166.667 OFFCURVE",
"888.667 170 OFFCURVE",
"880 170 CURVE SMOOTH",
"873.333 170 OFFCURVE",
"862.667 164.5 OFFCURVE",
"848 153.5 CURVE SMOOTH",
"833.333 142.5 OFFCURVE",
"813.5 130.167 OFFCURVE",
"788.5 116.5 CURVE SMOOTH",
"763.5 102.833 OFFCURVE",
"732.667 90.5 OFFCURVE",
"696 79.5 CURVE SMOOTH",
"659.333 68.5 OFFCURVE",
"616 63 OFFCURVE",
"566 63 CURVE SMOOTH",
"510 63 OFFCURVE",
"459.333 72.667 OFFCURVE",
"414 92 CURVE SMOOTH",
"368.667 111.333 OFFCURVE",
"330 140.167 OFFCURVE",
"298 178.5 CURVE SMOOTH",
"266 216.833 OFFCURVE",
"241.333 264.333 OFFCURVE",
"224 321 CURVE SMOOTH",
"206.667 377.667 OFFCURVE",
"198 411 OFFCURVE",
"198 486 CURVE SMOOTH",
"198 505 LINE",
"922 505 LINE SMOOTH",
"931 505 OFFCURVE",
"938 508 OFFCURVE",
"942 513 CURVE SMOOTH",
"946 518 OFFCURVE",
"948 528 OFFCURVE",
"948 543 CURVE SMOOTH",
"948 613 OFFCURVE",
"938 697 OFFCURVE",
"917.5 761 CURVE SMOOTH",
"900 815 OFFCURVE",
"869.333 860.5 OFFCURVE",
"834 897.5 CURVE SMOOTH",
"798.667 934.5 OFFCURVE",
"757 962.667 OFFCURVE",
"709 982 CURVE SMOOTH",
"661 1001.33 OFFCURVE",
"609 1011 OFFCURVE",
"553 1011 CURVE SMOOTH"
);
},
{
closed = 1;
nodes = (
"599.333 940 OFFCURVE",
"640.833 932.167 OFFCURVE",
"678.5 916.5 CURVE SMOOTH",
"716.167 900.833 OFFCURVE",
"748.667 878.333 OFFCURVE",
"776 849 CURVE SMOOTH",
"803.333 819.667 OFFCURVE",
"827 784 OFFCURVE",
"839.5 741.5 CURVE SMOOTH",
"855 689 OFFCURVE",
"862 619 OFFCURVE",
"862 566 CURVE",
"202 566 LINE",
"208 618 OFFCURVE",
"220 687 OFFCURVE",
"238.5 739 CURVE SMOOTH",
"253 781 OFFCURVE",
"280.833 817 OFFCURVE",
"310.5 847 CURVE SMOOTH",
"340.167 877 OFFCURVE",
"375.333 900 OFFCURVE",
"416 916 CURVE SMOOTH",
"456.667 932 OFFCURVE",
"502.667 940 OFFCURVE",
"554 940 CURVE SMOOTH"
);
}
);
width = 1043;
}
);
leftKerningGroup = c;
rightKerningGroup = e;
unicode = 00EB;
},
{
glyphname = egrave;
lastChange = "2014-08-20 03:50:37 -0500";
layers = (
{
layerId = "6B32BEBF-3546-47C2-BC97-37B70AAB72D2";
name = Light;
paths = (
{
closed = 1;
nodes = (
"347 1431 LINE",
"563 1178 LINE SMOOTH",
"568.333 1171.33 OFFCURVE",
"573.833 1166.83 OFFCURVE",
"579.5 1164.5 CURVE SMOOTH",
"585.167 1162.17 OFFCURVE",
"592 1161 OFFCURVE",
"600 1161 CURVE SMOOTH",
"655 1161 LINE",
"498 1399 LINE SMOOTH",
"490.667 1411 OFFCURVE",
"483 1419.33 OFFCURVE",
"475 1424 CURVE SMOOTH",
"467 1428.67 OFFCURVE",
"455 1431 OFFCURVE",
"439 1431 CURVE SMOOTH"
);
},
{
closed = 1;
nodes = (
"482.333 1011 OFFCURVE",
"419.167 998.667 OFFCURVE",
"363.5 974 CURVE SMOOTH",
"307.833 949.333 OFFCURVE",
"260.833 915.167 OFFCURVE",
"222.5 871.5 CURVE SMOOTH",
"184.167 827.833 OFFCURVE",
"154.833 775.833 OFFCURVE",
"134.5 715.5 CURVE SMOOTH",
"114.167 655.167 OFFCURVE",
"104 589.333 OFFCURVE",
"104 518 CURVE SMOOTH",
"104 433.333 OFFCURVE",
"114.833 358.167 OFFCURVE",
"136.5 292.5 CURVE SMOOTH",
"158.167 226.833 OFFCURVE",
"189 171.333 OFFCURVE",
"229 126 CURVE SMOOTH",
"269 80.667 OFFCURVE",
"317 46.167 OFFCURVE",
"373 22.5 CURVE SMOOTH",
"429 -1 OFFCURVE",
"491 -13 OFFCURVE",
"559 -13 CURVE SMOOTH",
"596.333 -13 OFFCURVE",
"633.5 -9 OFFCURVE",
"670.5 -2 CURVE SMOOTH",
"707.5 5.333 OFFCURVE",
"742.167 15.167 OFFCURVE",
"774.5 27.5 CURVE SMOOTH",
"806.833 39.833 OFFCURVE",
"836.167 54.667 OFFCURVE",
"862.5 72 CURVE SMOOTH",
"888.833 89.333 OFFCURVE",
"910 108 OFFCURVE",
"926 128 CURVE",
"900 160 LINE",
"895.333 166.667 OFFCURVE",
"888.667 170 OFFCURVE",
"880 170 CURVE SMOOTH",
"873.333 170 OFFCURVE",
"862.667 164.5 OFFCURVE",
"848 153.5 CURVE SMOOTH",
"833.333 142.5 OFFCURVE",
"813.5 130.167 OFFCURVE",
"788.5 116.5 CURVE SMOOTH",
"763.5 102.833 OFFCURVE",
"732.667 90.5 OFFCURVE",
"696 79.5 CURVE SMOOTH",
"659.333 68.5 OFFCURVE",
"616 63 OFFCURVE",
"566 63 CURVE SMOOTH",
"510 63 OFFCURVE",
"459.333 72.667 OFFCURVE",
"414 92 CURVE SMOOTH",
"368.667 111.333 OFFCURVE",
"330 140.167 OFFCURVE",
"298 178.5 CURVE SMOOTH",
"266 216.833 OFFCURVE",
"241.333 264.333 OFFCURVE",
"224 321 CURVE SMOOTH",
"206.667 377.667 OFFCURVE",
"198 411 OFFCURVE",
"198 486 CURVE SMOOTH",
"198 505 LINE",
"922 505 LINE SMOOTH",
"931 505 OFFCURVE",
"938 508 OFFCURVE",
"942 513 CURVE SMOOTH",
"946 518 OFFCURVE",
"948 528 OFFCURVE",
"948 543 CURVE SMOOTH",
"948 613 OFFCURVE",
"938 697 OFFCURVE",
"917.5 761 CURVE SMOOTH",
"900 815 OFFCURVE",
"869.333 860.5 OFFCURVE",
"834 897.5 CURVE SMOOTH",
"798.667 934.5 OFFCURVE",
"757 962.667 OFFCURVE",
"709 982 CURVE SMOOTH",
"661 1001.33 OFFCURVE",
"609 1011 OFFCURVE",
"553 1011 CURVE SMOOTH"
);
},
{
closed = 1;
nodes = (
"599.333 940 OFFCURVE",
"640.833 932.167 OFFCURVE",
"678.5 916.5 CURVE SMOOTH",
"716.167 900.833 OFFCURVE",
"748.667 878.333 OFFCURVE",
"776 849 CURVE SMOOTH",
"803.333 819.667 OFFCURVE",
"827 784 OFFCURVE",
"839.5 741.5 CURVE SMOOTH",
"855 689 OFFCURVE",
"862 619 OFFCURVE",
"862 566 CURVE",
"202 566 LINE",
"208 618 OFFCURVE",
"220 687 OFFCURVE",
"238.5 739 CURVE SMOOTH",
"253 781 OFFCURVE",
"280.833 817 OFFCURVE",
"310.5 847 CURVE SMOOTH",
"340.167 877 OFFCURVE",
"375.333 900 OFFCURVE",
"416 916 CURVE SMOOTH",
"456.667 932 OFFCURVE",
"502.667 940 OFFCURVE",
"554 940 CURVE SMOOTH"
);
}
);
width = 1043;
}
);
leftKerningGroup = c;
rightKerningGroup = e;
unicode = 00E8;
},
{
glyphname = f;
lastChange = "2014-08-20 03:50:59 -0500";
layers = (
{
layerId = "6B32BEBF-3546-47C2-BC97-37B70AAB72D2";
name = Light;
paths = (
{
closed = 1;
nodes = (
"223 0 LINE",
"319 0 LINE",
"319 893 LINE",
"639 893 LINE",
"639 964 LINE",
"316 964 LINE",
"316 1087 LINE SMOOTH",
"316 1137 OFFCURVE",
"321.5 1179.17 OFFCURVE",
"332.5 1213.5 CURVE SMOOTH",
"343.5 1247.83 OFFCURVE",
"359 1275.67 OFFCURVE",
"379 1297 CURVE SMOOTH",
"399 1318.33 OFFCURVE",
"422.833 1333.83 OFFCURVE",
"450.5 1343.5 CURVE SMOOTH",
"478.167 1353.17 OFFCURVE",
"531 1357 OFFCURVE",
"564 1357 CURVE SMOOTH",
"581 1357 OFFCURVE",
"595 1356 OFFCURVE",
"608 1355 CURVE SMOOTH",
"621 1353 OFFCURVE",
"631 1352 OFFCURVE",
"639 1352 CURVE SMOOTH",
"647 1351 OFFCURVE",
"653 1352 OFFCURVE",
"658 1354 CURVE SMOOTH",
"662 1355 OFFCURVE",
"665 1359 OFFCURVE",
"666 1365 CURVE",
"669 1411 LINE",
"652 1418 OFFCURVE",
"634 1423 OFFCURVE",
"613 1427 CURVE SMOOTH",
"592 1430 OFFCURVE",
"571 1432 OFFCURVE",
"550 1432 CURVE SMOOTH",
"505 1432 OFFCURVE",
"440.333 1425.83 OFFCURVE",
"403 1411.5 CURVE SMOOTH",
"365.667 1397.17 OFFCURVE",
"333.667 1375.67 OFFCURVE",
"307 1347 CURVE SMOOTH",
"280.333 1318.33 OFFCURVE",
"259.667 1282.5 OFFCURVE",
"245 1239.5 CURVE SMOOTH",
"230.333 1196.5 OFFCURVE",
"223 1146.67 OFFCURVE",
"223 1090 CURVE SMOOTH",
"223 964 LINE",
"55 964 LINE",
"55 916 LINE SMOOTH",
"55 901 OFFCURVE",
"64 893 OFFCURVE",
"83 891 CURVE",
"223 891 LINE"
);
}
);
width = 681;
}
);
leftKerningGroup = f;
rightKerningGroup = f;
unicode = 0066;
},
{
glyphname = g;
lastChange = "2014-08-20 03:35:11 -0500";
layers = (
{
layerId = "6B32BEBF-3546-47C2-BC97-37B70AAB72D2";
name = Light;
paths = (
{
closed = 1;
nodes = (
"939 995 LINE",
"886 995 LINE SMOOTH",
"869.333 995 OFFCURVE",
"859.667 986.667 OFFCURVE",
"857 970 CURVE",
"848 858 LINE",
"812 908.667 OFFCURVE",
"768.833 947 OFFCURVE",
"718.5 973 CURVE SMOOTH",
"668.167 999 OFFCURVE",
"608.667 1012 OFFCURVE",
"540 1012 CURVE SMOOTH",
"470 1012 OFFCURVE",
"408.167 999.167 OFFCURVE",
"354.5 973.5 CURVE SMOOTH",
"300.833 947.833 OFFCURVE",
"255.5 912.5 OFFCURVE",
"218.5 867.5 CURVE SMOOTH",
"181.5 822.5 OFFCURVE",
"153.5 769.167 OFFCURVE",
"134.5 707.5 CURVE SMOOTH",
"115.5 645.833 OFFCURVE",
"106 579.333 OFFCURVE",
"106 508 CURVE SMOOTH",
"106 424.667 OFFCURVE",
"114.667 351.833 OFFCURVE",
"132 289.5 CURVE SMOOTH",
"149.333 227.167 OFFCURVE",
"174.5 175.333 OFFCURVE",
"207.5 134 CURVE SMOOTH",
"240.5 92.6667 OFFCURVE",
"280.667 61.6667 OFFCURVE",
"328 41 CURVE SMOOTH",
"375.333 20.3333 OFFCURVE",
"428.667 10 OFFCURVE",
"488 10 CURVE SMOOTH",
"565.333 10 OFFCURVE",
"632.5 25.8333 OFFCURVE",
"689.5 57.5 CURVE SMOOTH",
"746.5 89.1667 OFFCURVE",
"797.667 134.667 OFFCURVE",
"843 194 CURVE",
"843 27 LINE SMOOTH",
"843 -21 OFFCURVE",
"836.167 -65 OFFCURVE",
"822.5 -105 CURVE SMOOTH",
"808.833 -144 OFFCURVE",
"788.167 -178 OFFCURVE",
"760.5 -207 CURVE SMOOTH",
"732.833 -236 OFFCURVE",
"698.5 -258 OFFCURVE",
"657.5 -274 CURVE SMOOTH",
"616.5 -289 OFFCURVE",
"569 -297 OFFCURVE",
"515 -297 CURVE SMOOTH",
"467.667 -297 OFFCURVE",
"427.667 -292 OFFCURVE",
"395 -281 CURVE SMOOTH",
"362.333 -270 OFFCURVE",
"334.833 -259 OFFCURVE",
"312.5 -247 CURVE SMOOTH",
"290.167 -234 OFFCURVE",
"272.167 -223 OFFCURVE",
"258.5 -212 CURVE SMOOTH",
"244.833 -201 OFFCURVE",
"233.667 -196 OFFCURVE",
"225 -196 CURVE SMOOTH",
"217.667 -196 OFFCURVE",
"212 -197 OFFCURVE",
"208 -200 CURVE SMOOTH",
"204 -202 OFFCURVE",
"200.333 -206 OFFCURVE",
"197 -211 CURVE SMOOTH",
"174 -246 LINE",
"214 -282 OFFCURVE",
"262.167 -311 OFFCURVE",
"318.5 -334 CURVE SMOOTH",
"374.833 -357 OFFCURVE",
"440.667 -368 OFFCURVE",
"516 -368 CURVE SMOOTH",
"584.667 -368 OFFCURVE",
"645.333 -358 OFFCURVE",
"698 -339 CURVE SMOOTH",
"750.667 -319 OFFCURVE",
"794.833 -291 OFFCURVE",
"830.5 -256 CURVE SMOOTH",
"866.167 -220 OFFCURVE",
"893.167 -178 OFFCURVE",
"911.5 -129 CURVE SMOOTH",
"929.833 -80 OFFCURVE",
"939 -27 OFFCURVE",
"939 31 CURVE SMOOTH"
);
},
{
closed = 1;
nodes = (
"462 87 OFFCURVE",
"419 95.1667 OFFCURVE",
"381 111.5 CURVE SMOOTH",
"343 127.833 OFFCURVE",
"310.833 153.333 OFFCURVE",
"284.5 188 CURVE SMOOTH",
"258.167 222.667 OFFCURVE",
"238.167 266.333 OFFCURVE",
"224.5 319 CURVE SMOOTH",
"210.833 371.667 OFFCURVE",
"204 434.667 OFFCURVE",
"204 508 CURVE SMOOTH",
"204 572 OFFCURVE",
"211.5 630.333 OFFCURVE",
"226.5 683 CURVE SMOOTH",
"241.5 735.667 OFFCURVE",
"263.833 780.833 OFFCURVE",
"293.5 818.5 CURVE SMOOTH",
"323.167 856.167 OFFCURVE",
"360 885.333 OFFCURVE",
"404 906 CURVE SMOOTH",
"448 926.667 OFFCURVE",
"499.333 937 OFFCURVE",
"558 937 CURVE SMOOTH",
"617.333 937 OFFCURVE",
"670.667 925 OFFCURVE",
"718 901 CURVE SMOOTH",
"765.333 877 OFFCURVE",
"807 837.667 OFFCURVE",
"843 783 CURVE",
"843 279 LINE",
"801 218.333 OFFCURVE",
"752.667 171.167 OFFCURVE",
"698 137.5 CURVE SMOOTH",
"643.333 103.833 OFFCURVE",
"580.667 87 OFFCURVE",
"510 87 CURVE SMOOTH"
);
}
);
width = 1103;
}
);
leftKerningGroup = g.salt;
rightKerningGroup = g.salt;
unicode = 0067;
},
{
glyphname = h;
lastChange = "2014-08-20 03:35:54 -0500";
layers = (
{
layerId = "6B32BEBF-3546-47C2-BC97-37B70AAB72D2";
name = Light;
paths = (
{
closed = 1;
nodes = (
"164 0 LINE",
"260 0 LINE",
"260 748 LINE",
"304 806.667 OFFCURVE",
"354 852.5 OFFCURVE",
"410 885.5 CURVE SMOOTH",
"466 918.5 OFFCURVE",
"526.667 935 OFFCURVE",
"592 935 CURVE SMOOTH",
"679.333 935 OFFCURVE",
"744.333 908.5 OFFCURVE",
"787 855.5 CURVE SMOOTH",
"829.667 802.5 OFFCURVE",
"851 729.333 OFFCURVE",
"851 636 CURVE SMOOTH",
"851 0 LINE",
"947 0 LINE",
"947 636 LINE SMOOTH",
"947 694 OFFCURVE",
"940 746 OFFCURVE",
"926 792 CURVE SMOOTH",
"912 838 OFFCURVE",
"891.333 877.333 OFFCURVE",
"864 910 CURVE SMOOTH",
"836.667 942.667 OFFCURVE",
"802.167 967.667 OFFCURVE",
"760.5 985 CURVE SMOOTH",
"718.833 1002.33 OFFCURVE",
"670.667 1011 OFFCURVE",
"616 1011 CURVE SMOOTH",
"542.667 1011 OFFCURVE",
"476.5 994.333 OFFCURVE",
"417.5 961 CURVE SMOOTH",
"358.5 927.667 OFFCURVE",
"306 882.667 OFFCURVE",
"260 826 CURVE",
"260 1455 LINE",
"164 1455 LINE"
);
}
);
width = 1100;
}
);
leftKerningGroup = b;
rightKerningGroup = h;
unicode = 0068;
},
{
glyphname = i;
layers = (
{
layerId = "6B32BEBF-3546-47C2-BC97-37B70AAB72D2";
name = Light;
paths = (
{
closed = 1;
nodes = (
"270 995 LINE",
"175 995 LINE",
"175 0 LINE",
"270 0 LINE"
);
},
{
closed = 1;
nodes = (
"311 1350 OFFCURVE",
"308.5 1361.5 OFFCURVE",
"303.5 1372.5 CURVE SMOOTH",
"298.5 1383.5 OFFCURVE",
"292 1393 OFFCURVE",
"284 1401 CURVE SMOOTH",
"276 1409 OFFCURVE",
"266.667 1415.33 OFFCURVE",
"256 1420 CURVE SMOOTH",
"245.333 1424.67 OFFCURVE",
"234 1427 OFFCURVE",
"222 1427 CURVE SMOOTH",
"210 1427 OFFCURVE",
"198.667 1424.67 OFFCURVE",
"188 1420 CURVE SMOOTH",
"177.333 1415.33 OFFCURVE",
"168 1409 OFFCURVE",
"160 1401 CURVE SMOOTH",
"152 1393 OFFCURVE",
"145.667 1383.5 OFFCURVE",
"141 1372.5 CURVE SMOOTH",
"136.333 1361.5 OFFCURVE",
"134 1350 OFFCURVE",
"134 1338 CURVE SMOOTH",
"134 1326 OFFCURVE",
"136.333 1314.83 OFFCURVE",
"141 1304.5 CURVE SMOOTH",
"145.667 1294.17 OFFCURVE",
"152 1285 OFFCURVE",
"160 1277 CURVE SMOOTH",
"168 1269 OFFCURVE",
"177.333 1262.67 OFFCURVE",
"188 1258 CURVE SMOOTH",
"198.667 1253.33 OFFCURVE",
"210 1251 OFFCURVE",
"222 1251 CURVE SMOOTH",
"234 1251 OFFCURVE",
"245.333 1253.33 OFFCURVE",
"256 1258 CURVE SMOOTH",
"266.667 1262.67 OFFCURVE",
"276 1269 OFFCURVE",
"284 1277 CURVE SMOOTH",
"292 1285 OFFCURVE",
"298.5 1294.17 OFFCURVE",
"303.5 1304.5 CURVE SMOOTH",
"308.5 1314.83 OFFCURVE",
"311 1326 OFFCURVE",
"311 1338 CURVE SMOOTH"
);
}
);
width = 445;
}
);
leftKerningGroup = i;
rightKerningGroup = i;
unicode = 0069;
},
{
glyphname = iacute;
layers = (
{
layerId = "6B32BEBF-3546-47C2-BC97-37B70AAB72D2";
name = Light;
paths = (
{
closed = 1;
nodes = (
"139 0 LINE"
);
},
{
closed = 1;
nodes = (
"271 995 LINE",
"175 995 LINE",
"175 0 LINE",
"271 0 LINE"
);
},
{
closed = 1;
nodes = (
"450 1431 LINE",
"355 1431 LINE SMOOTH",
"339 1431 OFFCURVE",
"327 1428.67 OFFCURVE",
"319 1424 CURVE SMOOTH",
"311 1419.33 OFFCURVE",
"303.333 1411 OFFCURVE",
"296 1399 CURVE SMOOTH",
"139 1161 LINE",
"196 1161 LINE SMOOTH",
"204 1161 OFFCURVE",
"210.833 1162.17 OFFCURVE",
"216.5 1164.5 CURVE SMOOTH",
"222.167 1166.83 OFFCURVE",
"227.667 1171.33 OFFCURVE",
"233 1178 CURVE SMOOTH"
);
}
);
width = 446;
}
);
leftKerningGroup = i;
rightKerningGroup = i;
unicode = 00ED;
},
{
glyphname = icircumflex;
layers = (
{
layerId = "6B32BEBF-3546-47C2-BC97-37B70AAB72D2";
name = Light;
paths = (
{
closed = 1;
nodes = (
"0 0 LINE"
);
},
{
closed = 1;
nodes = (
"271 995 LINE",
"175 995 LINE",
"175 0 LINE",
"271 0 LINE"
);
},
{
closed = 1;
nodes = (
"485 1169 LINE",
"267 1415 LINE",
"182 1415 LINE",
"-35 1169 LINE",
"32 1169 LINE SMOOTH",
"37.3333 1169 OFFCURVE",
"42.5 1170.33 OFFCURVE",
"47.5 1173 CURVE SMOOTH",
"52.5 1175.67 OFFCURVE",
"57 1179 OFFCURVE",
"61 1183 CURVE",
"215 1349 LINE",
"226 1361 LINE",
"228.667 1356.33 OFFCURVE",
"232.333 1352.33 OFFCURVE",
"237 1349 CURVE",
"391 1183 LINE",
"400.333 1173.67 OFFCURVE",
"410 1169 OFFCURVE",
"420 1169 CURVE SMOOTH"
);
}
);
width = 445;
}
);
leftKerningGroup = i;
rightKerningGroup = i;
unicode = 00EE;
},
{
glyphname = idieresis;
layers = (
{
layerId = "6B32BEBF-3546-47C2-BC97-37B70AAB72D2";
name = Light;
paths = (
{
closed = 1;
nodes = (
"4 0 LINE"
);
},
{
closed = 1;
nodes = (
"271 995 LINE",
"175 995 LINE",
"175 0 LINE",
"271 0 LINE"
);
},
{
closed = 1;
nodes = (
"168 1295.33 OFFCURVE",
"165.667 1306 OFFCURVE",
"161 1316 CURVE SMOOTH",
"156.333 1326 OFFCURVE",
"150.333 1334.83 OFFCURVE",
"143 1342.5 CURVE SMOOTH",
"135.667 1350.17 OFFCURVE",
"126.833 1356.17 OFFCURVE",
"116.5 1360.5 CURVE SMOOTH",
"106.167 1364.83 OFFCURVE",
"95.6667 1367 OFFCURVE",
"85 1367 CURVE SMOOTH",
"74.3333 1367 OFFCURVE",
"64.1667 1364.83 OFFCURVE",
"54.5 1360.5 CURVE SMOOTH",
"44.8333 1356.17 OFFCURVE",
"36.1667 1350.17 OFFCURVE",
"28.5 1342.5 CURVE SMOOTH",
"20.8333 1334.83 OFFCURVE",
"14.8333 1326 OFFCURVE",
"10.5 1316 CURVE SMOOTH",
"6.16667 1306 OFFCURVE",
"4 1295.33 OFFCURVE",
"4 1284 CURVE SMOOTH",
"4 1273.33 OFFCURVE",
"6.16667 1263.17 OFFCURVE",
"10.5 1253.5 CURVE SMOOTH",
"14.8333 1243.83 OFFCURVE",
"20.8333 1235.33 OFFCURVE",
"28.5 1228 CURVE SMOOTH",
"36.1667 1220.67 OFFCURVE",
"44.8333 1214.83 OFFCURVE",
"54.5 1210.5 CURVE SMOOTH",
"64.1667 1206.17 OFFCURVE",
"74.3333 1204 OFFCURVE",
"85 1204 CURVE SMOOTH",
"95.6667 1204 OFFCURVE",
"106.167 1206.17 OFFCURVE",
"116.5 1210.5 CURVE SMOOTH",
"126.833 1214.83 OFFCURVE",
"135.667 1220.67 OFFCURVE",
"143 1228 CURVE SMOOTH",
"150.333 1235.33 OFFCURVE",
"156.333 1243.83 OFFCURVE",
"161 1253.5 CURVE SMOOTH",
"165.667 1263.17 OFFCURVE",
"168 1273.33 OFFCURVE",
"168 1284 CURVE SMOOTH"
);
},
{
closed = 1;
nodes = (
"446 1295.33 OFFCURVE",
"443.667 1306 OFFCURVE",
"439 1316 CURVE SMOOTH",
"434.333 1326 OFFCURVE",
"428.333 1334.83 OFFCURVE",
"421 1342.5 CURVE SMOOTH",
"413.667 1350.17 OFFCURVE",
"404.833 1356.17 OFFCURVE",
"394.5 1360.5 CURVE SMOOTH",
"384.167 1364.83 OFFCURVE",
"373.667 1367 OFFCURVE",
"363 1367 CURVE SMOOTH",
"351.667 1367 OFFCURVE",
"341.167 1364.83 OFFCURVE",
"331.5 1360.5 CURVE SMOOTH",
"321.833 1356.17 OFFCURVE",
"313.167 1350.17 OFFCURVE",
"305.5 1342.5 CURVE SMOOTH",
"297.833 1334.83 OFFCURVE",
"291.833 1326 OFFCURVE",
"287.5 1316 CURVE SMOOTH",
"283.167 1306 OFFCURVE",
"281 1295.33 OFFCURVE",
"281 1284 CURVE SMOOTH",
"281 1273.33 OFFCURVE",
"283.167 1263.17 OFFCURVE",
"287.5 1253.5 CURVE SMOOTH",
"291.833 1243.83 OFFCURVE",
"297.833 1235.33 OFFCURVE",
"305.5 1228 CURVE SMOOTH",
"313.167 1220.67 OFFCURVE",
"321.833 1214.83 OFFCURVE",
"331.5 1210.5 CURVE SMOOTH",
"341.167 1206.17 OFFCURVE",
"351.667 1204 OFFCURVE",
"363 1204 CURVE SMOOTH",
"373.667 1204 OFFCURVE",
"384.167 1206.17 OFFCURVE",
"394.5 1210.5 CURVE SMOOTH",
"404.833 1214.83 OFFCURVE",
"413.667 1220.67 OFFCURVE",
"421 1228 CURVE SMOOTH",
"428.333 1235.33 OFFCURVE",
"434.333 1243.83 OFFCURVE",
"439 1253.5 CURVE SMOOTH",
"443.667 1263.17 OFFCURVE",
"446 1273.33 OFFCURVE",
"446 1284 CURVE SMOOTH"
);
}
);
width = 445;
}
);
leftKerningGroup = i;
rightKerningGroup = i;
unicode = 00EF;
},
{
glyphname = igrave;
layers = (
{
layerId = "6B32BEBF-3546-47C2-BC97-37B70AAB72D2";
name = Light;
paths = (
{
closed = 1;
nodes = (
"19 0 LINE"
);
},
{
closed = 1;
nodes = (
"271 995 LINE",
"175 995 LINE",
"175 0 LINE",
"271 0 LINE"
);
},
{
closed = 1;
nodes = (
"19 1431 LINE",
"235 1178 LINE SMOOTH",
"240.333 1171.33 OFFCURVE",
"245.833 1166.83 OFFCURVE",
"251.5 1164.5 CURVE SMOOTH",
"257.167 1162.17 OFFCURVE",
"264 1161 OFFCURVE",
"272 1161 CURVE SMOOTH",
"327 1161 LINE",
"170 1399 LINE SMOOTH",
"162.667 1411 OFFCURVE",
"155 1419.33 OFFCURVE",
"147 1424 CURVE SMOOTH",
"139 1428.67 OFFCURVE",
"127 1431 OFFCURVE",
"111 1431 CURVE SMOOTH"
);
}
);
width = 445;
}
);
leftKerningGroup = i;
rightKerningGroup = i;
unicode = 00EC;
},
{
glyphname = j;
layers = (
{
layerId = "6B32BEBF-3546-47C2-BC97-37B70AAB72D2";
name = Light;
paths = (
{
closed = 1;
nodes = (
"270 995 LINE",
"175 995 LINE",
"175 -127 LINE SMOOTH",
"175 -181 OFFCURVE",
"162 -223 OFFCURVE",
"136 -252 CURVE SMOOTH",
"110 -281 OFFCURVE",
"70 -296 OFFCURVE",
"16 -296 CURVE SMOOTH",
"2.66667 -296 OFFCURVE",
"-8 -295 OFFCURVE",
"-17 -294 CURVE SMOOTH",
"-26 -292 OFFCURVE",
"-33 -291 OFFCURVE",
"-39 -290 CURVE SMOOTH",
"-44 -289 OFFCURVE",
"-49 -289 OFFCURVE",
"-52 -290 CURVE SMOOTH",
"-55 -291 OFFCURVE",
"-58 -294 OFFCURVE",
"-60 -300 CURVE",
"-65 -348 LINE",
"-50 -355 OFFCURVE",
"-35 -361 OFFCURVE",
"-20 -364 CURVE SMOOTH",
"-5 -367 OFFCURVE",
"12.6667 -369 OFFCURVE",
"32 -369 CURVE SMOOTH",
"72 -369 OFFCURVE",
"106.833 -363 OFFCURVE",
"136.5 -351 CURVE SMOOTH",
"166.167 -338 OFFCURVE",
"190.833 -321 OFFCURVE",
"210.5 -300 CURVE SMOOTH",
"230.167 -278 OFFCURVE",
"245 -252 OFFCURVE",
"255 -223 CURVE SMOOTH",
"265 -194 OFFCURVE",
"270 -162 OFFCURVE",
"270 -127 CURVE SMOOTH"
);
},
{
closed = 1;
nodes = (
"311 1350 OFFCURVE",
"308.5 1361.5 OFFCURVE",
"303.5 1372.5 CURVE SMOOTH",
"298.5 1383.5 OFFCURVE",
"291.833 1393 OFFCURVE",
"283.5 1401 CURVE SMOOTH",
"275.167 1409 OFFCURVE",
"265.667 1415.33 OFFCURVE",
"255 1420 CURVE SMOOTH",
"244.333 1424.67 OFFCURVE",
"233 1427 OFFCURVE",
"221 1427 CURVE SMOOTH",
"209 1427 OFFCURVE",
"197.667 1424.67 OFFCURVE",
"187 1420 CURVE SMOOTH",
"176.333 1415.33 OFFCURVE",
"167 1409 OFFCURVE",
"159 1401 CURVE SMOOTH",
"151 1393 OFFCURVE",
"144.667 1383.5 OFFCURVE",
"140 1372.5 CURVE SMOOTH",
"135.333 1361.5 OFFCURVE",
"133 1350 OFFCURVE",
"133 1338 CURVE SMOOTH",
"133 1326 OFFCURVE",
"135.333 1314.83 OFFCURVE",
"140 1304.5 CURVE SMOOTH",
"144.667 1294.17 OFFCURVE",
"151 1285 OFFCURVE",
"159 1277 CURVE SMOOTH",
"167 1269 OFFCURVE",
"176.333 1262.67 OFFCURVE",
"187 1258 CURVE SMOOTH",
"197.667 1253.33 OFFCURVE",
"209 1251 OFFCURVE",
"221 1251 CURVE SMOOTH",
"233 1251 OFFCURVE",
"244.333 1253.33 OFFCURVE",
"255 1258 CURVE SMOOTH",
"265.667 1262.67 OFFCURVE",
"275.167 1269 OFFCURVE",
"283.5 1277 CURVE SMOOTH",
"291.833 1285 OFFCURVE",
"298.5 1294.17 OFFCURVE",
"303.5 1304.5 CURVE SMOOTH",
"308.5 1314.83 OFFCURVE",
"311 1326 OFFCURVE",
"311 1338 CURVE SMOOTH"
);
}
);
width = 445;
}
);
leftKerningGroup = i;
rightKerningGroup = i;
unicode = 006A;
},
